<?xml version="1.0" encoding="UTF-8" standalone="no"?>
<!-- Created with Inkscape (http://www.inkscape.org/) -->

<svg
   xmlns:dc="http://purl.org/dc/elements/1.1/"
   xmlns:cc="http://creativecommons.org/ns#"
   xmlns:rdf="http://www.w3.org/1999/02/22-rdf-syntax-ns#"
   xmlns:svg="http://www.w3.org/2000/svg"
   xmlns="http://www.w3.org/2000/svg"
   xmlns:sodipodi="http://sodipodi.sourceforge.net/DTD/sodipodi-0.dtd"
   xmlns:inkscape="http://www.inkscape.org/namespaces/inkscape"
   width="744.09448819"
   height="1052.3622047"
   id="svg2"
   version="1.1"
   inkscape:version="0.48.2 r9819"
   sodipodi:docname="New document 1">
  <sodipodi:namedview
     id="base"
     pagecolor="#ffffff"
     bordercolor="#666666"
     borderopacity="1.0"
     inkscape:pageopacity="0.0"
     inkscape:pageshadow="2"
     inkscape:zoom="0.7"
     inkscape:cx="363.2449"
     inkscape:cy="526.87188"
     inkscape:document-units="px"
     inkscape:current-layer="layer1"
     showgrid="false"
     inkscape:window-width="1051"
     inkscape:window-height="756"
     inkscape:window-x="0"
     inkscape:window-y="0"
     inkscape:window-maximized="0" />
  <defs
     id="defs4" />
  <metadata
     id="metadata7">
    <rdf:RDF>
      <cc:Work
         rdf:about="">
        <dc:format>image/svg+xml</dc:format>
        <dc:type
           rdf:resource="http://purl.org/dc/dcmitype/StillImage" />
        <dc:title></dc:title>
      </cc:Work>
    </rdf:RDF>
  </metadata>
  <path
     style="stroke:#000000;fill:none"
     d="M 633.0,532.3622047 C 633.0,536.289195517 630.906300166,540.218670776 626.825982365,544.524649763 C 622.745664563,548.83062875 616.680727048,553.517690368 608.937279293,558.887500843 C 601.193831538,564.257311317 591.77556937,570.313339246 581.144499281,577.223910749 C 570.513429193,584.134482251 558.674388918,591.90140513 546.180644106,600.51967202 C 533.686899294,609.13793891 520.54370337,618.607400474 507.319146788,628.73713192 C 494.094590206,638.866863366 480.79355564,649.654761615 467.922186447,660.741029607 C 455.050817254,671.8272976 442.61289812,683.208181583 430.98698248,694.399365241 C 419.36106684,705.590548899 408.549283702,716.58718479 398.757816505,726.845583179 C 388.966349308,737.103981567 380.195367722,746.618927762 372.461292604,754.863574923 C 364.727217486,763.108222085 358.028255304,770.077773831 352.203388405,775.338059038 C 346.378521505,780.598344245 341.424289173,784.145710114 337.042062209,785.70266531 C 332.659835246,787.259620506 328.845036069,786.824210501 325.222341828,784.318102725 C 321.599647588,781.811994949 318.164084126,777.235232828 314.536017686,770.723124088 C 310.907951246,764.211015347 307.082791177,755.76560038 302.74907371,745.720048398 C 298.415356244,735.674496416 293.569594827,724.032543139 288.029705809,711.281472551 C 282.489816792,698.530401963 276.253968619,684.675088534 269.30976438,670.291717614 C 262.365560142,655.908346694 254.713120168,641.00220445 246.522714514,626.16142138 C 238.332308861,611.320638309 229.606007002,596.550125092 220.680171093,582.372729175 C 211.754335184,568.195333258 202.632681541,554.614861957 193.773845,542.022856509 C 184.91500846,529.430851061 176.323796047,517.829457213 168.516554188,507.433834193 C 160.709312329,497.038211173 153.691213241,487.848539118 147.960721208,479.885998292 C 142.230229175,471.923457465 137.792097014,465.186258293 135.051720296,459.513817775 C 132.311343577,453.841377257 131.272331434,449.230232038 132.183661847,445.377852924 C 133.09499226,441.52547381 135.958576987,438.427274037 140.825146664,435.699784915 C 145.691716342,432.972295792 152.561186641,430.61052765 161.272187804,428.222640515 C 169.983188967,425.834753379 180.533642496,423.416135109 192.566450454,420.639333273 C 204.599258411,417.862531436 218.110650642,414.724032502 232.592092578,411.022345755 C 247.073534514,407.320659008 262.520121702,403.053921042 278.337580215,398.187351364 C 294.155038727,393.320781687 310.338057546,387.854464627 326.28399146,381.933819798 C 342.229925375,376.01317497 357.933844555,369.640232517 372.862291194,363.124603114 C 387.790737833,356.608973712 401.939891601,349.954331912 414.911746843,343.591269144 C 427.883602085,337.228206377 439.676006473,331.161486419 450.071629493,325.878758888 C 460.467252513,320.596031357 469.465914028,316.102424724 477.04860506,312.867706464 C 484.631296092,309.632988204 490.799812797,307.661867886 495.721202594,307.331697674 C 500.64259239,307.001527462 504.320331646,308.315874725 507.067559916,311.496965963 C 509.814788186,314.678057201 511.636111384,319.727764842 512.929512914,326.67196908 C 514.222914444,333.616173319 514.993408827,342.454753825 515.650924614,353.003957258 C 516.308440402,363.553160692 516.857619718,375.810876704 517.647165579,389.400600292 C 518.43671144,402.990323879 519.470171812,417.908257909 520.972966137,433.62987915 C 522.475760461,449.351500391 524.449790249,465.871882898 526.955898025,482.584546528 C 529.462005801,499.297210159 532.500148139,516.196828382 535.952507359,532.672610146 C 539.404866578,549.14839191 543.269455305,565.195398202 547.265176219,580.276271223 C 551.260897133,595.357144244 555.384119348,609.468061022 559.233026987,622.211450555 C 563.081934626,634.954840089 566.651807477,646.328554008 569.483378479,656.120021205 C 572.31494948,665.911488402 574.403132634,674.120539207 575.305503777,680.737140431 C 576.20787492,687.353741655 575.919764897,692.379706194 574.089503026,695.995069266 C 572.259241155,699.610432338 568.883297502,701.818692943 563.762880471,702.949694724 C 558.642463441,704.080696506 551.77573421,704.139073384 543.15746732,703.542848806 C 534.53920043,702.946624228 524.169545218,701.700845457 512.2496593,700.238360745 C 500.329773382,698.775876033 486.861790857,697.10136424 472.235974261,695.588805874 C 457.610157666,694.076247509 441.830322087,692.729230428 425.430788299,691.800233814 C 409.031254512,690.871237199 392.016960207,690.3622047 375.0,690.3622047 C 357.983039793,690.3622047 340.968745488,690.871237199 324.569211701,691.800233814 C 308.169677913,692.729230428 292.389842334,694.076247509 277.764025739,695.588805874 C 263.138209143,697.10136424 249.670226618,698.775876033 237.7503407,700.238360745 C 225.830454782,701.700845457 215.46079957,702.946624228 206.84253268,703.542848806 C 198.22426579,704.139073384 191.357536559,704.080696506 186.237119529,702.949694724 C 181.116702498,701.818692943 177.740758845,699.610432338 175.910496974,695.995069266 C 174.080235103,692.379706194 173.79212508,687.353741655 174.694496223,680.737140431 C 175.596867366,674.120539207 177.68505052,665.911488402 180.516621521,656.120021205 C 183.348192523,646.328554008 186.918065374,634.954840089 190.766973013,622.211450555 C 194.615880652,609.468061022 198.739102867,595.357144244 202.734823781,580.276271223 C 206.730544695,565.195398202 210.595133422,549.14839191 214.047492641,532.672610146 C 217.499851861,516.196828382 220.537994199,499.297210159 223.044101975,482.584546528 C 225.550209751,465.871882898 227.524239539,449.351500391 229.027033863,433.62987915 C 230.529828188,417.908257909 231.56328856,402.990323879 232.352834421,389.400600292 C 233.142380282,375.810876704 233.691559598,363.553160692 234.349075386,353.003957258 C 235.006591173,342.454753825 235.777085556,333.616173319 237.070487086,326.67196908 C 238.363888616,319.727764842 240.185211814,314.678057201 242.932440084,311.496965963 C 245.679668354,308.315874725 249.35740761,307.001527462 254.278797406,307.331697674 C 259.200187203,307.661867886 265.368703908,309.632988204 272.95139494,312.867706464 C 280.534085972,316.102424724 289.532747487,320.596031357 299.928370507,325.878758888 C 310.323993527,331.161486419 322.116397915,337.228206377 335.088253157,343.591269144 C 348.060108399,349.954331912 362.209262167,356.608973712 377.137708806,363.124603114 C 392.066155445,369.640232517 407.770074625,376.01317497 423.71600854,381.933819798 C 439.661942454,387.854464627 455.844961273,393.320781687 471.662419785,398.187351364 C 487.479878298,403.053921042 502.926465486,407.320659008 517.407907422,411.022345755 C 531.889349358,414.724032502 545.400741589,417.862531436 557.433549546,420.639333273 C 569.466357504,423.416135109 580.016811033,425.834753379 588.727812196,428.222640515 C 597.438813359,430.61052765 604.308283658,432.972295792 609.174853336,435.699784915 C 614.041423013,438.427274037 616.90500774,441.52547381 617.816338153,445.377852924 C 618.727668566,449.230232038 617.688656423,453.841377257 614.948279704,459.513817775 C 612.207902986,465.186258293 607.769770825,471.923457465 602.039278792,479.885998292 C 596.308786759,487.848539118 589.290687671,497.038211173 581.483445812,507.433834193 C 573.676203953,517.829457213 565.08499154,529.430851061 556.226155,542.022856509 C 547.367318459,554.614861957 538.245664816,568.195333258 529.319828907,582.372729175 C 520.393992998,596.550125092 511.667691139,611.320638309 503.477285486,626.16142138 C 495.286879832,641.00220445 487.634439858,655.908346694 480.69023562,670.291717614 C 473.746031381,684.675088534 467.510183208,698.530401963 461.970294191,711.281472551 C 456.430405173,724.032543139 451.584643756,735.674496416 447.25092629,745.720048398 C 442.917208823,755.76560038 439.092048754,764.211015347 435.463982314,770.723124088 C 431.835915874,777.235232828 428.400352412,781.811994949 424.777658172,784.318102725 C 421.154963931,786.824210501 417.340164754,787.259620506 412.957937791,785.70266531 C 408.575710827,784.145710114 403.621478495,780.598344245 397.796611595,775.338059038 C 391.971744696,770.077773831 385.272782514,763.108222085 377.538707396,754.863574923 C 369.804632278,746.618927762 361.033650692,737.103981567 351.242183495,726.845583179 C 341.450716298,716.58718479 330.63893316,705.590548899 319.01301752,694.399365241 C 307.38710188,683.208181583 294.949182746,671.8272976 282.077813553,660.741029607 C 269.20644436,649.654761615 255.905409794,638.866863366 242.680853212,628.73713192 C 229.45629663,618.607400474 216.313100706,609.13793891 203.819355894,600.51967202 C 191.325611082,591.90140513 179.486570807,584.134482251 168.855500719,577.223910749 C 158.22443063,570.313339246 148.806168462,564.257311317 141.062720707,558.887500843 C 133.319272952,553.517690368 127.254335437,548.83062875 123.174017635,544.524649763 C 119.093699834,540.218670776 117.0,536.289195517 117.0,532.3622047 C 117.0,528.435213883 119.093699834,524.505738624 123.174017635,520.199759637 C 127.254335437,515.89378065 133.319272952,511.206719032 141.062720707,505.836908557 C 148.806168462,500.467098083 158.22443063,494.411070154 168.855500719,487.500498651 C 179.486570807,480.589927149 191.325611082,472.82300427 203.819355894,464.20473738 C 216.313100706,455.58647049 229.45629663,446.117008926 242.680853212,435.98727748 C 255.905409794,425.857546034 269.20644436,415.069647785 282.077813553,403.983379793 C 294.949182746,392.8971118 307.38710188,381.516227817 319.01301752,370.325044159 C 330.63893316,359.133860501 341.450716298,348.13722461 351.242183495,337.878826221 C 361.033650692,327.620427833 369.804632278,318.105481638 377.538707396,309.860834477 C 385.272782514,301.616187315 391.971744696,294.646635569 397.796611595,289.386350362 C 403.621478495,284.126065155 408.575710827,280.578699286 412.957937791,279.02174409 C 417.340164754,277.464788894 421.154963931,277.900198899 424.777658172,280.406306675 C 428.400352412,282.912414451 431.835915874,287.489176572 435.463982314,294.001285312 C 439.092048754,300.513394053 442.917208823,308.95880902 447.25092629,319.004361002 C 451.584643756,329.049912984 456.430405173,340.691866261 461.970294191,353.442936849 C 467.510183208,366.194007437 473.746031381,380.049320866 480.69023562,394.432691786 C 487.634439858,408.816062706 495.286879832,423.72220495 503.477285486,438.56298802 C 511.667691139,453.403771091 520.393992998,468.174284308 529.319828907,482.351680225 C 538.245664816,496.529076142 547.367318459,510.109547443 556.226155,522.701552891 C 565.08499154,535.293558339 573.676203953,546.894952187 581.483445812,557.290575207 C 589.290687671,567.686198227 596.308786759,576.875870282 602.039278792,584.838411108 C 607.769770825,592.800951935 612.207902986,599.538151107 614.948279704,605.210591625 C 617.688656423,610.883032143 618.727668566,615.494177362 617.816338153,619.346556476 C 616.90500774,623.19893559 614.041423013,626.297135363 609.174853336,629.024624485 C 604.308283658,631.752113608 597.438813359,634.11388175 588.727812196,636.501768885 C 580.016811033,638.889656021 569.466357504,641.308274291 557.433549546,644.085076127 C 545.400741589,646.861877964 531.889349358,650.000376898 517.407907422,653.702063645 C 502.926465486,657.403750392 487.479878298,661.670488358 471.662419785,666.537058036 C 455.844961273,671.403627713 439.661942454,676.869944773 423.71600854,682.790589602 C 407.770074625,688.71123443 392.066155445,695.084176883 377.137708806,701.599806286 C 362.209262167,708.115435688 348.060108399,714.770077488 335.088253157,721.133140256 C 322.116397915,727.496203023 310.323993527,733.562922981 299.928370507,738.845650512 C 289.532747487,744.128378043 280.534085972,748.621984676 272.95139494,751.856702936 C 265.368703908,755.091421196 259.200187203,757.062541514 254.278797406,757.392711726 C 249.35740761,757.722881938 245.679668354,756.408534675 242.932440084,753.227443437 C 240.185211814,750.046352199 238.363888616,744.996644558 237.070487086,738.05244032 C 235.777085556,731.108236081 235.006591173,722.269655575 234.349075386,711.720452142 C 233.691559598,701.171248708 233.142380282,688.913532696 232.352834421,675.323809108 C 231.56328856,661.734085521 230.529828188,646.816151491 229.027033863,631.09453025 C 227.524239539,615.372909009 225.550209751,598.852526502 223.044101975,582.139862872 C 220.537994199,565.427199241 217.499851861,548.527581018 214.047492641,532.051799254 C 210.595133422,515.57601749 206.730544695,499.529011198 202.734823781,484.448138177 C 198.739102867,469.367265156 194.615880652,455.256348378 190.766973013,442.512958845 C 186.918065374,429.769569311 183.348192523,418.395855392 180.516621521,408.604388195 C 177.68505052,398.812920998 175.596867366,390.603870193 174.694496223,383.987268969 C 173.79212508,377.370667745 174.080235103,372.344703206 175.910496974,368.729340134 C 177.740758845,365.113977062 181.116702498,362.905716457 186.237119529,361.774714676 C 191.357536559,360.643712894 198.22426579,360.585336016 206.84253268,361.181560594 C 215.46079957,361.777785172 225.830454782,363.023563943 237.7503407,364.486048655 C 249.670226618,365.948533367 263.138209143,367.62304516 277.764025739,369.135603526 C 292.389842334,370.648161891 308.169677913,371.995178972 324.569211701,372.924175586 C 340.968745488,373.853172201 357.983039793,374.3622047 375.0,374.3622047 C 392.016960207,374.3622047 409.031254512,373.853172201 425.430788299,372.924175586 C 441.830322087,371.995178972 457.610157666,370.648161891 472.235974261,369.135603526 C 486.861790857,367.62304516 500.329773382,365.948533367 512.2496593,364.486048655 C 524.169545218,363.023563943 534.53920043,361.777785172 543.15746732,361.181560594 C 551.77573421,360.585336016 558.642463441,360.643712894 563.762880471,361.774714676 C 568.883297502,362.905716457 572.259241155,365.113977062 574.089503026,368.729340134 C 575.919764897,372.344703206 576.20787492,377.370667745 575.305503777,383.987268969 C 574.403132634,390.603870193 572.31494948,398.812920998 569.483378479,408.604388195 C 566.651807477,418.395855392 563.081934626,429.769569311 559.233026987,442.512958845 C 555.384119348,455.256348378 551.260897133,469.367265156 547.265176219,484.448138177 C 543.269455305,499.529011198 539.404866578,515.57601749 535.952507359,532.051799254 C 532.500148139,548.527581018 529.462005801,565.427199241 526.955898025,582.139862872 C 524.449790249,598.852526502 522.475760461,615.372909009 520.972966137,631.09453025 C 519.470171812,646.816151491 518.43671144,661.734085521 517.647165579,675.323809108 C 516.857619718,688.913532696 516.308440402,701.171248708 515.650924614,711.720452142 C 514.993408827,722.269655575 514.222914444,731.108236081 512.929512914,738.05244032 C 511.636111384,744.996644558 509.814788186,750.046352199 507.067559916,753.227443437 C 504.320331646,756.408534675 500.64259239,757.722881938 495.721202594,757.392711726 C 490.799812797,757.062541514 484.631296092,755.091421196 477.04860506,751.856702936 C 469.465914028,748.621984676 460.467252513,744.128378043 450.071629493,738.845650512 C 439.676006473,733.562922981 427.883602085,727.496203023 414.911746843,721.133140256 C 401.939891601,714.770077488 387.790737833,708.115435688 372.862291194,701.599806286 C 357.933844555,695.084176883 342.229925375,688.71123443 326.28399146,682.790589602 C 310.338057546,676.869944773 294.155038727,671.403627713 278.337580215,666.537058036 C 262.520121702,661.670488358 247.073534514,657.403750392 232.592092578,653.702063645 C 218.110650642,650.000376898 204.599258411,646.861877964 192.566450454,644.085076127 C 180.533642496,641.308274291 169.983188967,638.889656021 161.272187804,636.501768885 C 152.561186641,634.11388175 145.691716342,631.752113608 140.825146664,629.024624485 C 135.958576987,626.297135363 133.09499226,623.19893559 132.183661847,619.346556476 C 131.272331434,615.494177362 132.311343577,610.883032143 135.051720296,605.210591625 C 137.792097014,599.538151107 142.230229175,592.800951935 147.960721208,584.838411108 C 153.691213241,576.875870282 160.709312329,567.686198227 168.516554188,557.290575207 C 176.323796047,546.894952187 184.91500846,535.293558339 193.773845,522.701552891 C 202.632681541,510.109547443 211.754335184,496.529076142 220.680171093,482.351680225 C 229.606007002,468.174284308 238.332308861,453.403771091 246.522714514,438.56298802 C 254.713120168,423.72220495 262.365560142,408.816062706 269.30976438,394.432691786 C 276.253968619,380.049320866 282.489816792,366.194007437 288.029705809,353.442936849 C 293.569594827,340.691866261 298.415356244,329.049912984 302.74907371,319.004361002 C 307.082791177,308.95880902 310.907951246,300.513394053 314.536017686,294.001285312 C 318.164084126,287.489176572 321.599647588,282.912414451 325.222341828,280.406306675 C 328.845036069,277.900198899 332.659835246,277.464788894 337.042062209,279.02174409 C 341.424289173,280.578699286 346.378521505,284.126065155 352.203388405,289.386350362 C 358.028255304,294.646635569 364.727217486,301.616187315 372.461292604,309.860834477 C 380.195367722,318.105481638 388.966349308,327.620427833 398.757816505,337.878826221 C 408.549283702,348.13722461 419.36106684,359.133860501 430.98698248,370.325044159 C 442.61289812,381.516227817 455.050817254,392.8971118 467.922186447,403.983379793 C 480.79355564,415.069647785 494.094590206,425.857546034 507.319146788,435.98727748 C 520.54370337,446.117008926 533.686899294,455.58647049 546.180644106,464.20473738 C 558.674388918,472.82300427 570.513429193,480.589927149 581.144499281,487.500498651 C 591.77556937,494.411070154 601.193831538,500.467098083 608.937279293,505.836908557 C 616.680727048,511.206719032 622.745664563,515.89378065 626.825982365,520.199759637 C 630.906300166,524.505738624 633.0,528.435213883 633.0,532.3622047Z"
     id="path3091" />
  <g
     id="layer1"
     inkscape:groupmode="layer"
     inkscape:label="Layer 1">
    <path
       id="path3040"
       d="M 619.0,532.3622047 C 619.0,538.121791232 615.921352145,543.883918551 609.91884124,549.907382622 C 603.916330334,555.930846693 594.992563419,562.220285592 583.592157619,568.960751346 C 572.191751819,575.701217101 558.319549277,582.89608759 542.653604611,590.595838914 C 526.987659946,598.295590237 509.534361923,606.501723441 491.120181756,615.09308219 C 472.706001589,623.684440938 453.337972072,632.660331769 433.889384394,641.721767528 C 414.440796717,650.783203287 394.918344966,659.927330028 376.138246495,668.704142278 C 357.358148023,677.480954528 339.325840636,685.88582191 322.708668067,693.374379832 C 306.091495498,700.862937755 290.892921566,707.429457502 277.564093598,712.513676834 C 264.235265631,717.597896165 252.777259482,721.193858234 243.390747919,722.81393837 C 234.004236357,724.434018507 226.687854483,724.072961676 221.394097457,721.400752072 C 216.100340431,718.728542468 212.825713599,713.741473836 211.311445235,706.335083797 C 209.797176871,698.928693758 210.038264932,689.101457586 211.629119814,677.014171643 C 213.219974696,664.926885699 216.154921523,650.580525623 219.962499103,634.405399984 C 223.770076683,618.230274344 228.444853414,600.229811278 233.533674756,581.070575845 C 238.622496098,561.911340413 244.121029355,541.598801022 249.668412939,520.968494646 C 255.215796524,500.338188269 260.809460129,479.396904378 266.233120523,459.056404168 C 271.656780917,438.715903959 276.910000321,418.983375711 281.943828533,400.74102352 C 286.977656745,382.49867133 291.793809994,365.753091922 296.500929969,351.252601169 C 301.208049944,336.752110416 305.809678648,324.50180069 310.532139293,315.027631411 C 315.254599938,305.553462133 320.102635612,298.858320563 325.357394107,295.185423828 C 330.612152602,291.512527093 336.278756242,290.862171655 342.618336783,293.170756175 C 348.957917324,295.479340694 355.975087328,300.744556288 363.837103974,308.611246569 C 371.69912062,316.47793685 380.409271261,326.941544903 389.980979604,339.407364776 C 399.552687948,351.873184649 409.987303941,366.335085877 421.109179269,382.039744386 C 432.231054597,397.744402895 444.039291542,414.685004593 456.165644999,432.047614976 C 468.291998457,449.410225359 480.733367092,467.188318712 492.959119615,484.60833161 C 505.184872138,502.028344509 517.190099786,519.084948929 528.342400149,535.134659517 C 539.494700513,551.184370105 549.788049151,566.223768845 558.571053531,579.805600641 C 567.354057911,593.387432437 574.620462633,605.510601013 579.792891519,615.958168717 C 584.965320405,626.405736421 588.038231687,635.178982504 588.597640445,642.289787833 C 589.157049203,649.400593161 587.198988339,654.852305723 582.544928651,658.850462049 C 577.890868963,662.848618376 570.53906357,665.398020019 560.589778352,666.836022127 C 550.640493135,668.274024235 538.094531163,668.606057205 523.338176764,668.223696397 C 508.581822366,667.84133559 491.618389161,666.749736136 473.089084233,665.314434923 C 454.559779306,663.879133709 434.470020219,662.104168535 413.649896409,660.259350428 C 392.829772599,658.414532321 371.286088857,656.50213273 349.945336566,654.648418771 C 328.604584275,652.794704811 307.47403245,650.999826108 287.470070362,649.228167779 C 267.466108274,647.456509449 248.595474839,645.706091954 231.658448819,643.793308692 C 214.721422799,641.88052543 199.723293234,639.801608848 187.257210616,637.268549113 C 174.791127998,634.735489377 164.860221085,631.743366678 157.786829563,627.965651507 C 150.713438042,624.187936335 146.49813285,619.619387145 145.16448459,613.972022002 C 143.830836331,608.324656859 145.376830109,601.593807328 149.538253819,593.605214977 C 153.699677529,585.616622625 160.472273331,576.367010318 169.35158976,565.856145536 C 178.230906188,555.345280754 189.211102269,543.571889354 201.62399033,530.744356061 C 214.036878392,517.916822768 227.875910043,504.036182973 242.402991929,489.521357218 C 256.930073815,475.006531463 272.138909094,459.860813872 287.318759133,444.680963833 C 302.498609172,429.501113794 317.644326763,414.292278515 332.159152518,399.765196629 C 346.673978273,385.238114743 360.554618068,371.399083092 373.382151361,358.98619503 C 386.209684654,346.573306969 397.983076054,335.593110888 408.493940836,326.71379446 C 419.004805618,317.834478031 428.254417925,311.061882229 436.243010277,306.900458519 C 444.231602628,302.739034809 450.962452159,301.193041031 456.609817302,302.52668929 C 462.257182445,303.86033755 466.825731635,308.075642742 470.603446807,315.149034263 C 474.381161978,322.222425785 477.373284677,332.153332698 479.906344413,344.619415316 C 482.439404148,357.085497934 484.51832073,372.083627499 486.431103992,389.020653519 C 488.343887254,405.957679539 490.094304749,424.828312974 491.865963079,444.832275062 C 493.637621408,464.83623715 495.432500111,485.966788975 497.286214071,507.307541266 C 499.13992803,528.648293557 501.052327621,550.191977299 502.897145728,571.012101109 C 504.741963835,591.832224919 506.516929009,611.921984006 507.952230223,630.451288933 C 509.387531436,648.980593861 510.47913089,665.944027066 510.861491697,680.700381464 C 511.243852505,695.456735863 510.911819535,708.002697835 509.473817427,717.951983052 C 508.035815319,727.90126827 505.486413676,735.253073663 501.488257349,739.907133351 C 497.490101023,744.561193039 492.038388461,746.519253903 484.927583133,745.959845145 C 477.816777804,745.400436387 469.043531721,742.327525105 458.595964017,737.155096219 C 448.148396313,731.982667333 436.025227737,724.716262611 422.443395941,715.933258231 C 408.861564145,707.150253851 393.822165405,696.856905213 377.772454817,685.704604849 C 361.722744229,674.552304486 344.666139809,662.547076838 327.24612691,650.321324315 C 309.826114012,638.095571792 292.048020659,625.654203157 274.685410276,613.527849699 C 257.322799893,601.401496242 240.382198195,589.593259297 224.677539686,578.471383969 C 208.972881177,567.349508641 194.510979949,556.914892648 182.045160076,547.343184304 C 169.579340203,537.771475961 159.11573215,529.06132532 151.249041869,521.199308674 C 143.382351588,513.337292028 138.117135994,506.320122024 135.808551475,499.980541483 C 133.499966955,493.640960942 134.150322393,487.974357302 137.823219128,482.719598807 C 141.496115863,477.464840312 148.191257433,472.616804638 157.665426711,467.894343993 C 167.13959599,463.171883348 179.389905716,458.570254644 193.890396469,453.863134669 C 208.390887222,449.156014694 225.13646663,444.339861445 243.37881882,439.306033233 C 261.621171011,434.272205021 281.353699259,429.018985617 301.694199468,423.595325223 C 322.034699678,418.171664829 342.975983569,412.578001224 363.606289946,407.030617639 C 384.236596322,401.483234055 404.549135713,395.984700798 423.708371145,390.895879456 C 442.867606578,385.807058114 460.868069644,381.132281383 477.043195284,377.324703803 C 493.218320923,373.517126223 507.564680999,370.582179396 519.651966943,368.991324514 C 531.739252886,367.400469632 541.566489058,367.159381571 548.972879097,368.673649935 C 556.379269136,370.187918299 561.366337768,373.462545131 564.038547372,378.756302157 C 566.710756976,384.050059183 567.071813807,391.366441057 565.45173367,400.752952619 C 563.831653534,410.139464182 560.235691465,421.597470331 555.151472134,434.926298298 C 550.067252802,448.255126266 543.500733055,463.453700198 536.012175132,480.070872767 C 528.52361721,496.688045336 520.118749828,514.720352723 511.341937578,533.500451195 C 502.565125328,552.280549666 493.420998587,571.803001417 484.359562828,591.251589094 C 475.298127069,610.700176772 466.322236238,630.068206289 457.73087749,648.482386456 C 449.139518741,666.896566623 440.933385537,684.349864646 433.233634214,700.015809311 C 425.53388289,715.681753977 418.339012401,729.553956519 411.598546646,740.954362319 C 404.858080892,752.354768119 398.568641993,761.278535034 392.545177922,767.28104594 C 386.521713851,773.283556845 380.759586532,776.3622047 375.0,776.3622047 C 369.240413468,776.3622047 363.478286149,773.283556845 357.454822078,767.28104594 C 351.431358007,761.278535034 345.141919108,752.354768119 338.401453354,740.954362319 C 331.660987599,729.553956519 324.46611711,715.681753977 316.766365786,700.015809311 C 309.066614463,684.349864646 300.860481259,666.896566623 292.26912251,648.482386456 C 283.677763762,630.068206289 274.701872931,610.700176772 265.640437172,591.251589094 C 256.579001413,571.803001417 247.434874672,552.280549666 238.658062422,533.500451195 C 229.881250172,514.720352723 221.47638279,496.688045336 213.987824868,480.070872767 C 206.499266945,463.453700198 199.932747198,448.255126266 194.848527866,434.926298298 C 189.764308535,421.597470331 186.168346466,410.139464182 184.54826633,400.752952619 C 182.928186193,391.366441057 183.289243024,384.050059183 185.961452628,378.756302157 C 188.633662232,373.462545131 193.620730864,370.187918299 201.027120903,368.673649935 C 208.433510942,367.159381571 218.260747114,367.400469632 230.348033057,368.991324514 C 242.435319001,370.582179396 256.781679077,373.517126223 272.956804716,377.324703803 C 289.131930356,381.132281383 307.132393422,385.807058114 326.291628855,390.895879456 C 345.450864287,395.984700798 365.763403678,401.483234055 386.393710054,407.030617639 C 407.024016431,412.578001224 427.965300322,418.171664829 448.305800532,423.595325223 C 468.646300741,429.018985617 488.378828989,434.272205021 506.62118118,439.306033233 C 524.86353337,444.339861445 541.609112778,449.156014694 556.109603531,453.863134669 C 570.610094284,458.570254644 582.86040401,463.171883348 592.334573289,467.894343993 C 601.808742567,472.616804638 608.503884137,477.464840312 612.176780872,482.719598807 C 615.849677607,487.974357302 616.500033045,493.640960942 614.191448525,499.980541483 C 611.882864006,506.320122024 606.617648412,513.337292028 598.750958131,521.199308674 C 590.88426785,529.06132532 580.420659797,537.771475961 567.954839924,547.343184304 C 555.489020051,556.914892648 541.027118823,567.349508641 525.322460314,578.471383969 C 509.617801805,589.593259297 492.677200107,601.401496242 475.314589724,613.527849699 C 457.951979341,625.654203157 440.173885988,638.095571792 422.75387309,650.321324315 C 405.333860191,662.547076838 388.277255771,674.552304486 372.227545183,685.704604849 C 356.177834595,696.856905213 341.138435855,707.150253851 327.556604059,715.933258231 C 313.974772263,724.716262611 301.851603687,731.982667333 291.404035983,737.155096219 C 280.956468279,742.327525105 272.183222196,745.400436387 265.072416867,745.959845145 C 257.961611539,746.519253903 252.509898977,744.561193039 248.511742651,739.907133351 C 244.513586324,735.253073663 241.964184681,727.90126827 240.526182573,717.951983052 C 239.088180465,708.002697835 238.756147495,695.456735863 239.138508303,680.700381464 C 239.52086911,665.944027066 240.612468564,648.980593861 242.047769777,630.451288933 C 243.483070991,611.921984006 245.258036165,591.832224919 247.102854272,571.012101109 C 248.947672379,550.191977299 250.86007197,528.648293557 252.713785929,507.307541266 C 254.567499889,485.966788975 256.362378592,464.83623715 258.134036921,444.832275062 C 259.905695251,424.828312974 261.656112746,405.957679539 263.568896008,389.020653519 C 265.48167927,372.083627499 267.560595852,357.085497934 270.093655587,344.619415316 C 272.626715323,332.153332698 275.618838022,322.222425785 279.396553193,315.149034263 C 283.174268365,308.075642742 287.742817555,303.86033755 293.390182698,302.52668929 C 299.037547841,301.193041031 305.768397372,302.739034809 313.756989723,306.900458519 C 321.745582075,311.061882229 330.995194382,317.834478031 341.506059164,326.71379446 C 352.016923946,335.593110888 363.790315346,346.573306969 376.617848639,358.98619503 C 389.445381932,371.399083092 403.326021727,385.238114743 417.840847482,399.765196629 C 432.355673237,414.292278515 447.501390828,429.501113794 462.681240867,444.680963833 C 477.861090906,459.860813872 493.069926185,475.006531463 507.597008071,489.521357218 C 522.124089957,504.036182973 535.963121608,517.916822768 548.37600967,530.744356061 C 560.788897731,543.571889354 571.769093812,555.345280754 580.64841024,565.856145536 C 589.527726669,576.367010318 596.300322471,585.616622625 600.461746181,593.605214977 C 604.623169891,601.593807328 606.169163669,608.324656859 604.83551541,613.972022002 C 603.50186715,619.619387145 599.286561958,624.187936335 592.213170437,627.965651507 C 585.139778915,631.743366678 575.208872002,634.735489377 562.742789384,637.268549113 C 550.276706766,639.801608848 535.278577201,641.88052543 518.341551181,643.793308692 C 501.404525161,645.706091954 482.533891726,647.456509449 462.529929638,649.228167779 C 442.52596755,650.999826108 421.395415725,652.794704811 400.054663434,654.648418771 C 378.713911143,656.50213273 357.170227401,658.414532321 336.350103591,660.259350428 C 315.529979781,662.104168535 295.440220694,663.879133709 276.910915767,665.314434923 C 258.381610839,666.749736136 241.418177634,667.84133559 226.661823236,668.223696397 C 211.905468837,668.606057205 199.359506865,668.274024235 189.410221648,666.836022127 C 179.46093643,665.398020019 172.109131037,662.848618376 167.455071349,658.850462049 C 162.801011661,654.852305723 160.842950797,649.400593161 161.402359555,642.289787833 C 161.961768313,635.178982504 165.034679595,626.405736421 170.207108481,615.958168717 C 175.379537367,605.510601013 182.645942089,593.387432437 191.428946469,579.805600641 C 200.211950849,566.223768845 210.505299487,551.184370105 221.657599851,535.134659517 C 232.809900214,519.084948929 244.815127862,502.028344509 257.040880385,484.60833161 C 269.266632908,467.188318712 281.708001543,449.410225359 293.834355001,432.047614976 C 305.960708458,414.685004593 317.768945403,397.744402895 328.890820731,382.039744386 C 340.012696059,366.335085877 350.447312052,351.873184649 360.019020396,339.407364776 C 369.590728739,326.941544903 378.30087938,316.47793685 386.162896026,308.611246569 C 394.024912672,300.744556288 401.042082676,295.479340694 407.381663217,293.170756175 C 413.721243758,290.862171655 419.387847398,291.512527093 424.642605893,295.185423828 C 429.897364388,298.858320563 434.745400062,305.553462133 439.467860707,315.027631411 C 444.190321352,324.50180069 448.791950056,336.752110416 453.499070031,351.252601169 C 458.206190006,365.753091922 463.022343255,382.49867133 468.056171467,400.74102352 C 473.089999679,418.983375711 478.343219083,438.715903959 483.766879477,459.056404168 C 489.190539871,479.396904378 494.784203476,500.338188269 500.331587061,520.968494646 C 505.878970645,541.598801022 511.377503902,561.911340413 516.466325244,581.070575845 C 521.555146586,600.229811278 526.229923317,618.230274344 530.037500897,634.405399984 C 533.845078477,650.580525623 536.780025304,664.926885699 538.370880186,677.014171643 C 539.961735068,689.101457586 540.202823129,698.928693758 538.688554765,706.335083797 C 537.174286401,713.741473836 533.899659569,718.728542468 528.605902543,721.400752072 C 523.312145517,724.072961676 515.995763643,724.434018507 506.609252081,722.81393837 C 497.222740518,721.193858234 485.764734369,717.597896165 472.435906402,712.513676834 C 459.107078434,707.429457502 443.908504502,700.862937755 427.291331933,693.374379832 C 410.674159364,685.88582191 392.641851977,677.480954528 373.861753505,668.704142278 C 355.081655034,659.927330028 335.559203283,650.783203287 316.110615606,641.721767528 C 296.662027928,632.660331769 277.293998411,623.684440938 258.879818244,615.09308219 C 240.465638077,606.501723441 223.012340054,598.295590237 207.346395389,590.595838914 C 191.680450723,582.89608759 177.808248181,575.701217101 166.407842381,568.960751346 C 155.007436581,562.220285592 146.083669666,555.930846693 140.08115876,549.907382622 C 134.078647855,543.883918551 131.0,538.121791232 131.0,532.3622047 C 131.0,526.602618168 134.078647855,520.840490849 140.08115876,514.817026778 C 146.083669666,508.793562707 155.007436581,502.504123808 166.407842381,495.763658054 C 177.808248181,489.023192299 191.680450723,481.82832181 207.346395389,474.128570486 C 223.012340054,466.428819163 240.465638077,458.222685959 258.879818244,449.63132721 C 277.293998411,441.039968462 296.662027928,432.064077631 316.110615606,423.002641872 C 335.559203283,413.941206113 355.081655034,404.797079372 373.861753505,396.020267122 C 392.641851977,387.243454872 410.674159364,378.83858749 427.291331933,371.350029568 C 443.908504502,363.861471645 459.107078434,357.294951898 472.435906402,352.210732566 C 485.764734369,347.126513235 497.222740518,343.530551166 506.609252081,341.91047103 C 515.995763643,340.290390893 523.312145517,340.651447724 528.605902543,343.323657328 C 533.899659569,345.995866932 537.174286401,350.982935564 538.688554765,358.389325603 C 540.202823129,365.795715642 539.961735068,375.622951814 538.370880186,387.710237757 C 536.780025304,399.797523701 533.845078477,414.143883777 530.037500897,430.319009416 C 526.229923317,446.494135056 521.555146586,464.494598122 516.466325244,483.653833555 C 511.377503902,502.813068987 505.878970645,523.125608378 500.331587061,543.755914754 C 494.784203476,564.386221131 489.190539871,585.327505022 483.766879477,605.668005232 C 478.343219083,626.008505441 473.089999679,645.741033689 468.056171467,663.98338588 C 463.022343255,682.22573807 458.206190006,698.971317478 453.499070031,713.471808231 C 448.791950056,727.972298984 444.190321352,740.22260871 439.467860707,749.696777989 C 434.745400062,759.170947267 429.897364388,765.866088837 424.642605893,769.538985572 C 419.387847398,773.211882307 413.721243758,773.862237745 407.381663217,771.553653225 C 401.042082676,769.245068706 394.024912672,763.979853112 386.162896026,756.113162831 C 378.30087938,748.24647255 369.590728739,737.782864497 360.019020396,725.317044624 C 350.447312052,712.851224751 340.012696059,698.389323523 328.890820731,682.684665014 C 317.768945403,666.980006505 305.960708458,650.039404807 293.834355001,632.676794424 C 281.708001543,615.314184041 269.266632908,597.536090688 257.040880385,580.11607779 C 244.815127862,562.696064891 232.809900214,545.639460471 221.657599851,529.589749883 C 210.505299487,513.540039295 200.211950849,498.500640555 191.428946469,484.918808759 C 182.645942089,471.336976963 175.379537367,459.213808387 170.207108481,448.766240683 C 165.034679595,438.318672979 161.961768313,429.545426896 161.402359555,422.434621567 C 160.842950797,415.323816239 162.801011661,409.872103677 167.455071349,405.873947351 C 172.109131037,401.875791024 179.46093643,399.326389381 189.410221648,397.888387273 C 199.359506865,396.450385165 211.905468837,396.118352195 226.661823236,396.500713003 C 241.418177634,396.88307381 258.381610839,397.974673264 276.910915767,399.409974477 C 295.440220694,400.845275691 315.529979781,402.620240865 336.350103591,404.465058972 C 357.170227401,406.309877079 378.713911143,408.22227667 400.054663434,410.075990629 C 421.395415725,411.929704589 442.52596755,413.724583292 462.529929638,415.496241621 C 482.533891726,417.267899951 501.404525161,419.018317446 518.341551181,420.931100708 C 535.278577201,422.84388397 550.276706766,424.922800552 562.742789384,427.455860287 C 575.208872002,429.988920023 585.139778915,432.981042722 592.213170437,436.758757893 C 599.286561958,440.536473065 603.50186715,445.105022255 604.83551541,450.752387398 C 606.169163669,456.399752541 604.623169891,463.130602072 600.461746181,471.119194423 C 596.300322471,479.107786775 589.527726669,488.357399082 580.64841024,498.868263864 C 571.769093812,509.379128646 560.788897731,521.152520046 548.37600967,533.980053339 C 535.963121608,546.807586632 522.124089957,560.688226427 507.597008071,575.203052182 C 493.069926185,589.717877937 477.861090906,604.863595528 462.681240867,620.043445567 C 447.501390828,635.223295606 432.355673237,650.432130885 417.840847482,664.959212771 C 403.326021727,679.486294657 389.445381932,693.325326308 376.617848639,705.73821437 C 363.790315346,718.151102431 352.016923946,729.131298512 341.506059164,738.01061494 C 330.995194382,746.889931369 321.745582075,753.662527171 313.756989723,757.823950881 C 305.768397372,761.985374591 299.037547841,763.531368369 293.390182698,762.19772011 C 287.742817555,760.86407185 283.174268365,756.648766658 279.396553193,749.575375137 C 275.618838022,742.501983615 272.626715323,732.571076702 270.093655587,720.104994084 C 267.560595852,707.638911466 265.48167927,692.640781901 263.568896008,675.703755881 C 261.656112746,658.766729861 259.905695251,639.896096426 258.134036921,619.892134338 C 256.362378592,599.88817225 254.567499889,578.757620425 252.713785929,557.416868134 C 250.86007197,536.076115843 248.947672379,514.532432101 247.102854272,493.712308291 C 245.258036165,472.892184481 243.483070991,452.802425394 242.047769777,434.273120467 C 240.612468564,415.743815539 239.52086911,398.780382334 239.138508303,384.024027936 C 238.756147495,369.267673537 239.088180465,356.721711565 240.526182573,346.772426348 C 241.964184681,336.82314113 244.513586324,329.471335737 248.511742651,324.817276049 C 252.509898977,320.163216361 257.961611539,318.205155497 265.072416867,318.764564255 C 272.183222196,319.323973013 280.956468279,322.396884295 291.404035983,327.569313181 C 301.851603687,332.741742067 313.974772263,340.008146789 327.556604059,348.791151169 C 341.138435855,357.574155549 356.177834595,367.867504187 372.227545183,379.019804551 C 388.277255771,390.172104914 405.333860191,402.177332562 422.75387309,414.403085085 C 440.173885988,426.628837608 457.951979341,439.070206243 475.314589724,451.196559701 C 492.677200107,463.322913158 509.617801805,475.131150103 525.322460314,486.253025431 C 541.027118823,497.374900759 555.489020051,507.809516752 567.954839924,517.381225096 C 580.420659797,526.952933439 590.88426785,535.66308408 598.750958131,543.525100726 C 606.617648412,551.387117372 611.882864006,558.404287376 614.191448525,564.743867917 C 616.500033045,571.083448458 615.849677607,576.750052098 612.176780872,582.004810593 C 608.503884137,587.259569088 601.808742567,592.107604762 592.334573289,596.830065407 C 582.86040401,601.552526052 570.610094284,606.154154756 556.109603531,610.861274731 C 541.609112778,615.568394706 524.86353337,620.384547955 506.62118118,625.418376167 C 488.378828989,630.452204379 468.646300741,635.705423783 448.305800532,641.129084177 C 427.965300322,646.552744571 407.024016431,652.146408176 386.393710054,657.693791761 C 365.763403678,663.241175345 345.450864287,668.739708602 326.291628855,673.828529944 C 307.132393422,678.917351286 289.131930356,683.592128017 272.956804716,687.399705597 C 256.781679077,691.207283177 242.435319001,694.142230004 230.348033057,695.733084886 C 218.260747114,697.323939768 208.433510942,697.565027829 201.027120903,696.050759465 C 193.620730864,694.536491101 188.633662232,691.261864269 185.961452628,685.968107243 C 183.289243024,680.674350217 182.928186193,673.357968343 184.54826633,663.971456781 C 186.168346466,654.584945218 189.764308535,643.126939069 194.848527866,629.798111102 C 199.932747198,616.469283134 206.499266945,601.270709202 213.987824868,584.653536633 C 221.47638279,568.036364064 229.881250172,550.004056677 238.658062422,531.223958205 C 247.434874672,512.443859734 256.579001413,492.921407983 265.640437172,473.472820306 C 274.701872931,454.024232628 283.677763762,434.656203111 292.26912251,416.242022944 C 300.860481259,397.827842777 309.066614463,380.374544754 316.766365786,364.708600089 C 324.46611711,349.042655423 331.660987599,335.170452881 338.401453354,323.770047081 C 345.141919108,312.369641281 351.431358007,303.445874366 357.454822078,297.44336346 C 363.478286149,291.440852555 369.240413468,288.3622047 375.0,288.3622047 C 380.759586532,288.3622047 386.521713851,291.440852555 392.545177922,297.44336346 C 398.568641993,303.445874366 404.858080892,312.369641281 411.598546646,323.770047081 C 418.339012401,335.170452881 425.53388289,349.042655423 433.233634214,364.708600089 C 440.933385537,380.374544754 449.139518741,397.827842777 457.73087749,416.242022944 C 466.322236238,434.656203111 475.298127069,454.024232628 484.359562828,473.472820306 C 493.420998587,492.921407983 502.565125328,512.443859734 511.341937578,531.223958205 C 520.118749828,550.004056677 528.52361721,568.036364064 536.012175132,584.653536633 C 543.500733055,601.270709202 550.067252802,616.469283134 555.151472134,629.798111102 C 560.235691465,643.126939069 563.831653534,654.584945218 565.45173367,663.971456781 C 567.071813807,673.357968343 566.710756976,680.674350217 564.038547372,685.968107243 C 561.366337768,691.261864269 556.379269136,694.536491101 548.972879097,696.050759465 C 541.566489058,697.565027829 531.739252886,697.323939768 519.651966943,695.733084886 C 507.564680999,694.142230004 493.218320923,691.207283177 477.043195284,687.399705597 C 460.868069644,683.592128017 442.867606578,678.917351286 423.708371145,673.828529944 C 404.549135713,668.739708602 384.236596322,663.241175345 363.606289946,657.693791761 C 342.975983569,652.146408176 322.034699678,646.552744571 301.694199468,641.129084177 C 281.353699259,635.705423783 261.621171011,630.452204379 243.37881882,625.418376167 C 225.13646663,620.384547955 208.390887222,615.568394706 193.890396469,610.861274731 C 179.389905716,606.154154756 167.13959599,601.552526052 157.665426711,596.830065407 C 148.191257433,592.107604762 141.496115863,587.259569088 137.823219128,582.004810593 C 134.150322393,576.750052098 133.499966955,571.083448458 135.808551475,564.743867917 C 138.117135994,558.404287376 143.382351588,551.387117372 151.249041869,543.525100726 C 159.11573215,535.66308408 169.579340203,526.952933439 182.045160076,517.381225096 C 194.510979949,507.809516752 208.972881177,497.374900759 224.677539686,486.253025431 C 240.382198195,475.131150103 257.322799893,463.322913158 274.685410276,451.196559701 C 292.048020659,439.070206243 309.826114012,426.628837608 327.24612691,414.403085085 C 344.666139809,402.177332562 361.722744229,390.172104914 377.772454817,379.019804551 C 393.822165405,367.867504187 408.861564145,357.574155549 422.443395941,348.791151169 C 436.025227737,340.008146789 448.148396313,332.741742067 458.595964017,327.569313181 C 469.043531721,322.396884295 477.816777804,319.323973013 484.927583133,318.764564255 C 492.038388461,318.205155497 497.490101023,320.163216361 501.488257349,324.817276049 C 505.486413676,329.471335737 508.035815319,336.82314113 509.473817427,346.772426348 C 510.911819535,356.721711565 511.243852505,369.267673537 510.861491697,384.024027936 C 510.47913089,398.780382334 509.387531436,415.743815539 507.952230223,434.273120467 C 506.516929009,452.802425394 504.741963835,472.892184481 502.897145728,493.712308291 C 501.052327621,514.532432101 499.13992803,536.076115843 497.286214071,557.416868134 C 495.432500111,578.757620425 493.637621408,599.88817225 491.865963079,619.892134338 C 490.094304749,639.896096426 488.343887254,658.766729861 486.431103992,675.703755881 C 484.51832073,692.640781901 482.439404148,707.638911466 479.906344413,720.104994084 C 477.373284677,732.571076702 474.381161978,742.501983615 470.603446807,749.575375137 C 466.825731635,756.648766658 462.257182445,760.86407185 456.609817302,762.19772011 C 450.962452159,763.531368369 444.231602628,761.985374591 436.243010277,757.823950881 C 428.254417925,753.662527171 419.004805618,746.889931369 408.493940836,738.01061494 C 397.983076054,729.131298512 386.209684654,718.151102431 373.382151361,705.73821437 C 360.554618068,693.325326308 346.673978273,679.486294657 332.159152518,664.959212771 C 317.644326763,650.432130885 302.498609172,635.223295606 287.318759133,620.043445567 C 272.138909094,604.863595528 256.930073815,589.717877937 242.402991929,575.203052182 C 227.875910043,560.688226427 214.036878392,546.807586632 201.62399033,533.980053339 C 189.211102269,521.152520046 178.230906188,509.379128646 169.35158976,498.868263864 C 160.472273331,488.357399082 153.699677529,479.107786775 149.538253819,471.119194423 C 145.376830109,463.130602072 143.830836331,456.399752541 145.16448459,450.752387398 C 146.49813285,445.105022255 150.713438042,440.536473065 157.786829563,436.758757893 C 164.860221085,432.981042722 174.791127998,429.988920023 187.257210616,427.455860287 C 199.723293234,424.922800552 214.721422799,422.84388397 231.658448819,420.931100708 C 248.595474839,419.018317446 267.466108274,417.267899951 287.470070362,415.496241621 C 307.47403245,413.724583292 328.604584275,411.929704589 349.945336566,410.075990629 C 371.286088857,408.22227667 392.829772599,406.309877079 413.649896409,404.465058972 C 434.470020219,402.620240865 454.559779306,400.845275691 473.089084233,399.409974477 C 491.618389161,397.974673264 508.581822366,396.88307381 523.338176764,396.500713003 C 538.094531163,396.118352195 550.640493135,396.450385165 560.589778352,397.888387273 C 570.53906357,399.326389381 577.890868963,401.875791024 582.544928651,405.873947351 C 587.198988339,409.872103677 589.157049203,415.323816239 588.597640445,422.434621567 C 588.038231687,429.545426896 584.965320405,438.318672979 579.792891519,448.766240683 C 574.620462633,459.213808387 567.354057911,471.336976963 558.571053531,484.918808759 C 549.788049151,498.500640555 539.494700513,513.540039295 528.342400149,529.589749883 C 517.190099786,545.639460471 505.184872138,562.696064891 492.959119615,580.11607779 C 480.733367092,597.536090688 468.291998457,615.314184041 456.165644999,632.676794424 C 444.039291542,650.039404807 432.231054597,666.980006505 421.109179269,682.684665014 C 409.987303941,698.389323523 399.552687948,712.851224751 389.980979604,725.317044624 C 380.409271261,737.782864497 371.69912062,748.24647255 363.837103974,756.113162831 C 355.975087328,763.979853112 348.957917324,769.245068706 342.618336783,771.553653225 C 336.278756242,773.862237745 330.612152602,773.211882307 325.357394107,769.538985572 C 320.102635612,765.866088837 315.254599938,759.170947267 310.532139293,749.696777989 C 305.809678648,740.22260871 301.208049944,727.972298984 296.500929969,713.471808231 C 291.793809994,698.971317478 286.977656745,682.22573807 281.943828533,663.98338588 C 276.910000321,645.741033689 271.656780917,626.008505441 266.233120523,605.668005232 C 260.809460129,585.327505022 255.215796524,564.386221131 249.668412939,543.755914754 C 244.121029355,523.125608378 238.622496098,502.813068987 233.533674756,483.653833555 C 228.444853414,464.494598122 223.770076683,446.494135056 219.962499103,430.319009416 C 216.154921523,414.143883777 213.219974696,399.797523701 211.629119814,387.710237757 C 210.038264932,375.622951814 209.797176871,365.795715642 211.311445235,358.389325603 C 212.825713599,350.982935564 216.100340431,345.995866932 221.394097457,343.323657328 C 226.687854483,340.651447724 234.004236357,340.290390893 243.39074792,341.91047103 C 252.777259482,343.530551166 264.235265631,347.126513235 277.564093598,352.210732566 C 290.892921566,357.294951898 306.091495498,363.861471645 322.708668067,371.350029568 C 339.325840636,378.83858749 357.358148023,387.243454872 376.138246495,396.020267122 C 394.918344966,404.797079372 414.440796717,413.941206113 433.889384394,423.002641872 C 453.337972072,432.064077631 472.706001589,441.039968462 491.120181756,449.63132721 C 509.534361923,458.222685959 526.987659946,466.428819163 542.653604611,474.128570486 C 558.319549277,481.82832181 572.191751819,489.023192299 583.592157619,495.763658054 C 594.992563419,502.504123808 603.916330334,508.793562707 609.91884124,514.817026778 C 615.921352145,520.840490849 619.0,526.602618168 619.0,532.3622047Z"
       style="stroke:#000000;fill:none" />
  </g>
  <path
     id="path3180"
     d="M 441.0,532.3622047 C 441.0,533.147602863 441.390190968,533.934315837 442.12223919,534.939767175 C 442.854287412,535.945218514 443.927174606,537.171834426 445.203614125,538.798731336 C 446.480053644,540.425628245 447.958164832,542.454653153 449.433670497,544.994237121 C 450.909176162,547.533821088 452.379621337,550.584944471 453.606585218,554.163928103 C 454.833549099,557.742911736 455.814378738,561.849714128 456.315207986,566.401427733 C 456.816037235,570.953141337 456.834422424,575.948703591 456.179665487,581.214337103 C 455.52490855,586.479970615 454.195151217,592.013748483 452.07545748,597.573665615 C 449.955763742,603.133582748 447.045148377,608.717136828 443.325983471,614.047644793 C 439.606818565,619.378152758 435.079147234,624.452914089 429.829792165,628.999978776 C 424.580437096,633.547043464 418.610468939,637.563920932 412.102729512,640.822717078 C 405.594990084,644.081513224 398.551420687,646.58032441 391.228071271,648.168599311 C 383.904721855,649.756874212 376.30411518,650.433584618 368.72169797,650.147731466 C 361.139280761,649.861878313 353.577779642,648.613464915 346.332277558,646.458808612 C 339.086775473,644.304152309 332.159794282,641.244287877 325.806299369,637.434985846 C 319.452804457,633.625683815 313.674735337,629.068854206 308.653148683,623.997414035 C 303.63156203,618.925973863 299.367525851,613.342419783 295.945410365,607.523434857 C 292.52329488,601.704449931 289.943139759,595.652740341 288.184242979,589.649344172 C 286.425346198,583.645948003 285.486718352,577.693372715 285.249784944,572.037519267 C 285.012851536,566.381665819 285.475749453,561.024465639 286.44364554,556.143060258 C 287.411541628,551.261654877 288.881986803,546.857110681 290.616560261,543.015104966 C 292.35113372,539.17309925 294.34717663,535.893676554 296.361378805,533.162639801 C 298.375580981,530.431603048 300.40548121,528.247974101 302.241669276,526.504760106 C 304.077857341,524.761546111 305.718446097,523.456901415 307.020867845,522.412435459 C 308.323289593,521.367969502 309.286519439,520.581256529 309.856892965,519.834872983 C 310.427266491,519.088489438 310.604777085,518.379805248 310.432477409,517.490670995 C 310.260177734,516.601536742 309.739079581,515.529524869 309.001336572,514.094080745 C 308.263593564,512.658636621 307.311080111,510.857911026 306.343184023,508.581349142 C 305.375287936,506.304787258 304.394458297,503.551405678 303.634561255,500.302113822 C 302.874664213,497.052821966 302.338347302,493.3076575 302.255341582,489.146163832 C 302.172335863,484.984670163 302.545080161,480.40790533 303.560634055,475.585750854 C 304.576187949,470.763596378 306.236405526,465.69797402 308.653148683,460.626533848 C 311.069891841,455.555093677 314.244142359,450.480332346 318.19107568,445.674199865 C 322.138009001,440.868067384 326.85757937,436.333258194 332.261178954,432.336699392 C 337.664778538,428.340140589 343.7513349,424.884316368 350.33692166,422.191901624 C 356.922508419,419.499486879 364.005183372,417.572378685 371.328532788,416.555810089 C 378.651882204,415.539241494 386.213383323,415.434234079 393.717953201,416.286468633 C 401.222523078,417.138703188 408.667435992,418.948169832 415.758693561,421.65333202 C 422.84995113,424.358494207 429.585033285,427.958310781 435.710759782,432.291988296 C 441.836486279,436.625665811 447.350920246,441.691288169 452.07545748,447.251205302 C 456.799994713,452.811122434 460.733570648,458.862832024 463.794889176,465.125295986 C 466.856207705,471.387759948 469.045233339,477.858266959 470.38630659,484.251883063 C 471.727379842,490.645499168 472.22149496,496.959712384 471.991361529,502.945257608 C 471.761228098,508.930802832 470.808714645,514.585744816 469.33320898,519.730172279 C 467.857703315,524.874599743 465.861660405,529.507443252 463.588390436,533.540901754 C 461.315120467,537.574360255 458.767288516,541.00838699 456.193337794,543.855740828 C 453.619387072,546.703094667 451.021785281,548.964752398 448.615223689,550.746981011 C 446.208662098,552.529209624 443.995034464,553.83385432 442.12223919,554.839305658 C 440.249443916,555.844756997 438.718512508,556.553441187 437.588390436,557.183507646 C 436.458268364,557.813574106 435.728968728,558.367654257 435.362571893,559.065335724 C 434.996175059,559.763017192 434.991675476,560.606729751 435.221808907,561.779151792 C 435.451942338,562.951573833 435.914840255,564.454557625 436.415669503,566.401427733 C 436.916498752,568.348297841 437.452815663,570.740041493 437.794889176,573.599113414 C 438.136962689,576.458185334 438.282150113,579.784552379 438.004358876,583.502567012 C 437.726567639,587.220581644 437.023363096,591.329190967 435.710759782,595.662868482 C 434.398156468,599.996545997 432.474303738,604.553375606 429.829792165,609.100440293 C 427.185280592,613.647504981 423.819131037,618.182314171 419.717953201,622.437940767 C 415.616775365,626.693567363 410.780616791,630.667323306 405.299169875,634.097500707 C 399.817722959,637.527678108 393.692061041,640.411799338 387.106474281,642.532507776 C 380.520887522,644.653216215 373.477318125,646.008621419 366.231816041,646.458808612 C 358.986313956,646.908995806 351.541401043,646.452949974 344.19107568,645.050209535 C 336.840750318,643.647469096 329.587736441,641.29805031 322.724247287,638.068512638 C 315.860758133,634.838974967 309.389311132,630.730365644 303.560634055,625.908211168 C 297.731956978,621.086056692 292.547983255,615.552278824 288.184242979,609.548882655 C 283.820502702,603.545486486 280.278056255,597.074979476 277.634561255,590.422295578 C 274.991066256,583.76961168 273.246553349,576.937466742 272.372546936,570.214158862 C 271.498540524,563.490850981 271.494040942,556.878895962 272.231783951,550.630328655 C 272.969526959,544.381761348 274.447638147,538.49852005 276.461840323,533.162639801 C 278.476042498,527.826759552 281.023874449,523.039312004 283.856892965,518.889536417 C 286.68991148,514.73976083 289.805444993,511.227705311 292.949769241,508.341336855 C 296.09409349,505.454968398 299.264734158,503.193310668 302.241669276,501.450096672 C 305.218604393,499.706882677 307.999933589,498.480266765 310.432477409,497.591132512 C 312.86502123,496.701998259 314.947741679,496.147918108 316.616560261,495.709304434 C 318.285378844,495.27069076 319.540276215,494.944909923 320.414282627,494.510250538 C 321.288289039,494.075591154 321.782404158,493.529620398 322.019337566,492.686890133 C 322.256270974,491.844159868 322.237885785,490.702814004 322.154880065,489.146163832 C 322.071874346,487.589513659 321.926686921,485.616567428 321.945410365,483.200974543 C 321.964133809,480.785381658 322.14940663,477.927170124 322.724247287,474.697632452 C 323.299087945,471.468094781 324.26592764,467.868278207 325.806299369,464.058976176 C 327.346671099,460.249674145 329.462422866,456.232796677 332.261178954,452.236237875 C 335.059935042,448.239679072 338.542672802,444.265923129 342.72169797,440.576677934 C 346.900723138,436.88743274 351.775987268,433.485379788 357.257434184,430.626908693 C 362.7388811,427.768437597 368.825437462,425.456019359 375.33317689,423.901692322 C 381.840916318,422.347365285 388.767897509,421.553013329 395.859155078,421.65333202 C 402.950412647,421.753650711 410.203426524,422.749648683 417.325983471,424.676764607 C 424.448540418,426.603880531 431.437919142,429.462092065 438.004358876,433.180106698 C 444.57079861,436.89812133 450.711785367,441.474886163 456.179665487,446.740519676 C 461.647545607,452.006153188 466.440389842,457.958728476 470.38630659,464.352344581 C 474.332223338,470.745960685 477.430157058,477.578105623 479.606585218,484.560481297 C 481.783013379,491.542856971 483.037910749,498.672743712 483.404307584,505.659073676 C 483.770704418,512.645403639 483.249606266,519.485657972 481.973166747,525.925678064 C 480.696727228,532.365698157 478.666826999,538.403543494 476.092876277,543.855740828 C 473.518925555,549.307938163 470.403392041,554.173414495 467.0,558.3622047 C 463.596607959,562.550994905 459.908035568,566.063050423 456.193337794,568.910404262 C 452.47864002,571.757758101 448.740297789,573.941387048 445.203614125,575.568283957 C 441.666930461,577.195180867 438.333812224,578.26719274 435.362571893,578.964874207 C 432.391331562,579.662555675 429.783013379,579.988336512 427.606585218,580.163928103 C 425.430157058,580.339519694 423.685644151,580.367558728 422.3445709,580.472526337 C 421.003497648,580.577493945 420.064869802,580.761826774 419.410112865,581.214337103 C 418.755355928,581.666847432 418.38261163,582.389395875 418.104820393,583.502567012 C 417.827029156,584.615738148 417.641756336,586.120528869 417.325983471,588.047644793 C 417.010210607,589.974760717 416.561302634,592.324179502 415.758693561,595.02934169 C 414.956084488,597.734503877 413.797345756,600.79436831 412.102729512,604.053164456 C 410.408113267,607.311960602 408.175773295,610.767784823 405.299169875,614.197962224 C 402.422566455,617.628139625 398.900723138,621.030192577 394.72169797,624.147731466 C 390.542672802,627.265270354 385.706514229,630.095620315 380.302914644,632.387710008 C 374.89931506,634.679799702 368.929346904,636.431164694 362.575851991,637.434985846 C 356.222357079,638.438806998 349.487274924,638.693206814 342.62378577,638.068512638 C 335.760296616,637.443818463 328.770917892,635.939027742 321.945410365,633.523434857 C 315.119902839,631.107841972 308.460984359,627.781474928 302.255341582,623.619981259 C 296.049698806,619.45848759 290.299841535,614.462925337 285.249784944,608.807071889 C 280.199728353,603.151218441 275.851396845,596.837005225 272.372546936,590.113697345 C 268.893697028,583.390389464 266.285378844,576.260502723 264.616560261,569.015104966 C 262.947741679,561.769707209 262.218442043,554.411521154 262.390741719,547.233738405 C 262.563041394,540.055955656 263.635928588,533.061097284 265.472116654,526.504760106 C 267.308304719,519.948422928 269.90590651,513.832548808 273.050230759,508.341336855 C 276.194555007,502.850124902 279.883127397,497.98464857 283.856892965,493.834872983 C 287.830658532,489.685097396 292.086932485,486.251070661 296.361378805,483.520033908 C 300.635825126,480.788997155 304.925956398,478.759972247 309.001336572,477.324528123 C 313.076716747,475.889083999 316.935432718,475.04537144 320.414282627,474.610712055 C 323.893132536,474.176052671 326.991066256,474.148013637 329.634561255,474.302113822 C 332.278056255,474.456214007 334.467081889,474.7898129 336.225978669,475.075065228 C 337.98487545,475.360317555 339.314632782,475.594782147 340.330186676,475.585750854 C 341.34574057,475.576719561 342.048945113,475.322326628 342.62378577,474.697632452 C 343.198626428,474.072938277 343.647534401,473.076940304 344.19107568,471.674199865 C 344.73461696,470.271459426 345.37542397,468.461992781 346.332277558,466.307336479 C 347.289131146,464.152680176 348.564458083,461.653868989 350.33692166,458.961454245 C 352.109385236,456.269039501 354.380830764,453.384918271 357.257434184,450.526447176 C 360.134037604,447.66797608 363.616775365,444.83762612 367.717953201,442.286468633 C 371.819131037,439.735311146 376.538701405,437.466014432 381.788056474,435.724430624 C 387.037411543,433.982846815 392.815480663,432.771433964 398.94120716,432.291988296 C 405.066933658,431.812542628 411.538380659,432.066935561 418.104820393,433.180106698 C 424.671260127,434.293277834 431.330178606,436.266224066 437.794889176,439.125295986 C 444.259599746,441.984367907 450.527388739,445.729532372 456.315207986,450.281245977 C 462.103027234,454.832959581 467.408371777,460.190159762 471.991361529,466.175704986 C 476.574351281,472.16125021 480.433067253,478.773205229 483.404307584,485.759535193 C 486.375547915,492.745865156 488.458268364,500.104051211 489.588390436,507.540901754 C 490.718512508,514.977752296 490.896023103,522.49054239 490.163974881,529.784642225 C 489.431926659,537.07874206 487.791337902,544.151629215 485.384776311,550.746981011 C 482.978214719,557.342332807 479.807574051,563.458206927 476.092876277,568.910404262 C 472.378178503,574.362601597 468.12190455,579.150049145 463.588390436,583.183507646 C 459.054876322,587.216966148 454.246813328,590.496388844 449.433670497,593.035972811 C 444.620527666,595.575556779 439.804798659,597.376282373 435.221808907,598.548704414 C 430.638819155,599.721126455 426.290487647,600.267097211 422.3445709,600.372064819 C 418.398654152,600.477032428 414.856207705,600.143433534 411.794889176,599.599113414 C 408.733570648,599.054793293 406.153415527,598.302396979 404.033721789,597.573665615 C 401.914028052,596.844934252 400.253810475,596.14231415 398.94120716,595.662868482 C 397.628603846,595.183422814 396.661764151,594.929022998 395.859155078,595.02934169 C 395.056546005,595.129660381 394.415738996,595.585706212 393.717953201,596.437940767 C 393.020167406,597.290175321 392.262772191,598.53858872 391.228071271,600.12686362 C 390.193370351,601.715138521 388.878937858,603.642246716 387.106474281,605.762955155 C 385.334010705,607.883663594 383.101670733,610.196081832 380.302914644,612.488171525 C 377.504158556,614.780261219 374.138009001,617.049557933 370.19107568,619.050209535 C 366.244142359,621.050861137 361.716471028,622.78020571 356.694884374,623.997414035 C 351.67329772,625.214622359 346.158863753,625.917242461 340.330186676,625.908211168 C 334.501509599,625.899179875 328.360522842,625.176631431 322.154880065,623.619981259 C 315.949237289,622.063331086 309.681448296,619.671587434 303.634561255,616.422295578 C 297.587674214,613.173003722 291.764397949,609.066201329 286.44364554,604.184795949 C 281.122893132,599.303390568 276.307164125,593.648448584 272.231783951,587.399881277 C 268.156403776,581.15131397 264.823285539,574.311059637 262.390741719,567.133276888 C 259.958197898,559.955494139 258.427266491,552.442704045 257.856892965,544.889536417 C 257.286519439,537.336368789 257.676710407,529.745549911 258.979132155,522.412435459 C 260.281553903,515.079321006 262.495181536,508.006433851 265.472116654,501.450096672 C 268.449051771,494.893759494 272.187394002,488.855914158 276.461840323,483.520033908 C 280.736286643,478.184153659 285.544349637,473.55131015 290.616560261,469.709304434 C 295.688770886,465.867298719 301.022431615,462.816175336 306.343184023,460.539613451 C 311.663936432,458.263051567 316.969280975,456.760067776 322.019337566,455.917337511 C 327.069394157,455.074607246 331.862238393,454.890274417 336.225978669,455.175526745 C 340.589718946,455.460779073 344.52329488,456.213175386 347.945410365,457.200974543 C 351.367525851,458.1887737 354.278141216,459.409325524 356.694884374,460.626533848 C 359.111627532,461.843742173 361.035480262,463.055155024 362.575851991,464.058976176 C 364.116223721,465.062797328 365.274962453,465.857149285 366.231816041,466.307336479 C 367.188669629,466.757523672 367.946064844,466.862531087 368.72169797,466.576677934 C 369.497331097,466.290824782 370.293831868,465.614114375 371.328532788,464.59754578 C 372.363233708,463.580977184 373.638560645,462.225571981 375.33317689,460.671244944 C 377.027793135,459.116917907 379.143544902,457.365552915 381.788056474,455.623969107 C 384.432568047,453.882385298 387.606818565,452.153040725 391.325983471,450.676764607 C 395.045148377,449.200488489 399.309184556,447.979936665 404.033721789,447.251205302 C 408.758259023,446.522473938 413.942232745,446.288009347 419.410112865,446.740519676 C 424.877992985,447.193030005 430.627850256,448.334375869 436.415669503,450.281245977 C 442.203488751,452.228116085 448.026765016,454.981497664 453.606585218,458.560481297 C 459.18640542,462.139464929 464.520066149,466.544009125 469.33320898,471.688436589 C 474.146351811,476.832864052 478.436483083,482.71610535 481.973166747,489.156125443 C 485.509850411,495.596145535 488.291179607,502.591003907 490.163974881,509.885103742 C 492.036770155,517.179203577 493.0,524.770022454 493.0,532.3622047 C 493.0,539.954386946 492.036770155,547.545205823 490.163974881,554.839305658 C 488.291179607,562.133405493 485.509850411,569.128263865 481.973166747,575.568283957 C 478.436483083,582.00830405 474.146351811,587.891545348 469.33320898,593.035972811 C 464.520066149,598.180400275 459.18640542,602.584944471 453.606585218,606.163928103 C 448.026765016,609.742911736 442.203488751,612.496293315 436.415669503,614.443163423 C 430.627850256,616.390033531 424.877992985,617.531379395 419.410112865,617.983889724 C 413.942232745,618.436400053 408.758259023,618.201935462 404.033721789,617.473204098 C 399.309184556,616.744472735 395.045148377,615.523920911 391.325983471,614.047644793 C 387.606818565,612.571368675 384.432568047,610.842024102 381.788056474,609.100440293 C 379.143544902,607.358856485 377.027793135,605.607491493 375.33317689,604.053164456 C 373.638560645,602.498837419 372.363233708,601.143432216 371.328532788,600.12686362 C 370.293831868,599.110295025 369.497331097,598.433584618 368.72169797,598.147731466 C 367.946064844,597.861878313 367.188669629,597.966885728 366.231816041,598.417072921 C 365.274962453,598.867260115 364.116223721,599.661612072 362.575851991,600.665433224 C 361.035480262,601.669254376 359.111627532,602.880667227 356.694884374,604.097875552 C 354.278141216,605.315083876 351.367525851,606.5356357 347.945410365,607.523434857 C 344.52329488,608.511234014 340.589718946,609.263630327 336.225978669,609.548882655 C 331.862238393,609.834134983 327.069394157,609.649802154 322.019337566,608.807071889 C 316.969280975,607.964341624 311.663936432,606.461357833 306.343184023,604.184795949 C 301.022431615,601.908234064 295.688770886,598.857110681 290.616560261,595.015104966 C 285.544349637,591.17309925 280.736286643,586.540255741 276.461840323,581.204375492 C 272.187394002,575.868495242 268.449051771,569.830649906 265.472116654,563.274312728 C 262.495181536,556.717975549 260.281553903,549.645088394 258.979132155,542.311973941 C 257.676710407,534.978859489 257.286519439,527.388040611 257.856892965,519.834872983 C 258.427266491,512.281705355 259.958197898,504.768915261 262.390741719,497.591132512 C 264.823285539,490.413349763 268.156403776,483.57309543 272.231783951,477.324528123 C 276.307164125,471.075960816 281.122893132,465.421018832 286.44364554,460.539613451 C 291.764397949,455.658208071 297.587674214,451.551405678 303.634561255,448.302113822 C 309.681448296,445.052821966 315.949237289,442.661078314 322.154880065,441.104428141 C 328.360522842,439.547777969 334.501509599,438.825229525 340.330186676,438.816198232 C 346.158863753,438.807166939 351.67329772,439.509787041 356.694884374,440.726995365 C 361.716471028,441.94420369 366.244142359,443.673548263 370.19107568,445.674199865 C 374.138009001,447.674851467 377.504158556,449.944148181 380.302914644,452.236237875 C 383.101670733,454.528327568 385.334010705,456.840745806 387.106474281,458.961454245 C 388.878937858,461.082162684 390.193370351,463.009270879 391.228071271,464.59754578 C 392.262772191,466.18582068 393.020167406,467.434234079 393.717953201,468.286468633 C 394.415738996,469.138703188 395.056546005,469.594749019 395.859155078,469.69506771 C 396.661764151,469.795386402 397.628603846,469.540986586 398.94120716,469.061540918 C 400.253810475,468.58209525 401.914028052,467.879475148 404.033721789,467.150743785 C 406.153415527,466.422012421 408.733570648,465.669616107 411.794889176,465.125295986 C 414.856207705,464.580975866 418.398654152,464.247376972 422.3445709,464.352344581 C 426.290487647,464.457312189 430.638819155,465.003282945 435.221808907,466.175704986 C 439.804798659,467.348127027 444.620527666,469.148852621 449.433670497,471.688436589 C 454.246813328,474.228020556 459.054876322,477.507443252 463.588390436,481.540901754 C 468.12190455,485.574360255 472.378178503,490.361807803 476.092876277,495.814005138 C 479.807574051,501.266202473 482.978214719,507.382076593 485.384776311,513.977428389 C 487.791337902,520.572780185 489.431926659,527.64566734 490.163974881,534.939767175 C 490.896023103,542.23386701 490.718512508,549.746657104 489.588390436,557.183507646 C 488.458268364,564.620358189 486.375547915,571.978544244 483.404307584,578.964874207 C 480.433067253,585.951204171 476.574351281,592.56315919 471.991361529,598.548704414 C 467.408371777,604.534249638 462.103027234,609.891449819 456.315207986,614.443163423 C 450.527388739,618.994877028 444.259599746,622.740041493 437.794889176,625.599113414 C 431.330178606,628.458185334 424.671260127,630.431131566 418.104820393,631.544302702 C 411.538380659,632.657473839 405.066933658,632.911866772 398.94120716,632.432421104 C 392.815480663,631.952975436 387.037411543,630.741562585 381.788056474,628.999978776 C 376.538701405,627.258394968 371.819131037,624.989098254 367.717953201,622.437940767 C 363.616775365,619.88678328 360.134037604,617.05643332 357.257434184,614.197962224 C 354.380830764,611.339491129 352.109385236,608.455369899 350.33692166,605.762955155 C 348.564458083,603.070540411 347.289131146,600.571729224 346.332277558,598.417072921 C 345.37542397,596.262416619 344.73461696,594.452949974 344.19107568,593.050209535 C 343.647534401,591.647469096 343.198626428,590.651471123 342.62378577,590.026776948 C 342.048945113,589.402082772 341.34574057,589.147689839 340.330186676,589.138658546 C 339.314632782,589.129627253 337.98487545,589.364091845 336.225978669,589.649344172 C 334.467081889,589.9345965 332.278056255,590.268195393 329.634561255,590.422295578 C 326.991066256,590.576395763 323.893132536,590.548356729 320.414282627,590.113697345 C 316.935432718,589.67903796 313.076716747,588.835325401 309.001336572,587.399881277 C 304.925956398,585.964437153 300.635825126,583.935412245 296.361378805,581.204375492 C 292.086932485,578.473338739 287.830658532,575.039312004 283.856892965,570.889536417 C 279.883127397,566.73976083 276.194555007,561.874284498 273.050230759,556.383072545 C 269.90590651,550.891860592 267.308304719,544.775986472 265.472116654,538.219649294 C 263.635928588,531.663312116 262.563041394,524.668453744 262.390741719,517.490670995 C 262.218442043,510.312888246 262.947741679,502.954702191 264.616560261,495.709304434 C 266.285378844,488.463906677 268.893697028,481.334019936 272.372546936,474.610712055 C 275.851396845,467.887404175 280.199728353,461.573190959 285.249784944,455.917337511 C 290.299841535,450.261484063 296.049698806,445.26592181 302.255341582,441.104428141 C 308.460984359,436.942934472 315.119902839,433.616567428 321.945410365,431.200974543 C 328.770917892,428.785381658 335.760296616,427.280590937 342.62378577,426.655896762 C 349.487274924,426.031202586 356.222357079,426.285602402 362.575851991,427.289423554 C 368.929346904,428.293244706 374.89931506,430.044609698 380.302914644,432.336699392 C 385.706514229,434.628789085 390.542672802,437.459139046 394.72169797,440.576677934 C 398.900723138,443.694216823 402.422566455,447.096269775 405.299169875,450.526447176 C 408.175773295,453.956624577 410.408113267,457.412448798 412.102729512,460.671244944 C 413.797345756,463.93004109 414.956084488,466.989905523 415.758693561,469.69506771 C 416.561302634,472.400229898 417.010210607,474.749648683 417.325983471,476.676764607 C 417.641756336,478.603880531 417.827029156,480.108671252 418.104820393,481.221842388 C 418.38261163,482.335013525 418.755355928,483.057561968 419.410112865,483.510072297 C 420.064869802,483.962582626 421.003497648,484.146915455 422.3445709,484.251883063 C 423.685644151,484.356850672 425.430157058,484.384889706 427.606585218,484.560481297 C 429.783013379,484.736072888 432.391331562,485.061853725 435.362571893,485.759535193 C 438.333812224,486.45721666 441.666930461,487.529228533 445.203614125,489.156125443 C 448.740297789,490.783022352 452.47864002,492.966651299 456.193337794,495.814005138 C 459.908035568,498.661358977 463.596607959,502.173414495 467.0,506.3622047 C 470.403392041,510.550994905 473.518925555,515.416471237 476.092876277,520.868668572 C 478.666826999,526.320865906 480.696727228,532.358711243 481.973166747,538.798731336 C 483.249606266,545.238751428 483.770704418,552.079005761 483.404307584,559.065335724 C 483.037910749,566.051665688 481.783013379,573.181552429 479.606585218,580.163928103 C 477.430157058,587.146303777 474.332223338,593.978448715 470.38630659,600.372064819 C 466.440389842,606.765680924 461.647545607,612.718256212 456.179665487,617.983889724 C 450.711785367,623.249523237 444.57079861,627.82628807 438.004358876,631.544302702 C 431.437919142,635.262317335 424.448540418,638.120528869 417.325983471,640.047644793 C 410.203426524,641.974760717 402.950412647,642.970758689 395.859155078,643.07107738 C 388.767897509,643.171396071 381.840916318,642.377044115 375.33317689,640.822717078 C 368.825437462,639.268390041 362.7388811,636.955971803 357.257434184,634.097500707 C 351.775987268,631.239029612 346.900723138,627.83697666 342.72169797,624.147731466 C 338.542672802,620.458486271 335.059935042,616.484730328 332.261178954,612.488171525 C 329.462422866,608.491612723 327.346671099,604.474735255 325.806299369,600.665433224 C 324.26592764,596.856131193 323.299087945,593.256314619 322.724247287,590.026776948 C 322.14940663,586.797239276 321.964133809,583.939027742 321.945410365,581.523434857 C 321.926686921,579.107841972 322.071874346,577.134895741 322.154880065,575.578245568 C 322.237885785,574.021595396 322.256270974,572.880249532 322.019337566,572.037519267 C 321.782404158,571.194789002 321.288289039,570.648818246 320.414282627,570.214158862 C 319.540276215,569.779499477 318.285378844,569.45371864 316.616560261,569.015104966 C 314.947741679,568.576491292 312.86502123,568.022411141 310.432477409,567.133276888 C 307.999933589,566.244142635 305.218604393,565.017526723 302.241669276,563.274312728 C 299.264734158,561.531098732 296.09409349,559.269441002 292.949769241,556.383072545 C 289.805444993,553.496704089 286.68991148,549.98464857 283.856892965,545.834872983 C 281.023874449,541.685097396 278.476042498,536.897649848 276.461840323,531.561769599 C 274.447638147,526.22588935 272.969526959,520.342648052 272.231783951,514.094080745 C 271.494040942,507.845513438 271.498540524,501.233558419 272.372546936,494.510250538 C 273.246553349,487.786942658 274.991066256,480.95479772 277.634561255,474.302113822 C 280.278056255,467.649429924 283.820502702,461.178922914 288.184242979,455.175526745 C 292.547983255,449.172130576 297.731956978,443.638352708 303.560634055,438.816198232 C 309.389311132,433.994043756 315.860758133,429.885434433 322.724247287,426.655896762 C 329.587736441,423.42635909 336.840750318,421.076940304 344.19107568,419.674199865 C 351.541401043,418.271459426 358.986313956,417.815413594 366.231816041,418.265600788 C 373.477318125,418.715787981 380.520887522,420.071193185 387.106474281,422.191901624 C 393.692061041,424.312610062 399.817722959,427.196731292 405.299169875,430.626908693 C 410.780616791,434.057086094 415.616775365,438.030842037 419.717953201,442.286468633 C 423.819131037,446.542095229 427.185280592,451.076904419 429.829792165,455.623969107 C 432.474303738,460.171033794 434.398156468,464.727863403 435.710759782,469.061540918 C 437.023363096,473.395218433 437.726567639,477.503827756 438.004358876,481.221842388 C 438.282150113,484.939857021 438.136962689,488.266224066 437.794889176,491.125295986 C 437.452815663,493.984367907 436.916498752,496.376111559 436.415669503,498.322981667 C 435.914840255,500.269851775 435.451942338,501.772835567 435.221808907,502.945257608 C 434.991675476,504.117679649 434.996175059,504.961392208 435.362571893,505.659073676 C 435.728968728,506.356755143 436.458268364,506.910835294 437.588390436,507.540901754 C 438.718512508,508.170968213 440.249443916,508.879652403 442.12223919,509.885103742 C 443.995034464,510.89055508 446.208662098,512.195199776 448.615223689,513.977428389 C 451.021785281,515.759657002 453.619387072,518.021314733 456.193337794,520.868668572 C 458.767288516,523.71602241 461.315120467,527.150049145 463.588390436,531.183507646 C 465.861660405,535.216966148 467.857703315,539.849809657 469.33320898,544.994237121 C 470.808714645,550.138664584 471.761228098,555.793606568 471.991361529,561.779151792 C 472.22149496,567.764697016 471.727379842,574.078910232 470.38630659,580.472526337 C 469.045233339,586.866142441 466.856207705,593.336649452 463.794889176,599.599113414 C 460.733570648,605.861577376 456.799994713,611.913286966 452.07545748,617.473204098 C 447.350920246,623.033121231 441.836486279,628.098743589 435.710759782,632.432421104 C 429.585033285,636.766098619 422.84995113,640.365915193 415.758693561,643.07107738 C 408.667435992,645.776239568 401.222523078,647.585706212 393.717953201,648.437940767 C 386.213383323,649.290175321 378.651882204,649.185167906 371.328532788,648.168599311 C 364.005183372,647.152030715 356.922508419,645.224922521 350.33692166,642.532507776 C 343.7513349,639.840093032 337.664778538,636.384268811 332.261178954,632.387710008 C 326.85757937,628.391151206 322.138009001,623.856342016 318.19107568,619.050209535 C 314.244142359,614.244077054 311.069891841,609.169315723 308.653148683,604.097875552 C 306.236405526,599.02643538 304.576187949,593.960813022 303.560634055,589.138658546 C 302.545080161,584.31650407 302.172335863,579.739739237 302.255341582,575.578245568 C 302.338347302,571.4167519 302.874664213,567.671587434 303.634561255,564.422295578 C 304.394458297,561.173003722 305.375287936,558.419622142 306.343184023,556.143060258 C 307.311080111,553.866498374 308.263593564,552.065772779 309.001336572,550.630328655 C 309.739079581,549.194884531 310.260177734,548.122872658 310.432477409,547.233738405 C 310.604777085,546.344604152 310.427266491,545.635919962 309.856892965,544.889536417 C 309.286519439,544.143152871 308.323289593,543.356439898 307.020867845,542.311973941 C 305.718446097,541.267507985 304.077857341,539.962863289 302.241669276,538.219649294 C 300.40548121,536.476435299 298.375580981,534.292806352 296.361378805,531.561769599 C 294.34717663,528.830732846 292.35113372,525.55131015 290.616560261,521.709304434 C 288.881986803,517.867298719 287.411541628,513.462754523 286.44364554,508.581349142 C 285.475749453,503.699943761 285.012851536,498.342743581 285.249784944,492.686890133 C 285.486718352,487.031036685 286.425346198,481.078461397 288.184242979,475.075065228 C 289.943139759,469.071669059 292.52329488,463.019959469 295.945410365,457.200974543 C 299.367525851,451.381989617 303.63156203,445.798435537 308.653148683,440.726995365 C 313.674735337,435.655555194 319.452804457,431.098725585 325.806299369,427.289423554 C 332.159794282,423.480121523 339.086775473,420.420257091 346.332277558,418.265600788 C 353.577779642,416.110944485 361.139280761,414.862531087 368.72169797,414.576677934 C 376.30411518,414.290824782 383.904721855,414.967535188 391.228071271,416.555810089 C 398.551420687,418.14408499 405.594990084,420.642896176 412.102729512,423.901692322 C 418.610468939,427.160488468 424.580437096,431.177365936 429.829792165,435.724430624 C 435.079147234,440.271495311 439.606818565,445.346256642 443.325983471,450.676764607 C 447.045148377,456.007272572 449.955763742,461.590826652 452.07545748,467.150743785 C 454.195151217,472.710660917 455.52490855,478.244438785 456.179665487,483.510072297 C 456.834422424,488.775705809 456.816037235,493.771268063 456.315207986,498.322981667 C 455.814378738,502.874695272 454.833549099,506.981497664 453.606585218,510.560481297 C 452.379621337,514.139464929 450.909176162,517.190588312 449.433670497,519.730172279 C 447.958164832,522.269756247 446.480053644,524.298781155 445.203614125,525.925678064 C 443.927174606,527.552574974 442.854287412,528.779190886 442.12223919,529.784642225 C 441.390190968,530.790093563 441.0,531.576806537 441.0,532.3622047Z"
     style="stroke:#000000;fill:none" />
</svg>
