999
DXF created by Inkscape
  0
SECTION
  2
HEADER
  9
$ACADVER
  1
AC1014
  9
$HANDSEED
  5
FFFF
  9
$MEASUREMENT
 70
     1
  0
ENDSEC
  0
SECTION
  2
TABLES
  0
TABLE
  2
VPORT
  5
8
330
0
100
AcDbSymbolTable
 70
     4
  0
VPORT
  5
2E
330
8
100
AcDbSymbolTableRecord
100
AcDbViewportTableRecord
  2
*ACTIVE
 70
     0
 10
0.0
 20
0.0
 11
1.0
 21
1.0
 12
210.0
 22
148.5
 13
0.0
 23
0.0
 14
10.0
 24
10.0
 15
10.0
 25
10.0
 16
0.0
 26
0.0
 36
1.0
 17
0.0
 27
0.0
 37
0.0
 40
341.0
 41
1.24
 42
50.0
 43
0.0
 44
0.0
 50
0.0
 51
0.0
 71
     0
 72
   100
 73
     1
 74
     3
 75
     0
 76
     0
 77
     0
 78
     0
  0
ENDTAB
  0
TABLE
  2
LTYPE
  5
5
330
0
100
AcDbSymbolTable
 70
     1
  0
LTYPE
  5
14
330
5
100
AcDbSymbolTableRecord
100
AcDbLinetypeTableRecord
  2
BYBLOCK
 70
     0
  3

 72
    65
 73
     0
 40
0.0
  0
LTYPE
  5
15
330
5
100
AcDbSymbolTableRecord
100
AcDbLinetypeTableRecord
  2
BYLAYER
 70
     0
  3

 72
    65
 73
     0
 40
0.0
  0
LTYPE
  5
16
330
5
100
AcDbSymbolTableRecord
100
AcDbLinetypeTableRecord
  2
CONTINUOUS
 70
     0
  3
Solid line
 72
    65
 73
     0
 40
0.0
  0
ENDTAB
  0
TABLE
  2
LAYER
  5
2
100
AcDbSymbolTable
 70
2
  0
LAYER
  5
50
100
AcDbSymbolTableRecord
100
AcDbLayerTableRecord
  2
0
 70
0
  6
CONTINUOUS
  0
LAYER
  5
51
100
AcDbSymbolTableRecord
100
AcDbLayerTableRecord
  2
Layer_1
 70
0
  6
CONTINUOUS
  0
ENDTAB
  0
TABLE
  2
STYLE
  5
3
330
0
100
AcDbSymbolTable
 70
     1
  0
STYLE
  5
11
330
3
100
AcDbSymbolTableRecord
100
AcDbTextStyleTableRecord
  2
STANDARD
 70
     0
 40
0.0
 41
1.0
 50
0.0
 71
     0
 42
2.5
  3
txt
  4

  0
ENDTAB
  0
TABLE
  2
VIEW
  5
6
330
0
100
AcDbSymbolTable
 70
     0
  0
ENDTAB
  0
TABLE
  2
UCS
  5
7
330
0
100
AcDbSymbolTable
 70
     0
  0
ENDTAB
  0
TABLE
  2
APPID
  5
9
330
0
100
AcDbSymbolTable
 70
     2
  0
APPID
  5
12
330
9
100
AcDbSymbolTableRecord
100
AcDbRegAppTableRecord
  2
ACAD
 70
     0
  0
ENDTAB
  0
TABLE
  2
DIMSTYLE
  5
A
330
0
100
AcDbSymbolTable
 70
     1
  0
DIMSTYLE
105
27
330
A
100
AcDbSymbolTableRecord
100
AcDbDimStyleTableRecord
  2
ISO-25
 70
     0
  3

  4

  5

  6

  7

 40
1.0
 41
2.5
 42
0.625
 43
3.75
 44
1.25
 45
0.0
 46
0.0
 47
0.0
 48
0.0
140
2.5
141
2.5
142
0.0
143
0.03937007874016
144
1.0
145
0.0
146
1.0
147
0.625
 71
     0
 72
     0
 73
     0
 74
     0
 75
     0
 76
     0
 77
     1
 78
     8
170
     0
171
     3
172
     1
173
     0
174
     0
175
     0
176
     0
177
     0
178
     0
270
     2
271
     2
272
     2
273
     2
274
     3
340
11
275
     0
280
     0
281
     0
282
     0
283
     0
284
     8
285
     0
286
     0
287
     3
288
     0
  0
ENDTAB
  0
TABLE
  2
BLOCK_RECORD
  5
1
330
0
100
AcDbSymbolTable
 70
     1
  0
BLOCK_RECORD
  5
1F
330
1
100
AcDbSymbolTableRecord
100
AcDbBlockTableRecord
  2
*MODEL_SPACE
  0
BLOCK_RECORD
  5
1B
330
1
100
AcDbSymbolTableRecord
100
AcDbBlockTableRecord
  2
*PAPER_SPACE
  0
ENDTAB
  0
ENDSEC
  0
SECTION
  2
BLOCKS
  0
BLOCK
  5
20
330
1F
100
AcDbEntity
  8
0
100
AcDbBlockBegin
  2
*MODEL_SPACE
 70
     0
 10
0.0
 20
0.0
 30
0.0
  3
*MODEL_SPACE
  1

  0
ENDBLK
  5
21
330
1F
100
AcDbEntity
  8
0
100
AcDbBlockEnd
  0
BLOCK
  5
1C
330
1B
100
AcDbEntity
 67
     1
  8
0
100
AcDbBlockBegin
  2
*PAPER_SPACE
  1

  0
ENDBLK
  5
1D
330
1B
100
AcDbEntity
 67
     1
  8
0
100
AcDbBlockEnd
  0
ENDSEC
  0
SECTION
  2
ENTITIES
  0
SPLINE
  5
100
100
AcDbEntity
  8
0
 62
7
100
AcDbSpline
 70
8
 71
3
 72
8
 73
4
 74
0
 40
0
 40
0
 40
0
 40
0
 40
1
 40
1
 40
1
 40
1
 10
134.380630
 20
124.922640
 30
0.0
 10
134.380630
 20
124.150914
 30
0.0
 10
133.969179
 20
123.378701
 30
0.0
 10
133.167320
 20
122.532497
 30
0.0
  0
SPLINE
  5
101
100
AcDbEntity
  8
0
 62
7
100
AcDbSpline
 70
8
 71
3
 72
8
 73
4
 74
0
 40
0
 40
0
 40
0
 40
0
 40
1
 40
1
 40
1
 40
1
 10
133.167320
 20
122.532497
 30
0.0
 10
132.365465
 20
121.686293
 30
0.0
 10
131.173593
 20
120.765199
 30
0.0
 10
129.651862
 20
119.709933
 30
0.0
  0
SPLINE
  5
102
100
AcDbEntity
  8
0
 62
7
100
AcDbSpline
 70
8
 71
3
 72
8
 73
4
 74
0
 40
0
 40
0
 40
0
 40
0
 40
1
 40
1
 40
1
 40
1
 10
129.651862
 20
119.709933
 30
0.0
 10
128.130133
 20
118.654668
 30
0.0
 10
126.279272
 20
117.464545
 30
0.0
 10
124.190071
 20
116.106492
 30
0.0
  0
SPLINE
  5
103
100
AcDbEntity
  8
0
 62
7
100
AcDbSpline
 70
8
 71
3
 72
8
 73
4
 74
0
 40
0
 40
0
 40
0
 40
0
 40
1
 40
1
 40
1
 40
1
 10
124.190071
 20
116.106492
 30
0.0
 10
122.100871
 20
114.748436
 30
0.0
 10
119.774281
 20
113.222093
 30
0.0
 10
117.319030
 20
111.528446
 30
0.0
  0
SPLINE
  5
104
100
AcDbEntity
  8
0
 62
7
100
AcDbSpline
 70
8
 71
3
 72
8
 73
4
 74
0
 40
0
 40
0
 40
0
 40
0
 40
1
 40
1
 40
1
 40
1
 10
117.319030
 20
111.528446
 30
0.0
 10
114.863781
 20
109.834797
 30
0.0
 10
112.280900
 20
107.973875
 30
0.0
 10
109.682032
 20
105.983197
 30
0.0
  0
SPLINE
  5
105
100
AcDbEntity
  8
0
 62
7
100
AcDbSpline
 70
8
 71
3
 72
8
 73
4
 74
0
 40
0
 40
0
 40
0
 40
0
 40
1
 40
1
 40
1
 40
1
 10
109.682032
 20
105.983197
 30
0.0
 10
107.083163
 20
103.992518
 30
0.0
 10
104.469266
 20
101.872498
 30
0.0
 10
101.939807
 20
99.693841
 30
0.0
  0
SPLINE
  5
106
100
AcDbEntity
  8
0
 62
7
100
AcDbSpline
 70
8
 71
3
 72
8
 73
4
 74
0
 40
0
 40
0
 40
0
 40
0
 40
1
 40
1
 40
1
 40
1
 10
101.939807
 20
99.693841
 30
0.0
 10
99.410345
 20
97.515187
 30
0.0
 10
96.966066
 20
95.278636
 30
0.0
 10
94.681359
 20
93.079362
 30
0.0
  0
SPLINE
  5
107
100
AcDbEntity
  8
0
 62
7
100
AcDbSpline
 70
8
 71
3
 72
8
 73
4
 74
0
 40
0
 40
0
 40
0
 40
0
 40
1
 40
1
 40
1
 40
1
 10
94.681359
 20
93.079362
 30
0.0
 10
92.396654
 20
90.880087
 30
0.0
 10
90.271939
 20
88.719046
 30
0.0
 10
88.347736
 20
86.703082
 30
0.0
  0
SPLINE
  5
108
100
AcDbEntity
  8
0
 62
7
100
AcDbSpline
 70
8
 71
3
 72
8
 73
4
 74
0
 40
0
 40
0
 40
0
 40
0
 40
1
 40
1
 40
1
 40
1
 10
88.347736
 20
86.703082
 30
0.0
 10
86.423534
 20
84.687118
 30
0.0
 10
84.699873
 20
82.817257
 30
0.0
 10
83.179988
 20
81.197034
 30
0.0
  0
SPLINE
  5
109
100
AcDbEntity
  8
0
 62
7
100
AcDbSpline
 70
8
 71
3
 72
8
 73
4
 74
0
 40
0
 40
0
 40
0
 40
0
 40
1
 40
1
 40
1
 40
1
 10
83.179988
 20
81.197034
 30
0.0
 10
81.660100
 20
79.576807
 30
0.0
 10
80.343629
 20
78.207163
 30
0.0
 10
79.198936
 20
77.173420
 30
0.0
  0
SPLINE
  5
10a
100
AcDbEntity
  8
0
 62
7
100
AcDbSpline
 70
8
 71
3
 72
8
 73
4
 74
0
 40
0
 40
0
 40
0
 40
0
 40
1
 40
1
 40
1
 40
1
 10
79.198936
 20
77.173420
 30
0.0
 10
78.054242
 20
76.139679
 30
0.0
 10
77.080646
 20
75.442556
 30
0.0
 10
76.219456
 20
75.136585
 30
0.0
  0
SPLINE
  5
10b
100
AcDbEntity
  8
0
 62
7
100
AcDbSpline
 70
8
 71
3
 72
8
 73
4
 74
0
 40
0
 40
0
 40
0
 40
0
 40
1
 40
1
 40
1
 40
1
 10
76.219456
 20
75.136585
 30
0.0
 10
75.358269
 20
74.830614
 30
0.0
 10
74.608591
 20
74.916181
 30
0.0
 10
73.896663
 20
75.408676
 30
0.0
  0
SPLINE
  5
10c
100
AcDbEntity
  8
0
 62
7
100
AcDbSpline
 70
8
 71
3
 72
8
 73
4
 74
0
 40
0
 40
0
 40
0
 40
0
 40
1
 40
1
 40
1
 40
1
 10
73.896663
 20
75.408676
 30
0.0
 10
73.184738
 20
75.901173
 30
0.0
 10
72.509586
 20
76.800590
 30
0.0
 10
71.796605
 20
78.080341
 30
0.0
  0
SPLINE
  5
10d
100
AcDbEntity
  8
0
 62
7
100
AcDbSpline
 70
8
 71
3
 72
8
 73
4
 74
0
 40
0
 40
0
 40
0
 40
0
 40
1
 40
1
 40
1
 40
1
 10
71.796605
 20
78.080341
 30
0.0
 10
71.083624
 20
79.360089
 30
0.0
 10
70.331909
 20
81.019767
 30
0.0
 10
69.480255
 20
82.993903
 30
0.0
  0
SPLINE
  5
10e
100
AcDbEntity
  8
0
 62
7
100
AcDbSpline
 70
8
 71
3
 72
8
 73
4
 74
0
 40
0
 40
0
 40
0
 40
0
 40
1
 40
1
 40
1
 40
1
 10
69.480255
 20
82.993903
 30
0.0
 10
68.628599
 20
84.968039
 30
0.0
 10
67.676319
 20
87.255896
 30
0.0
 10
66.587627
 20
89.761716
 30
0.0
  0
SPLINE
  5
10f
100
AcDbEntity
  8
0
 62
7
100
AcDbSpline
 70
8
 71
3
 72
8
 73
4
 74
0
 40
0
 40
0
 40
0
 40
0
 40
1
 40
1
 40
1
 40
1
 10
66.587627
 20
89.761716
 30
0.0
 10
65.498938
 20
92.267536
 30
0.0
 10
64.273478
 20
94.990360
 30
0.0
 10
62.908815
 20
97.816956
 30
0.0
  0
SPLINE
  5
110
100
AcDbEntity
  8
0
 62
7
100
AcDbSpline
 70
8
 71
3
 72
8
 73
4
 74
0
 40
0
 40
0
 40
0
 40
0
 40
1
 40
1
 40
1
 40
1
 10
62.908815
 20
97.816956
 30
0.0
 10
61.544152
 20
100.643553
 30
0.0
 10
60.040306
 20
103.572884
 30
0.0
 10
58.430741
 20
106.489372
 30
0.0
  0
SPLINE
  5
111
100
AcDbEntity
  8
0
 62
7
100
AcDbSpline
 70
8
 71
3
 72
8
 73
4
 74
0
 40
0
 40
0
 40
0
 40
0
 40
1
 40
1
 40
1
 40
1
 10
58.430741
 20
106.489372
 30
0.0
 10
56.821177
 20
109.405859
 30
0.0
 10
55.106299
 20
112.308534
 30
0.0
 10
53.352206
 20
115.094654
 30
0.0
  0
SPLINE
  5
112
100
AcDbEntity
  8
0
 62
7
100
AcDbSpline
 70
8
 71
3
 72
8
 73
4
 74
0
 40
0
 40
0
 40
0
 40
0
 40
1
 40
1
 40
1
 40
1
 10
53.352206
 20
115.094654
 30
0.0
 10
51.598116
 20
117.880772
 30
0.0
 10
49.805545
 20
120.549584
 30
0.0
 10
48.064620
 20
123.024145
 30
0.0
  0
SPLINE
  5
113
100
AcDbEntity
  8
0
 62
7
100
AcDbSpline
 70
8
 71
3
 72
8
 73
4
 74
0
 40
0
 40
0
 40
0
 40
0
 40
1
 40
1
 40
1
 40
1
 10
48.064620
 20
123.024145
 30
0.0
 10
46.323696
 20
125.498706
 30
0.0
 10
44.635364
 20
127.778593
 30
0.0
 10
43.101096
 20
129.821524
 30
0.0
  0
SPLINE
  5
114
100
AcDbEntity
  8
0
 62
7
100
AcDbSpline
 70
8
 71
3
 72
8
 73
4
 74
0
 40
0
 40
0
 40
0
 40
0
 40
1
 40
1
 40
1
 40
1
 10
43.101096
 20
129.821524
 30
0.0
 10
41.566832
 20
131.864454
 30
0.0
 10
40.187646
 20
133.670394
 30
0.0
 10
39.061500
 20
135.235178
 30
0.0
  0
SPLINE
  5
115
100
AcDbEntity
  8
0
 62
7
100
AcDbSpline
 70
8
 71
3
 72
8
 73
4
 74
0
 40
0
 40
0
 40
0
 40
0
 40
1
 40
1
 40
1
 40
1
 10
39.061500
 20
135.235178
 30
0.0
 10
37.935352
 20
136.799965
 30
0.0
 10
37.063178
 20
138.123948
 30
0.0
 10
36.524644
 20
139.238687
 30
0.0
  0
SPLINE
  5
116
100
AcDbEntity
  8
0
 62
7
100
AcDbSpline
 70
8
 71
3
 72
8
 73
4
 74
0
 40
0
 40
0
 40
0
 40
0
 40
1
 40
1
 40
1
 40
1
 10
36.524644
 20
139.238687
 30
0.0
 10
35.986108
 20
140.353425
 30
0.0
 10
35.781923
 20
141.259601
 30
0.0
 10
35.961018
 20
142.016665
 30
0.0
  0
SPLINE
  5
117
100
AcDbEntity
  8
0
 62
7
100
AcDbSpline
 70
8
 71
3
 72
8
 73
4
 74
0
 40
0
 40
0
 40
0
 40
0
 40
1
 40
1
 40
1
 40
1
 10
35.961018
 20
142.016665
 30
0.0
 10
36.140111
 20
142.773729
 30
0.0
 10
36.702856
 20
143.382581
 30
0.0
 10
37.659228
 20
143.918583
 30
0.0
  0
SPLINE
  5
118
100
AcDbEntity
  8
0
 62
7
100
AcDbSpline
 70
8
 71
3
 72
8
 73
4
 74
0
 40
0
 40
0
 40
0
 40
0
 40
1
 40
1
 40
1
 40
1
 10
37.659228
 20
143.918583
 30
0.0
 10
38.615597
 20
144.454585
 30
0.0
 10
39.965574
 20
144.918714
 30
0.0
 10
41.677446
 20
145.387979
 30
0.0
  0
SPLINE
  5
119
100
AcDbEntity
  8
0
 62
7
100
AcDbSpline
 70
8
 71
3
 72
8
 73
4
 74
0
 40
0
 40
0
 40
0
 40
0
 40
1
 40
1
 40
1
 40
1
 10
41.677446
 20
145.387979
 30
0.0
 10
43.389319
 20
145.857244
 30
0.0
 10
45.462675
 20
146.332545
 30
0.0
 10
47.827345
 20
146.878239
 30
0.0
  0
SPLINE
  5
11a
100
AcDbEntity
  8
0
 62
7
100
AcDbSpline
 70
8
 71
3
 72
8
 73
4
 74
0
 40
0
 40
0
 40
0
 40
0
 40
1
 40
1
 40
1
 40
1
 10
47.827345
 20
146.878239
 30
0.0
 10
50.192011
 20
147.423930
 30
0.0
 10
52.847248
 20
148.040704
 30
0.0
 10
55.693118
 20
148.768151
 30
0.0
  0
SPLINE
  5
11b
100
AcDbEntity
  8
0
 62
7
100
AcDbSpline
 70
8
 71
3
 72
8
 73
4
 74
0
 40
0
 40
0
 40
0
 40
0
 40
1
 40
1
 40
1
 40
1
 10
55.693118
 20
148.768151
 30
0.0
 10
58.538988
 20
149.495602
 30
0.0
 10
61.574525
 20
150.334095
 30
0.0
 10
64.682946
 20
151.290464
 30
0.0
  0
SPLINE
  5
11c
100
AcDbEntity
  8
0
 62
7
100
AcDbSpline
 70
8
 71
3
 72
8
 73
4
 74
0
 40
0
 40
0
 40
0
 40
0
 40
1
 40
1
 40
1
 40
1
 10
64.682946
 20
151.290464
 30
0.0
 10
67.791370
 20
152.246837
 30
0.0
 10
70.971630
 20
153.321067
 30
0.0
 10
74.105299
 20
154.484582
 30
0.0
  0
SPLINE
  5
11d
100
AcDbEntity
  8
0
 62
7
100
AcDbSpline
 70
8
 71
3
 72
8
 73
4
 74
0
 40
0
 40
0
 40
0
 40
0
 40
1
 40
1
 40
1
 40
1
 10
74.105299
 20
154.484582
 30
0.0
 10
77.238967
 20
155.648097
 30
0.0
 10
80.325076
 20
156.900498
 30
0.0
 10
83.258790
 20
158.180940
 30
0.0
  0
SPLINE
  5
11e
100
AcDbEntity
  8
0
 62
7
100
AcDbSpline
 70
8
 71
3
 72
8
 73
4
 74
0
 40
0
 40
0
 40
0
 40
0
 40
1
 40
1
 40
1
 40
1
 10
83.258790
 20
158.180940
 30
0.0
 10
86.192504
 20
159.461379
 30
0.0
 10
88.973073
 20
160.769140
 30
0.0
 10
91.522279
 20
162.019597
 30
0.0
  0
SPLINE
  5
11f
100
AcDbEntity
  8
0
 62
7
100
AcDbSpline
 70
8
 71
3
 72
8
 73
4
 74
0
 40
0
 40
0
 40
0
 40
0
 40
1
 40
1
 40
1
 40
1
 10
91.522279
 20
162.019597
 30
0.0
 10
94.071488
 20
163.270056
 30
0.0
 10
96.388913
 20
164.462278
 30
0.0
 10
98.431844
 20
165.500432
 30
0.0
  0
SPLINE
  5
120
100
AcDbEntity
  8
0
 62
7
100
AcDbSpline
 70
8
 71
3
 72
8
 73
4
 74
0
 40
0
 40
0
 40
0
 40
0
 40
1
 40
1
 40
1
 40
1
 10
98.431844
 20
165.500432
 30
0.0
 10
100.474774
 20
166.538584
 30
0.0
 10
102.243176
 20
167.421660
 30
0.0
 10
103.733315
 20
168.057343
 30
0.0
  0
SPLINE
  5
121
100
AcDbEntity
  8
0
 62
7
100
AcDbSpline
 70
8
 71
3
 72
8
 73
4
 74
0
 40
0
 40
0
 40
0
 40
0
 40
1
 40
1
 40
1
 40
1
 10
103.733315
 20
168.057343
 30
0.0
 10
105.223454
 20
168.693023
 30
0.0
 10
106.435680
 20
169.080385
 30
0.0
 10
107.402822
 20
169.145270
 30
0.0
  0
SPLINE
  5
122
100
AcDbEntity
  8
0
 62
7
100
AcDbSpline
 70
8
 71
3
 72
8
 73
4
 74
0
 40
0
 40
0
 40
0
 40
0
 40
1
 40
1
 40
1
 40
1
 10
107.402822
 20
169.145270
 30
0.0
 10
108.369966
 20
169.210156
 30
0.0
 10
109.092709
 20
168.951861
 30
0.0
 10
109.632592
 20
168.326719
 30
0.0
  0
SPLINE
  5
123
100
AcDbEntity
  8
0
 62
7
100
AcDbSpline
 70
8
 71
3
 72
8
 73
4
 74
0
 40
0
 40
0
 40
0
 40
0
 40
1
 40
1
 40
1
 40
1
 10
109.632592
 20
168.326719
 30
0.0
 10
110.172472
 20
167.701574
 30
0.0
 10
110.530394
 20
166.709216
 30
0.0
 10
110.784572
 20
165.344553
 30
0.0
  0
SPLINE
  5
124
100
AcDbEntity
  8
0
 62
7
100
AcDbSpline
 70
8
 71
3
 72
8
 73
4
 74
0
 40
0
 40
0
 40
0
 40
0
 40
1
 40
1
 40
1
 40
1
 10
110.784572
 20
165.344553
 30
0.0
 10
111.038750
 20
163.979887
 30
0.0
 10
111.190165
 20
162.242944
 30
0.0
 10
111.319381
 20
160.169833
 30
0.0
  0
SPLINE
  5
125
100
AcDbEntity
  8
0
 62
7
100
AcDbSpline
 70
8
 71
3
 72
8
 73
4
 74
0
 40
0
 40
0
 40
0
 40
0
 40
1
 40
1
 40
1
 40
1
 10
111.319381
 20
160.169833
 30
0.0
 10
111.448593
 20
158.096719
 30
0.0
 10
111.556518
 20
155.687854
 30
0.0
 10
111.711678
 20
153.017221
 30
0.0
  0
SPLINE
  5
126
100
AcDbEntity
  8
0
 62
7
100
AcDbSpline
 70
8
 71
3
 72
8
 73
4
 74
0
 40
0
 40
0
 40
0
 40
0
 40
1
 40
1
 40
1
 40
1
 10
111.711678
 20
153.017221
 30
0.0
 10
111.866838
 20
150.346592
 30
0.0
 10
112.069931
 20
147.414944
 30
0.0
 10
112.365259
 20
144.325355
 30
0.0
  0
SPLINE
  5
127
100
AcDbEntity
  8
0
 62
7
100
AcDbSpline
 70
8
 71
3
 72
8
 73
4
 74
0
 40
0
 40
0
 40
0
 40
0
 40
1
 40
1
 40
1
 40
1
 10
112.365259
 20
144.325355
 30
0.0
 10
112.660585
 20
141.235770
 30
0.0
 10
113.048519
 20
137.989210
 30
0.0
 10
113.541014
 20
134.704866
 30
0.0
  0
SPLINE
  5
128
100
AcDbEntity
  8
0
 62
7
100
AcDbSpline
 70
8
 71
3
 72
8
 73
4
 74
0
 40
0
 40
0
 40
0
 40
0
 40
1
 40
1
 40
1
 40
1
 10
113.541014
 20
134.704866
 30
0.0
 10
114.033512
 20
131.420519
 30
0.0
 10
114.630561
 20
128.099435
 30
0.0
 10
115.309015
 20
124.861640
 30
0.0
  0
SPLINE
  5
129
100
AcDbEntity
  8
0
 62
7
100
AcDbSpline
 70
8
 71
3
 72
8
 73
4
 74
0
 40
0
 40
0
 40
0
 40
0
 40
1
 40
1
 40
1
 40
1
 10
115.309015
 20
124.861640
 30
0.0
 10
115.987466
 20
121.623846
 30
0.0
 10
116.746929
 20
118.470314
 30
0.0
 10
117.532161
 20
115.506645
 30
0.0
  0
SPLINE
  5
12a
100
AcDbEntity
  8
0
 62
7
100
AcDbSpline
 70
8
 71
3
 72
8
 73
4
 74
0
 40
0
 40
0
 40
0
 40
0
 40
1
 40
1
 40
1
 40
1
 10
117.532161
 20
115.506645
 30
0.0
 10
118.317394
 20
112.542979
 30
0.0
 10
119.127682
 20
109.769923
 30
0.0
 10
119.884063
 20
107.265612
 30
0.0
  0
SPLINE
  5
12b
100
AcDbEntity
  8
0
 62
7
100
AcDbSpline
 70
8
 71
3
 72
8
 73
4
 74
0
 40
0
 40
0
 40
0
 40
0
 40
1
 40
1
 40
1
 40
1
 10
119.884063
 20
107.265612
 30
0.0
 10
120.640444
 20
104.761302
 30
0.0
 10
121.341989
 20
102.526159
 30
0.0
 10
121.898447
 20
100.601956
 30
0.0
  0
SPLINE
  5
12c
100
AcDbEntity
  8
0
 62
7
100
AcDbSpline
 70
8
 71
3
 72
8
 73
4
 74
0
 40
0
 40
0
 40
0
 40
0
 40
1
 40
1
 40
1
 40
1
 10
121.898447
 20
100.601956
 30
0.0
 10
122.454901
 20
98.677751
 30
0.0
 10
122.865269
 20
97.064524
 30
0.0
 10
123.042601
 20
95.764238
 30
0.0
  0
SPLINE
  5
12d
100
AcDbEntity
  8
0
 62
7
100
AcDbSpline
 70
8
 71
3
 72
8
 73
4
 74
0
 40
0
 40
0
 40
0
 40
0
 40
1
 40
1
 40
1
 40
1
 10
123.042601
 20
95.764238
 30
0.0
 10
123.219932
 20
94.463956
 30
0.0
 10
123.163316
 20
93.476260
 30
0.0
 10
122.803635
 20
92.765777
 30
0.0
  0
SPLINE
  5
12e
100
AcDbEntity
  8
0
 62
7
100
AcDbSpline
 70
8
 71
3
 72
8
 73
4
 74
0
 40
0
 40
0
 40
0
 40
0
 40
1
 40
1
 40
1
 40
1
 10
122.803635
 20
92.765777
 30
0.0
 10
122.443954
 20
92.055291
 30
0.0
 10
121.780520
 20
91.621326
 30
0.0
 10
120.774262
 20
91.399065
 30
0.0
  0
SPLINE
  5
12f
100
AcDbEntity
  8
0
 62
7
100
AcDbSpline
 70
8
 71
3
 72
8
 73
4
 74
0
 40
0
 40
0
 40
0
 40
0
 40
1
 40
1
 40
1
 40
1
 10
120.774262
 20
91.399065
 30
0.0
 10
119.768008
 20
91.176801
 30
0.0
 10
118.418568
 20
91.165329
 30
0.0
 10
116.724921
 20
91.282499
 30
0.0
  0
SPLINE
  5
130
100
AcDbEntity
  8
0
 62
7
100
AcDbSpline
 70
8
 71
3
 72
8
 73
4
 74
0
 40
0
 40
0
 40
0
 40
0
 40
1
 40
1
 40
1
 40
1
 10
116.724921
 20
91.282499
 30
0.0
 10
115.031274
 20
91.399669
 30
0.0
 10
112.993447
 20
91.644485
 30
0.0
 10
110.650968
 20
91.931892
 30
0.0
  0
SPLINE
  5
131
100
AcDbEntity
  8
0
 62
7
100
AcDbSpline
 70
8
 71
3
 72
8
 73
4
 74
0
 40
0
 40
0
 40
0
 40
0
 40
1
 40
1
 40
1
 40
1
 10
110.650968
 20
91.931892
 30
0.0
 10
108.308493
 20
92.219296
 30
0.0
 10
105.661787
 20
92.548370
 30
0.0
 10
102.787543
 20
92.845615
 30
0.0
  0
SPLINE
  5
132
100
AcDbEntity
  8
0
 62
7
100
AcDbSpline
 70
8
 71
3
 72
8
 73
4
 74
0
 40
0
 40
0
 40
0
 40
0
 40
1
 40
1
 40
1
 40
1
 10
102.787543
 20
92.845615
 30
0.0
 10
99.913302
 20
93.142860
 30
0.0
 10
96.812275
 20
93.407573
 30
0.0
 10
93.589464
 20
93.590140
 30
0.0
  0
SPLINE
  5
133
100
AcDbEntity
  8
0
 62
7
100
AcDbSpline
 70
8
 71
3
 72
8
 73
4
 74
0
 40
0
 40
0
 40
0
 40
0
 40
1
 40
1
 40
1
 40
1
 10
93.589464
 20
93.590140
 30
0.0
 10
90.366655
 20
93.772703
 30
0.0
 10
87.023033
 20
93.872737
 30
0.0
 10
83.678889
 20
93.872737
 30
0.0
  0
SPLINE
  5
134
100
AcDbEntity
  8
0
 62
7
100
AcDbSpline
 70
8
 71
3
 72
8
 73
4
 74
0
 40
0
 40
0
 40
0
 40
0
 40
1
 40
1
 40
1
 40
1
 10
83.678889
 20
93.872737
 30
0.0
 10
80.334745
 20
93.872737
 30
0.0
 10
76.991123
 20
93.772703
 30
0.0
 10
73.768311
 20
93.590140
 30
0.0
  0
SPLINE
  5
135
100
AcDbEntity
  8
0
 62
7
100
AcDbSpline
 70
8
 71
3
 72
8
 73
4
 74
0
 40
0
 40
0
 40
0
 40
0
 40
1
 40
1
 40
1
 40
1
 10
73.768311
 20
93.590140
 30
0.0
 10
70.545503
 20
93.407573
 30
0.0
 10
67.444476
 20
93.142860
 30
0.0
 10
64.570235
 20
92.845615
 30
0.0
  0
SPLINE
  5
136
100
AcDbEntity
  8
0
 62
7
100
AcDbSpline
 70
8
 71
3
 72
8
 73
4
 74
0
 40
0
 40
0
 40
0
 40
0
 40
1
 40
1
 40
1
 40
1
 10
64.570235
 20
92.845615
 30
0.0
 10
61.695990
 20
92.548370
 30
0.0
 10
59.049285
 20
92.219296
 30
0.0
 10
56.706810
 20
91.931892
 30
0.0
  0
SPLINE
  5
137
100
AcDbEntity
  8
0
 62
7
100
AcDbSpline
 70
8
 71
3
 72
8
 73
4
 74
0
 40
0
 40
0
 40
0
 40
0
 40
1
 40
1
 40
1
 40
1
 10
56.706810
 20
91.931892
 30
0.0
 10
54.364331
 20
91.644485
 30
0.0
 10
52.326503
 20
91.399669
 30
0.0
 10
50.632857
 20
91.282499
 30
0.0
  0
SPLINE
  5
138
100
AcDbEntity
  8
0
 62
7
100
AcDbSpline
 70
8
 71
3
 72
8
 73
4
 74
0
 40
0
 40
0
 40
0
 40
0
 40
1
 40
1
 40
1
 40
1
 10
50.632857
 20
91.282499
 30
0.0
 10
48.939210
 20
91.165329
 30
0.0
 10
47.589770
 20
91.176801
 30
0.0
 10
46.583515
 20
91.399065
 30
0.0
  0
SPLINE
  5
139
100
AcDbEntity
  8
0
 62
7
100
AcDbSpline
 70
8
 71
3
 72
8
 73
4
 74
0
 40
0
 40
0
 40
0
 40
0
 40
1
 40
1
 40
1
 40
1
 10
46.583515
 20
91.399065
 30
0.0
 10
45.577258
 20
91.621326
 30
0.0
 10
44.913824
 20
92.055291
 30
0.0
 10
44.554143
 20
92.765777
 30
0.0
  0
SPLINE
  5
13a
100
AcDbEntity
  8
0
 62
7
100
AcDbSpline
 70
8
 71
3
 72
8
 73
4
 74
0
 40
0
 40
0
 40
0
 40
0
 40
1
 40
1
 40
1
 40
1
 10
44.554143
 20
92.765777
 30
0.0
 10
44.194462
 20
93.476260
 30
0.0
 10
44.137845
 20
94.463956
 30
0.0
 10
44.315177
 20
95.764238
 30
0.0
  0
SPLINE
  5
13b
100
AcDbEntity
  8
0
 62
7
100
AcDbSpline
 70
8
 71
3
 72
8
 73
4
 74
0
 40
0
 40
0
 40
0
 40
0
 40
1
 40
1
 40
1
 40
1
 10
44.315177
 20
95.764238
 30
0.0
 10
44.492508
 20
97.064524
 30
0.0
 10
44.902876
 20
98.677751
 30
0.0
 10
45.459331
 20
100.601956
 30
0.0
  0
SPLINE
  5
13c
100
AcDbEntity
  8
0
 62
7
100
AcDbSpline
 70
8
 71
3
 72
8
 73
4
 74
0
 40
0
 40
0
 40
0
 40
0
 40
1
 40
1
 40
1
 40
1
 10
45.459331
 20
100.601956
 30
0.0
 10
46.015786
 20
102.526159
 30
0.0
 10
46.717334
 20
104.761302
 30
0.0
 10
47.473715
 20
107.265612
 30
0.0
  0
SPLINE
  5
13d
100
AcDbEntity
  8
0
 62
7
100
AcDbSpline
 70
8
 71
3
 72
8
 73
4
 74
0
 40
0
 40
0
 40
0
 40
0
 40
1
 40
1
 40
1
 40
1
 10
47.473715
 20
107.265612
 30
0.0
 10
48.230096
 20
109.769923
 30
0.0
 10
49.040384
 20
112.542979
 30
0.0
 10
49.825616
 20
115.506645
 30
0.0
  0
SPLINE
  5
13e
100
AcDbEntity
  8
0
 62
7
100
AcDbSpline
 70
8
 71
3
 72
8
 73
4
 74
0
 40
0
 40
0
 40
0
 40
0
 40
1
 40
1
 40
1
 40
1
 10
49.825616
 20
115.506645
 30
0.0
 10
50.610849
 20
118.470314
 30
0.0
 10
51.370312
 20
121.623846
 30
0.0
 10
52.048763
 20
124.861640
 30
0.0
  0
SPLINE
  5
13f
100
AcDbEntity
  8
0
 62
7
100
AcDbSpline
 70
8
 71
3
 72
8
 73
4
 74
0
 40
0
 40
0
 40
0
 40
0
 40
1
 40
1
 40
1
 40
1
 10
52.048763
 20
124.861640
 30
0.0
 10
52.727217
 20
128.099435
 30
0.0
 10
53.324266
 20
131.420519
 30
0.0
 10
53.816764
 20
134.704866
 30
0.0
  0
SPLINE
  5
140
100
AcDbEntity
  8
0
 62
7
100
AcDbSpline
 70
8
 71
3
 72
8
 73
4
 74
0
 40
0
 40
0
 40
0
 40
0
 40
1
 40
1
 40
1
 40
1
 10
53.816764
 20
134.704866
 30
0.0
 10
54.309258
 20
137.989210
 30
0.0
 10
54.697193
 20
141.235770
 30
0.0
 10
54.992518
 20
144.325355
 30
0.0
  0
SPLINE
  5
141
100
AcDbEntity
  8
0
 62
7
100
AcDbSpline
 70
8
 71
3
 72
8
 73
4
 74
0
 40
0
 40
0
 40
0
 40
0
 40
1
 40
1
 40
1
 40
1
 10
54.992518
 20
144.325355
 30
0.0
 10
55.287844
 20
147.414944
 30
0.0
 10
55.490940
 20
150.346592
 30
0.0
 10
55.646100
 20
153.017221
 30
0.0
  0
SPLINE
  5
142
100
AcDbEntity
  8
0
 62
7
100
AcDbSpline
 70
8
 71
3
 72
8
 73
4
 74
0
 40
0
 40
0
 40
0
 40
0
 40
1
 40
1
 40
1
 40
1
 10
55.646100
 20
153.017221
 30
0.0
 10
55.801260
 20
155.687854
 30
0.0
 10
55.909185
 20
158.096719
 30
0.0
 10
56.038397
 20
160.169833
 30
0.0
  0
SPLINE
  5
143
100
AcDbEntity
  8
0
 62
7
100
AcDbSpline
 70
8
 71
3
 72
8
 73
4
 74
0
 40
0
 40
0
 40
0
 40
0
 40
1
 40
1
 40
1
 40
1
 10
56.038397
 20
160.169833
 30
0.0
 10
56.167613
 20
162.242944
 30
0.0
 10
56.319028
 20
163.979887
 30
0.0
 10
56.573206
 20
165.344553
 30
0.0
  0
SPLINE
  5
144
100
AcDbEntity
  8
0
 62
7
100
AcDbSpline
 70
8
 71
3
 72
8
 73
4
 74
0
 40
0
 40
0
 40
0
 40
0
 40
1
 40
1
 40
1
 40
1
 10
56.573206
 20
165.344553
 30
0.0
 10
56.827383
 20
166.709216
 30
0.0
 10
57.185306
 20
167.701574
 30
0.0
 10
57.725186
 20
168.326719
 30
0.0
  0
SPLINE
  5
145
100
AcDbEntity
  8
0
 62
7
100
AcDbSpline
 70
8
 71
3
 72
8
 73
4
 74
0
 40
0
 40
0
 40
0
 40
0
 40
1
 40
1
 40
1
 40
1
 10
57.725186
 20
168.326719
 30
0.0
 10
58.265068
 20
168.951861
 30
0.0
 10
58.987811
 20
169.210156
 30
0.0
 10
59.954953
 20
169.145270
 30
0.0
  0
SPLINE
  5
146
100
AcDbEntity
  8
0
 62
7
100
AcDbSpline
 70
8
 71
3
 72
8
 73
4
 74
0
 40
0
 40
0
 40
0
 40
0
 40
1
 40
1
 40
1
 40
1
 10
59.954953
 20
169.145270
 30
0.0
 10
60.922098
 20
169.080385
 30
0.0
 10
62.134324
 20
168.693023
 30
0.0
 10
63.624463
 20
168.057343
 30
0.0
  0
SPLINE
  5
147
100
AcDbEntity
  8
0
 62
7
100
AcDbSpline
 70
8
 71
3
 72
8
 73
4
 74
0
 40
0
 40
0
 40
0
 40
0
 40
1
 40
1
 40
1
 40
1
 10
63.624463
 20
168.057343
 30
0.0
 10
65.114602
 20
167.421660
 30
0.0
 10
66.883003
 20
166.538584
 30
0.0
 10
68.925934
 20
165.500432
 30
0.0
  0
SPLINE
  5
148
100
AcDbEntity
  8
0
 62
7
100
AcDbSpline
 70
8
 71
3
 72
8
 73
4
 74
0
 40
0
 40
0
 40
0
 40
0
 40
1
 40
1
 40
1
 40
1
 10
68.925934
 20
165.500432
 30
0.0
 10
70.968864
 20
164.462278
 30
0.0
 10
73.286290
 20
163.270056
 30
0.0
 10
75.835496
 20
162.019597
 30
0.0
  0
SPLINE
  5
149
100
AcDbEntity
  8
0
 62
7
100
AcDbSpline
 70
8
 71
3
 72
8
 73
4
 74
0
 40
0
 40
0
 40
0
 40
0
 40
1
 40
1
 40
1
 40
1
 10
75.835496
 20
162.019597
 30
0.0
 10
78.384705
 20
160.769140
 30
0.0
 10
81.165274
 20
159.461379
 30
0.0
 10
84.098988
 20
158.180940
 30
0.0
  0
SPLINE
  5
14a
100
AcDbEntity
  8
0
 62
7
100
AcDbSpline
 70
8
 71
3
 72
8
 73
4
 74
0
 40
0
 40
0
 40
0
 40
0
 40
1
 40
1
 40
1
 40
1
 10
84.098988
 20
158.180940
 30
0.0
 10
87.032702
 20
156.900498
 30
0.0
 10
90.118811
 20
155.648097
 30
0.0
 10
93.252479
 20
154.484582
 30
0.0
  0
SPLINE
  5
14b
100
AcDbEntity
  8
0
 62
7
100
AcDbSpline
 70
8
 71
3
 72
8
 73
4
 74
0
 40
0
 40
0
 40
0
 40
0
 40
1
 40
1
 40
1
 40
1
 10
93.252479
 20
154.484582
 30
0.0
 10
96.386148
 20
153.321067
 30
0.0
 10
99.566408
 20
152.246837
 30
0.0
 10
102.674829
 20
151.290464
 30
0.0
  0
SPLINE
  5
14c
100
AcDbEntity
  8
0
 62
7
100
AcDbSpline
 70
8
 71
3
 72
8
 73
4
 74
0
 40
0
 40
0
 40
0
 40
0
 40
1
 40
1
 40
1
 40
1
 10
102.674829
 20
151.290464
 30
0.0
 10
105.783253
 20
150.334095
 30
0.0
 10
108.818790
 20
149.495602
 30
0.0
 10
111.664660
 20
148.768151
 30
0.0
  0
SPLINE
  5
14d
100
AcDbEntity
  8
0
 62
7
100
AcDbSpline
 70
8
 71
3
 72
8
 73
4
 74
0
 40
0
 40
0
 40
0
 40
0
 40
1
 40
1
 40
1
 40
1
 10
111.664660
 20
148.768151
 30
0.0
 10
114.510529
 20
148.040704
 30
0.0
 10
117.165766
 20
147.423930
 30
0.0
 10
119.530433
 20
146.878239
 30
0.0
  0
SPLINE
  5
14e
100
AcDbEntity
  8
0
 62
7
100
AcDbSpline
 70
8
 71
3
 72
8
 73
4
 74
0
 40
0
 40
0
 40
0
 40
0
 40
1
 40
1
 40
1
 40
1
 10
119.530433
 20
146.878239
 30
0.0
 10
121.895102
 20
146.332545
 30
0.0
 10
123.968459
 20
145.857244
 30
0.0
 10
125.680332
 20
145.387979
 30
0.0
  0
SPLINE
  5
14f
100
AcDbEntity
  8
0
 62
7
100
AcDbSpline
 70
8
 71
3
 72
8
 73
4
 74
0
 40
0
 40
0
 40
0
 40
0
 40
1
 40
1
 40
1
 40
1
 10
125.680332
 20
145.387979
 30
0.0
 10
127.392204
 20
144.918714
 30
0.0
 10
128.742180
 20
144.454585
 30
0.0
 10
129.698550
 20
143.918583
 30
0.0
  0
SPLINE
  5
150
100
AcDbEntity
  8
0
 62
7
100
AcDbSpline
 70
8
 71
3
 72
8
 73
4
 74
0
 40
0
 40
0
 40
0
 40
0
 40
1
 40
1
 40
1
 40
1
 10
129.698550
 20
143.918583
 30
0.0
 10
130.654922
 20
143.382581
 30
0.0
 10
131.217667
 20
142.773729
 30
0.0
 10
131.396760
 20
142.016665
 30
0.0
  0
SPLINE
  5
151
100
AcDbEntity
  8
0
 62
7
100
AcDbSpline
 70
8
 71
3
 72
8
 73
4
 74
0
 40
0
 40
0
 40
0
 40
0
 40
1
 40
1
 40
1
 40
1
 10
131.396760
 20
142.016665
 30
0.0
 10
131.575855
 20
141.259601
 30
0.0
 10
131.371670
 20
140.353425
 30
0.0
 10
130.833134
 20
139.238687
 30
0.0
  0
SPLINE
  5
152
100
AcDbEntity
  8
0
 62
7
100
AcDbSpline
 70
8
 71
3
 72
8
 73
4
 74
0
 40
0
 40
0
 40
0
 40
0
 40
1
 40
1
 40
1
 40
1
 10
130.833134
 20
139.238687
 30
0.0
 10
130.294600
 20
138.123948
 30
0.0
 10
129.422426
 20
136.799965
 30
0.0
 10
128.296278
 20
135.235178
 30
0.0
  0
SPLINE
  5
153
100
AcDbEntity
  8
0
 62
7
100
AcDbSpline
 70
8
 71
3
 72
8
 73
4
 74
0
 40
0
 40
0
 40
0
 40
0
 40
1
 40
1
 40
1
 40
1
 10
128.296278
 20
135.235178
 30
0.0
 10
127.170132
 20
133.670394
 30
0.0
 10
125.790946
 20
131.864454
 30
0.0
 10
124.256679
 20
129.821524
 30
0.0
  0
SPLINE
  5
154
100
AcDbEntity
  8
0
 62
7
100
AcDbSpline
 70
8
 71
3
 72
8
 73
4
 74
0
 40
0
 40
0
 40
0
 40
0
 40
1
 40
1
 40
1
 40
1
 10
124.256679
 20
129.821524
 30
0.0
 10
122.722414
 20
127.778593
 30
0.0
 10
121.034082
 20
125.498706
 30
0.0
 10
119.293157
 20
123.024145
 30
0.0
  0
SPLINE
  5
155
100
AcDbEntity
  8
0
 62
7
100
AcDbSpline
 70
8
 71
3
 72
8
 73
4
 74
0
 40
0
 40
0
 40
0
 40
0
 40
1
 40
1
 40
1
 40
1
 10
119.293157
 20
123.024145
 30
0.0
 10
117.552233
 20
120.549584
 30
0.0
 10
115.759662
 20
117.880772
 30
0.0
 10
114.005572
 20
115.094654
 30
0.0
  0
SPLINE
  5
156
100
AcDbEntity
  8
0
 62
7
100
AcDbSpline
 70
8
 71
3
 72
8
 73
4
 74
0
 40
0
 40
0
 40
0
 40
0
 40
1
 40
1
 40
1
 40
1
 10
114.005572
 20
115.094654
 30
0.0
 10
112.251479
 20
112.308534
 30
0.0
 10
110.536601
 20
109.405859
 30
0.0
 10
108.927036
 20
106.489372
 30
0.0
  0
SPLINE
  5
157
100
AcDbEntity
  8
0
 62
7
100
AcDbSpline
 70
8
 71
3
 72
8
 73
4
 74
0
 40
0
 40
0
 40
0
 40
0
 40
1
 40
1
 40
1
 40
1
 10
108.927036
 20
106.489372
 30
0.0
 10
107.317472
 20
103.572884
 30
0.0
 10
105.813626
 20
100.643553
 30
0.0
 10
104.448963
 20
97.816956
 30
0.0
  0
SPLINE
  5
158
100
AcDbEntity
  8
0
 62
7
100
AcDbSpline
 70
8
 71
3
 72
8
 73
4
 74
0
 40
0
 40
0
 40
0
 40
0
 40
1
 40
1
 40
1
 40
1
 10
104.448963
 20
97.816956
 30
0.0
 10
103.084300
 20
94.990360
 30
0.0
 10
101.858840
 20
92.267536
 30
0.0
 10
100.770151
 20
89.761716
 30
0.0
  0
SPLINE
  5
159
100
AcDbEntity
  8
0
 62
7
100
AcDbSpline
 70
8
 71
3
 72
8
 73
4
 74
0
 40
0
 40
0
 40
0
 40
0
 40
1
 40
1
 40
1
 40
1
 10
100.770151
 20
89.761716
 30
0.0
 10
99.681459
 20
87.255896
 30
0.0
 10
98.729179
 20
84.968039
 30
0.0
 10
97.877523
 20
82.993903
 30
0.0
  0
SPLINE
  5
15a
100
AcDbEntity
  8
0
 62
7
100
AcDbSpline
 70
8
 71
3
 72
8
 73
4
 74
0
 40
0
 40
0
 40
0
 40
0
 40
1
 40
1
 40
1
 40
1
 10
97.877523
 20
82.993903
 30
0.0
 10
97.025869
 20
81.019767
 30
0.0
 10
96.274153
 20
79.360089
 30
0.0
 10
95.561173
 20
78.080341
 30
0.0
  0
SPLINE
  5
15b
100
AcDbEntity
  8
0
 62
7
100
AcDbSpline
 70
8
 71
3
 72
8
 73
4
 74
0
 40
0
 40
0
 40
0
 40
0
 40
1
 40
1
 40
1
 40
1
 10
95.561173
 20
78.080341
 30
0.0
 10
94.848192
 20
76.800590
 30
0.0
 10
94.173040
 20
75.901173
 30
0.0
 10
93.461115
 20
75.408676
 30
0.0
  0
SPLINE
  5
15c
100
AcDbEntity
  8
0
 62
7
100
AcDbSpline
 70
8
 71
3
 72
8
 73
4
 74
0
 40
0
 40
0
 40
0
 40
0
 40
1
 40
1
 40
1
 40
1
 10
93.461115
 20
75.408676
 30
0.0
 10
92.749187
 20
74.916181
 30
0.0
 10
91.999508
 20
74.830614
 30
0.0
 10
91.138321
 20
75.136585
 30
0.0
  0
SPLINE
  5
15d
100
AcDbEntity
  8
0
 62
7
100
AcDbSpline
 70
8
 71
3
 72
8
 73
4
 74
0
 40
0
 40
0
 40
0
 40
0
 40
1
 40
1
 40
1
 40
1
 10
91.138321
 20
75.136585
 30
0.0
 10
90.277132
 20
75.442556
 30
0.0
 10
89.303535
 20
76.139679
 30
0.0
 10
88.158842
 20
77.173420
 30
0.0
  0
SPLINE
  5
15e
100
AcDbEntity
  8
0
 62
7
100
AcDbSpline
 70
8
 71
3
 72
8
 73
4
 74
0
 40
0
 40
0
 40
0
 40
0
 40
1
 40
1
 40
1
 40
1
 10
88.158842
 20
77.173420
 30
0.0
 10
87.014149
 20
78.207163
 30
0.0
 10
85.697678
 20
79.576807
 30
0.0
 10
84.177790
 20
81.197034
 30
0.0
  0
SPLINE
  5
15f
100
AcDbEntity
  8
0
 62
7
100
AcDbSpline
 70
8
 71
3
 72
8
 73
4
 74
0
 40
0
 40
0
 40
0
 40
0
 40
1
 40
1
 40
1
 40
1
 10
84.177790
 20
81.197034
 30
0.0
 10
82.657905
 20
82.817257
 30
0.0
 10
80.934244
 20
84.687118
 30
0.0
 10
79.010042
 20
86.703082
 30
0.0
  0
SPLINE
  5
160
100
AcDbEntity
  8
0
 62
7
100
AcDbSpline
 70
8
 71
3
 72
8
 73
4
 74
0
 40
0
 40
0
 40
0
 40
0
 40
1
 40
1
 40
1
 40
1
 10
79.010042
 20
86.703082
 30
0.0
 10
77.085839
 20
88.719046
 30
0.0
 10
74.961123
 20
90.880087
 30
0.0
 10
72.676419
 20
93.079362
 30
0.0
  0
SPLINE
  5
161
100
AcDbEntity
  8
0
 62
7
100
AcDbSpline
 70
8
 71
3
 72
8
 73
4
 74
0
 40
0
 40
0
 40
0
 40
0
 40
1
 40
1
 40
1
 40
1
 10
72.676419
 20
93.079362
 30
0.0
 10
70.391711
 20
95.278636
 30
0.0
 10
67.947433
 20
97.515187
 30
0.0
 10
65.417971
 20
99.693841
 30
0.0
  0
SPLINE
  5
162
100
AcDbEntity
  8
0
 62
7
100
AcDbSpline
 70
8
 71
3
 72
8
 73
4
 74
0
 40
0
 40
0
 40
0
 40
0
 40
1
 40
1
 40
1
 40
1
 10
65.417971
 20
99.693841
 30
0.0
 10
62.888512
 20
101.872498
 30
0.0
 10
60.274612
 20
103.992518
 30
0.0
 10
57.675746
 20
105.983197
 30
0.0
  0
SPLINE
  5
163
100
AcDbEntity
  8
0
 62
7
100
AcDbSpline
 70
8
 71
3
 72
8
 73
4
 74
0
 40
0
 40
0
 40
0
 40
0
 40
1
 40
1
 40
1
 40
1
 10
57.675746
 20
105.983197
 30
0.0
 10
55.076877
 20
107.973875
 30
0.0
 10
52.493997
 20
109.834797
 30
0.0
 10
50.038748
 20
111.528446
 30
0.0
  0
SPLINE
  5
164
100
AcDbEntity
  8
0
 62
7
100
AcDbSpline
 70
8
 71
3
 72
8
 73
4
 74
0
 40
0
 40
0
 40
0
 40
0
 40
1
 40
1
 40
1
 40
1
 10
50.038748
 20
111.528446
 30
0.0
 10
47.583496
 20
113.222093
 30
0.0
 10
45.256907
 20
114.748436
 30
0.0
 10
43.167706
 20
116.106492
 30
0.0
  0
SPLINE
  5
165
100
AcDbEntity
  8
0
 62
7
100
AcDbSpline
 70
8
 71
3
 72
8
 73
4
 74
0
 40
0
 40
0
 40
0
 40
0
 40
1
 40
1
 40
1
 40
1
 10
43.167706
 20
116.106492
 30
0.0
 10
41.078506
 20
117.464545
 30
0.0
 10
39.227644
 20
118.654668
 30
0.0
 10
37.705916
 20
119.709933
 30
0.0
  0
SPLINE
  5
166
100
AcDbEntity
  8
0
 62
7
100
AcDbSpline
 70
8
 71
3
 72
8
 73
4
 74
0
 40
0
 40
0
 40
0
 40
0
 40
1
 40
1
 40
1
 40
1
 10
37.705916
 20
119.709933
 30
0.0
 10
36.184185
 20
120.765199
 30
0.0
 10
34.992313
 20
121.686293
 30
0.0
 10
34.190457
 20
122.532497
 30
0.0
  0
SPLINE
  5
167
100
AcDbEntity
  8
0
 62
7
100
AcDbSpline
 70
8
 71
3
 72
8
 73
4
 74
0
 40
0
 40
0
 40
0
 40
0
 40
1
 40
1
 40
1
 40
1
 10
34.190457
 20
122.532497
 30
0.0
 10
33.388599
 20
123.378701
 30
0.0
 10
32.977147
 20
124.150914
 30
0.0
 10
32.977147
 20
124.922640
 30
0.0
  0
SPLINE
  5
168
100
AcDbEntity
  8
0
 62
7
100
AcDbSpline
 70
8
 71
3
 72
8
 73
4
 74
0
 40
0
 40
0
 40
0
 40
0
 40
1
 40
1
 40
1
 40
1
 10
32.977147
 20
124.922640
 30
0.0
 10
32.977147
 20
125.694365
 30
0.0
 10
33.388599
 20
126.466582
 30
0.0
 10
34.190457
 20
127.312785
 30
0.0
  0
SPLINE
  5
169
100
AcDbEntity
  8
0
 62
7
100
AcDbSpline
 70
8
 71
3
 72
8
 73
4
 74
0
 40
0
 40
0
 40
0
 40
0
 40
1
 40
1
 40
1
 40
1
 10
34.190457
 20
127.312785
 30
0.0
 10
34.992313
 20
128.158989
 30
0.0
 10
36.184185
 20
129.080084
 30
0.0
 10
37.705916
 20
130.135349
 30
0.0
  0
SPLINE
  5
16a
100
AcDbEntity
  8
0
 62
7
100
AcDbSpline
 70
8
 71
3
 72
8
 73
4
 74
0
 40
0
 40
0
 40
0
 40
0
 40
1
 40
1
 40
1
 40
1
 10
37.705916
 20
130.135349
 30
0.0
 10
39.227644
 20
131.190615
 30
0.0
 10
41.078506
 20
132.380735
 30
0.0
 10
43.167706
 20
133.738791
 30
0.0
  0
SPLINE
  5
16b
100
AcDbEntity
  8
0
 62
7
100
AcDbSpline
 70
8
 71
3
 72
8
 73
4
 74
0
 40
0
 40
0
 40
0
 40
0
 40
1
 40
1
 40
1
 40
1
 10
43.167706
 20
133.738791
 30
0.0
 10
45.256907
 20
135.096844
 30
0.0
 10
47.583496
 20
136.623186
 30
0.0
 10
50.038748
 20
138.316836
 30
0.0
  0
SPLINE
  5
16c
100
AcDbEntity
  8
0
 62
7
100
AcDbSpline
 70
8
 71
3
 72
8
 73
4
 74
0
 40
0
 40
0
 40
0
 40
0
 40
1
 40
1
 40
1
 40
1
 10
50.038748
 20
138.316836
 30
0.0
 10
52.493997
 20
140.010482
 30
0.0
 10
55.076877
 20
141.871405
 30
0.0
 10
57.675746
 20
143.862085
 30
0.0
  0
SPLINE
  5
16d
100
AcDbEntity
  8
0
 62
7
100
AcDbSpline
 70
8
 71
3
 72
8
 73
4
 74
0
 40
0
 40
0
 40
0
 40
0
 40
1
 40
1
 40
1
 40
1
 10
57.675746
 20
143.862085
 30
0.0
 10
60.274612
 20
145.852762
 30
0.0
 10
62.888512
 20
147.972784
 30
0.0
 10
65.417971
 20
150.151438
 30
0.0
  0
SPLINE
  5
16e
100
AcDbEntity
  8
0
 62
7
100
AcDbSpline
 70
8
 71
3
 72
8
 73
4
 74
0
 40
0
 40
0
 40
0
 40
0
 40
1
 40
1
 40
1
 40
1
 10
65.417971
 20
150.151438
 30
0.0
 10
67.947433
 20
152.330095
 30
0.0
 10
70.391711
 20
154.566647
 30
0.0
 10
72.676419
 20
156.765920
 30
0.0
  0
SPLINE
  5
16f
100
AcDbEntity
  8
0
 62
7
100
AcDbSpline
 70
8
 71
3
 72
8
 73
4
 74
0
 40
0
 40
0
 40
0
 40
0
 40
1
 40
1
 40
1
 40
1
 10
72.676419
 20
156.765920
 30
0.0
 10
74.961123
 20
158.965193
 30
0.0
 10
77.085839
 20
161.126233
 30
0.0
 10
79.010042
 20
163.142198
 30
0.0
  0
SPLINE
  5
170
100
AcDbEntity
  8
0
 62
7
100
AcDbSpline
 70
8
 71
3
 72
8
 73
4
 74
0
 40
0
 40
0
 40
0
 40
0
 40
1
 40
1
 40
1
 40
1
 10
79.010042
 20
163.142198
 30
0.0
 10
80.934244
 20
165.158162
 30
0.0
 10
82.657905
 20
167.028022
 30
0.0
 10
84.177790
 20
168.648249
 30
0.0
  0
SPLINE
  5
171
100
AcDbEntity
  8
0
 62
7
100
AcDbSpline
 70
8
 71
3
 72
8
 73
4
 74
0
 40
0
 40
0
 40
0
 40
0
 40
1
 40
1
 40
1
 40
1
 10
84.177790
 20
168.648249
 30
0.0
 10
85.697678
 20
170.268472
 30
0.0
 10
87.014149
 20
171.638117
 30
0.0
 10
88.158842
 20
172.671860
 30
0.0
  0
SPLINE
  5
172
100
AcDbEntity
  8
0
 62
7
100
AcDbSpline
 70
8
 71
3
 72
8
 73
4
 74
0
 40
0
 40
0
 40
0
 40
0
 40
1
 40
1
 40
1
 40
1
 10
88.158842
 20
172.671860
 30
0.0
 10
89.303535
 20
173.705603
 30
0.0
 10
90.277132
 20
174.402726
 30
0.0
 10
91.138321
 20
174.708697
 30
0.0
  0
SPLINE
  5
173
100
AcDbEntity
  8
0
 62
7
100
AcDbSpline
 70
8
 71
3
 72
8
 73
4
 74
0
 40
0
 40
0
 40
0
 40
0
 40
1
 40
1
 40
1
 40
1
 10
91.138321
 20
174.708697
 30
0.0
 10
91.999508
 20
175.014666
 30
0.0
 10
92.749187
 20
174.929101
 30
0.0
 10
93.461115
 20
174.436604
 30
0.0
  0
SPLINE
  5
174
100
AcDbEntity
  8
0
 62
7
100
AcDbSpline
 70
8
 71
3
 72
8
 73
4
 74
0
 40
0
 40
0
 40
0
 40
0
 40
1
 40
1
 40
1
 40
1
 10
93.461115
 20
174.436604
 30
0.0
 10
94.173040
 20
173.944109
 30
0.0
 10
94.848192
 20
173.044690
 30
0.0
 10
95.561173
 20
171.764942
 30
0.0
  0
SPLINE
  5
175
100
AcDbEntity
  8
0
 62
7
100
AcDbSpline
 70
8
 71
3
 72
8
 73
4
 74
0
 40
0
 40
0
 40
0
 40
0
 40
1
 40
1
 40
1
 40
1
 10
95.561173
 20
171.764942
 30
0.0
 10
96.274153
 20
170.485191
 30
0.0
 10
97.025869
 20
168.825512
 30
0.0
 10
97.877523
 20
166.851376
 30
0.0
  0
SPLINE
  5
176
100
AcDbEntity
  8
0
 62
7
100
AcDbSpline
 70
8
 71
3
 72
8
 73
4
 74
0
 40
0
 40
0
 40
0
 40
0
 40
1
 40
1
 40
1
 40
1
 10
97.877523
 20
166.851376
 30
0.0
 10
98.729179
 20
164.877241
 30
0.0
 10
99.681459
 20
162.589383
 30
0.0
 10
100.770151
 20
160.083563
 30
0.0
  0
SPLINE
  5
177
100
AcDbEntity
  8
0
 62
7
100
AcDbSpline
 70
8
 71
3
 72
8
 73
4
 74
0
 40
0
 40
0
 40
0
 40
0
 40
1
 40
1
 40
1
 40
1
 10
100.770151
 20
160.083563
 30
0.0
 10
101.858840
 20
157.577743
 30
0.0
 10
103.084300
 20
154.854920
 30
0.0
 10
104.448963
 20
152.028323
 30
0.0
  0
SPLINE
  5
178
100
AcDbEntity
  8
0
 62
7
100
AcDbSpline
 70
8
 71
3
 72
8
 73
4
 74
0
 40
0
 40
0
 40
0
 40
0
 40
1
 40
1
 40
1
 40
1
 10
104.448963
 20
152.028323
 30
0.0
 10
105.813626
 20
149.201726
 30
0.0
 10
107.317472
 20
146.272398
 30
0.0
 10
108.927036
 20
143.355911
 30
0.0
  0
SPLINE
  5
179
100
AcDbEntity
  8
0
 62
7
100
AcDbSpline
 70
8
 71
3
 72
8
 73
4
 74
0
 40
0
 40
0
 40
0
 40
0
 40
1
 40
1
 40
1
 40
1
 10
108.927036
 20
143.355911
 30
0.0
 10
110.536601
 20
140.439424
 30
0.0
 10
112.251479
 20
137.536745
 30
0.0
 10
114.005572
 20
134.750628
 30
0.0
  0
SPLINE
  5
17a
100
AcDbEntity
  8
0
 62
7
100
AcDbSpline
 70
8
 71
3
 72
8
 73
4
 74
0
 40
0
 40
0
 40
0
 40
0
 40
1
 40
1
 40
1
 40
1
 10
114.005572
 20
134.750628
 30
0.0
 10
115.759662
 20
131.964508
 30
0.0
 10
117.552233
 20
129.295696
 30
0.0
 10
119.293157
 20
126.821135
 30
0.0
  0
SPLINE
  5
17b
100
AcDbEntity
  8
0
 62
7
100
AcDbSpline
 70
8
 71
3
 72
8
 73
4
 74
0
 40
0
 40
0
 40
0
 40
0
 40
1
 40
1
 40
1
 40
1
 10
119.293157
 20
126.821135
 30
0.0
 10
121.034082
 20
124.346576
 30
0.0
 10
122.722414
 20
122.066689
 30
0.0
 10
124.256679
 20
120.023759
 30
0.0
  0
SPLINE
  5
17c
100
AcDbEntity
  8
0
 62
7
100
AcDbSpline
 70
8
 71
3
 72
8
 73
4
 74
0
 40
0
 40
0
 40
0
 40
0
 40
1
 40
1
 40
1
 40
1
 10
124.256679
 20
120.023759
 30
0.0
 10
125.790946
 20
117.980828
 30
0.0
 10
127.170132
 20
116.174888
 30
0.0
 10
128.296278
 20
114.610101
 30
0.0
  0
SPLINE
  5
17d
100
AcDbEntity
  8
0
 62
7
100
AcDbSpline
 70
8
 71
3
 72
8
 73
4
 74
0
 40
0
 40
0
 40
0
 40
0
 40
1
 40
1
 40
1
 40
1
 10
128.296278
 20
114.610101
 30
0.0
 10
129.422426
 20
113.045315
 30
0.0
 10
130.294600
 20
111.721334
 30
0.0
 10
130.833134
 20
110.606593
 30
0.0
  0
SPLINE
  5
17e
100
AcDbEntity
  8
0
 62
7
100
AcDbSpline
 70
8
 71
3
 72
8
 73
4
 74
0
 40
0
 40
0
 40
0
 40
0
 40
1
 40
1
 40
1
 40
1
 10
130.833134
 20
110.606593
 30
0.0
 10
131.371670
 20
109.491855
 30
0.0
 10
131.575855
 20
108.585679
 30
0.0
 10
131.396760
 20
107.828618
 30
0.0
  0
SPLINE
  5
17f
100
AcDbEntity
  8
0
 62
7
100
AcDbSpline
 70
8
 71
3
 72
8
 73
4
 74
0
 40
0
 40
0
 40
0
 40
0
 40
1
 40
1
 40
1
 40
1
 10
131.396760
 20
107.828618
 30
0.0
 10
131.217667
 20
107.071554
 30
0.0
 10
130.654922
 20
106.462702
 30
0.0
 10
129.698550
 20
105.926699
 30
0.0
  0
SPLINE
  5
180
100
AcDbEntity
  8
0
 62
7
100
AcDbSpline
 70
8
 71
3
 72
8
 73
4
 74
0
 40
0
 40
0
 40
0
 40
0
 40
1
 40
1
 40
1
 40
1
 10
129.698550
 20
105.926699
 30
0.0
 10
128.742180
 20
105.390697
 30
0.0
 10
127.392204
 20
104.926566
 30
0.0
 10
125.680332
 20
104.457304
 30
0.0
  0
SPLINE
  5
181
100
AcDbEntity
  8
0
 62
7
100
AcDbSpline
 70
8
 71
3
 72
8
 73
4
 74
0
 40
0
 40
0
 40
0
 40
0
 40
1
 40
1
 40
1
 40
1
 10
125.680332
 20
104.457304
 30
0.0
 10
123.968459
 20
103.988039
 30
0.0
 10
121.895102
 20
103.512737
 30
0.0
 10
119.530433
 20
102.967043
 30
0.0
  0
SPLINE
  5
182
100
AcDbEntity
  8
0
 62
7
100
AcDbSpline
 70
8
 71
3
 72
8
 73
4
 74
0
 40
0
 40
0
 40
0
 40
0
 40
1
 40
1
 40
1
 40
1
 10
119.530433
 20
102.967043
 30
0.0
 10
117.165766
 20
102.421350
 30
0.0
 10
114.510529
 20
101.804579
 30
0.0
 10
111.664660
 20
101.077128
 30
0.0
  0
SPLINE
  5
183
100
AcDbEntity
  8
0
 62
7
100
AcDbSpline
 70
8
 71
3
 72
8
 73
4
 74
0
 40
0
 40
0
 40
0
 40
0
 40
1
 40
1
 40
1
 40
1
 10
111.664660
 20
101.077128
 30
0.0
 10
108.818790
 20
100.349681
 30
0.0
 10
105.783253
 20
99.511187
 30
0.0
 10
102.674829
 20
98.554815
 30
0.0
  0
SPLINE
  5
184
100
AcDbEntity
  8
0
 62
7
100
AcDbSpline
 70
8
 71
3
 72
8
 73
4
 74
0
 40
0
 40
0
 40
0
 40
0
 40
1
 40
1
 40
1
 40
1
 10
102.674829
 20
98.554815
 30
0.0
 10
99.566408
 20
97.598446
 30
0.0
 10
96.386148
 20
96.524215
 30
0.0
 10
93.252479
 20
95.360697
 30
0.0
  0
SPLINE
  5
185
100
AcDbEntity
  8
0
 62
7
100
AcDbSpline
 70
8
 71
3
 72
8
 73
4
 74
0
 40
0
 40
0
 40
0
 40
0
 40
1
 40
1
 40
1
 40
1
 10
93.252479
 20
95.360697
 30
0.0
 10
90.118811
 20
94.197183
 30
0.0
 10
87.032702
 20
92.944782
 30
0.0
 10
84.098988
 20
91.664343
 30
0.0
  0
SPLINE
  5
186
100
AcDbEntity
  8
0
 62
7
100
AcDbSpline
 70
8
 71
3
 72
8
 73
4
 74
0
 40
0
 40
0
 40
0
 40
0
 40
1
 40
1
 40
1
 40
1
 10
84.098988
 20
91.664343
 30
0.0
 10
81.165274
 20
90.383900
 30
0.0
 10
78.384705
 20
89.076142
 30
0.0
 10
75.835496
 20
87.825683
 30
0.0
  0
SPLINE
  5
187
100
AcDbEntity
  8
0
 62
7
100
AcDbSpline
 70
8
 71
3
 72
8
 73
4
 74
0
 40
0
 40
0
 40
0
 40
0
 40
1
 40
1
 40
1
 40
1
 10
75.835496
 20
87.825683
 30
0.0
 10
73.286290
 20
86.575224
 30
0.0
 10
70.968864
 20
85.383002
 30
0.0
 10
68.925934
 20
84.344850
 30
0.0
  0
SPLINE
  5
188
100
AcDbEntity
  8
0
 62
7
100
AcDbSpline
 70
8
 71
3
 72
8
 73
4
 74
0
 40
0
 40
0
 40
0
 40
0
 40
1
 40
1
 40
1
 40
1
 10
68.925934
 20
84.344850
 30
0.0
 10
66.883003
 20
83.306696
 30
0.0
 10
65.114602
 20
82.423619
 30
0.0
 10
63.624463
 20
81.787939
 30
0.0
  0
SPLINE
  5
189
100
AcDbEntity
  8
0
 62
7
100
AcDbSpline
 70
8
 71
3
 72
8
 73
4
 74
0
 40
0
 40
0
 40
0
 40
0
 40
1
 40
1
 40
1
 40
1
 10
63.624463
 20
81.787939
 30
0.0
 10
62.134324
 20
81.152256
 30
0.0
 10
60.922098
 20
80.764895
 30
0.0
 10
59.954953
 20
80.700012
 30
0.0
  0
SPLINE
  5
18a
100
AcDbEntity
  8
0
 62
7
100
AcDbSpline
 70
8
 71
3
 72
8
 73
4
 74
0
 40
0
 40
0
 40
0
 40
0
 40
1
 40
1
 40
1
 40
1
 10
59.954953
 20
80.700012
 30
0.0
 10
58.987811
 20
80.635126
 30
0.0
 10
58.265068
 20
80.893419
 30
0.0
 10
57.725186
 20
81.518564
 30
0.0
  0
SPLINE
  5
18b
100
AcDbEntity
  8
0
 62
7
100
AcDbSpline
 70
8
 71
3
 72
8
 73
4
 74
0
 40
0
 40
0
 40
0
 40
0
 40
1
 40
1
 40
1
 40
1
 10
57.725186
 20
81.518564
 30
0.0
 10
57.185306
 20
82.143706
 30
0.0
 10
56.827383
 20
83.136067
 30
0.0
 10
56.573206
 20
84.500730
 30
0.0
  0
SPLINE
  5
18c
100
AcDbEntity
  8
0
 62
7
100
AcDbSpline
 70
8
 71
3
 72
8
 73
4
 74
0
 40
0
 40
0
 40
0
 40
0
 40
1
 40
1
 40
1
 40
1
 10
56.573206
 20
84.500730
 30
0.0
 10
56.319028
 20
85.865393
 30
0.0
 10
56.167613
 20
87.602338
 30
0.0
 10
56.038397
 20
89.675449
 30
0.0
  0
SPLINE
  5
18d
100
AcDbEntity
  8
0
 62
7
100
AcDbSpline
 70
8
 71
3
 72
8
 73
4
 74
0
 40
0
 40
0
 40
0
 40
0
 40
1
 40
1
 40
1
 40
1
 10
56.038397
 20
89.675449
 30
0.0
 10
55.909185
 20
91.748561
 30
0.0
 10
55.801260
 20
94.157429
 30
0.0
 10
55.646100
 20
96.828058
 30
0.0
  0
SPLINE
  5
18e
100
AcDbEntity
  8
0
 62
7
100
AcDbSpline
 70
8
 71
3
 72
8
 73
4
 74
0
 40
0
 40
0
 40
0
 40
0
 40
1
 40
1
 40
1
 40
1
 10
55.646100
 20
96.828058
 30
0.0
 10
55.490940
 20
99.498688
 30
0.0
 10
55.287844
 20
102.430336
 30
0.0
 10
54.992518
 20
105.519924
 30
0.0
  0
SPLINE
  5
18f
100
AcDbEntity
  8
0
 62
7
100
AcDbSpline
 70
8
 71
3
 72
8
 73
4
 74
0
 40
0
 40
0
 40
0
 40
0
 40
1
 40
1
 40
1
 40
1
 10
54.992518
 20
105.519924
 30
0.0
 10
54.697193
 20
108.609512
 30
0.0
 10
54.309258
 20
111.856070
 30
0.0
 10
53.816764
 20
115.140417
 30
0.0
  0
SPLINE
  5
190
100
AcDbEntity
  8
0
 62
7
100
AcDbSpline
 70
8
 71
3
 72
8
 73
4
 74
0
 40
0
 40
0
 40
0
 40
0
 40
1
 40
1
 40
1
 40
1
 10
53.816764
 20
115.140417
 30
0.0
 10
53.324266
 20
118.424761
 30
0.0
 10
52.727217
 20
121.745848
 30
0.0
 10
52.048763
 20
124.983642
 30
0.0
  0
SPLINE
  5
191
100
AcDbEntity
  8
0
 62
7
100
AcDbSpline
 70
8
 71
3
 72
8
 73
4
 74
0
 40
0
 40
0
 40
0
 40
0
 40
1
 40
1
 40
1
 40
1
 10
52.048763
 20
124.983642
 30
0.0
 10
51.370312
 20
128.221434
 30
0.0
 10
50.610849
 20
131.374965
 30
0.0
 10
49.825616
 20
134.338634
 30
0.0
  0
SPLINE
  5
192
100
AcDbEntity
  8
0
 62
7
100
AcDbSpline
 70
8
 71
3
 72
8
 73
4
 74
0
 40
0
 40
0
 40
0
 40
0
 40
1
 40
1
 40
1
 40
1
 10
49.825616
 20
134.338634
 30
0.0
 10
49.040384
 20
137.302303
 30
0.0
 10
48.230096
 20
140.075360
 30
0.0
 10
47.473715
 20
142.579667
 30
0.0
  0
SPLINE
  5
193
100
AcDbEntity
  8
0
 62
7
100
AcDbSpline
 70
8
 71
3
 72
8
 73
4
 74
0
 40
0
 40
0
 40
0
 40
0
 40
1
 40
1
 40
1
 40
1
 10
47.473715
 20
142.579667
 30
0.0
 10
46.717334
 20
145.083977
 30
0.0
 10
46.015786
 20
147.319124
 30
0.0
 10
45.459331
 20
149.243326
 30
0.0
  0
SPLINE
  5
194
100
AcDbEntity
  8
0
 62
7
100
AcDbSpline
 70
8
 71
3
 72
8
 73
4
 74
0
 40
0
 40
0
 40
0
 40
0
 40
1
 40
1
 40
1
 40
1
 10
45.459331
 20
149.243326
 30
0.0
 10
44.902876
 20
151.167528
 30
0.0
 10
44.492508
 20
152.780759
 30
0.0
 10
44.315177
 20
154.081041
 30
0.0
  0
SPLINE
  5
195
100
AcDbEntity
  8
0
 62
7
100
AcDbSpline
 70
8
 71
3
 72
8
 73
4
 74
0
 40
0
 40
0
 40
0
 40
0
 40
1
 40
1
 40
1
 40
1
 10
44.315177
 20
154.081041
 30
0.0
 10
44.137845
 20
155.381326
 30
0.0
 10
44.194462
 20
156.369019
 30
0.0
 10
44.554143
 20
157.079505
 30
0.0
  0
SPLINE
  5
196
100
AcDbEntity
  8
0
 62
7
100
AcDbSpline
 70
8
 71
3
 72
8
 73
4
 74
0
 40
0
 40
0
 40
0
 40
0
 40
1
 40
1
 40
1
 40
1
 10
44.554143
 20
157.079505
 30
0.0
 10
44.913824
 20
157.789991
 30
0.0
 10
45.577258
 20
158.223953
 30
0.0
 10
46.583515
 20
158.446217
 30
0.0
  0
SPLINE
  5
197
100
AcDbEntity
  8
0
 62
7
100
AcDbSpline
 70
8
 71
3
 72
8
 73
4
 74
0
 40
0
 40
0
 40
0
 40
0
 40
1
 40
1
 40
1
 40
1
 10
46.583515
 20
158.446217
 30
0.0
 10
47.589770
 20
158.668479
 30
0.0
 10
48.939210
 20
158.679951
 30
0.0
 10
50.632857
 20
158.562784
 30
0.0
  0
SPLINE
  5
198
100
AcDbEntity
  8
0
 62
7
100
AcDbSpline
 70
8
 71
3
 72
8
 73
4
 74
0
 40
0
 40
0
 40
0
 40
0
 40
1
 40
1
 40
1
 40
1
 10
50.632857
 20
158.562784
 30
0.0
 10
52.326503
 20
158.445613
 30
0.0
 10
54.364331
 20
158.200794
 30
0.0
 10
56.706810
 20
157.913390
 30
0.0
  0
SPLINE
  5
199
100
AcDbEntity
  8
0
 62
7
100
AcDbSpline
 70
8
 71
3
 72
8
 73
4
 74
0
 40
0
 40
0
 40
0
 40
0
 40
1
 40
1
 40
1
 40
1
 10
56.706810
 20
157.913390
 30
0.0
 10
59.049285
 20
157.625986
 30
0.0
 10
61.695990
 20
157.296912
 30
0.0
 10
64.570235
 20
156.999668
 30
0.0
  0
SPLINE
  5
19a
100
AcDbEntity
  8
0
 62
7
100
AcDbSpline
 70
8
 71
3
 72
8
 73
4
 74
0
 40
0
 40
0
 40
0
 40
0
 40
1
 40
1
 40
1
 40
1
 10
64.570235
 20
156.999668
 30
0.0
 10
67.444476
 20
156.702423
 30
0.0
 10
70.545503
 20
156.437707
 30
0.0
 10
73.768311
 20
156.255143
 30
0.0
  0
SPLINE
  5
19b
100
AcDbEntity
  8
0
 62
7
100
AcDbSpline
 70
8
 71
3
 72
8
 73
4
 74
0
 40
0
 40
0
 40
0
 40
0
 40
1
 40
1
 40
1
 40
1
 10
73.768311
 20
156.255143
 30
0.0
 10
76.991123
 20
156.072579
 30
0.0
 10
80.334745
 20
155.972545
 30
0.0
 10
83.678889
 20
155.972545
 30
0.0
  0
SPLINE
  5
19c
100
AcDbEntity
  8
0
 62
7
100
AcDbSpline
 70
8
 71
3
 72
8
 73
4
 74
0
 40
0
 40
0
 40
0
 40
0
 40
1
 40
1
 40
1
 40
1
 10
83.678889
 20
155.972545
 30
0.0
 10
87.023033
 20
155.972545
 30
0.0
 10
90.366655
 20
156.072579
 30
0.0
 10
93.589464
 20
156.255143
 30
0.0
  0
SPLINE
  5
19d
100
AcDbEntity
  8
0
 62
7
100
AcDbSpline
 70
8
 71
3
 72
8
 73
4
 74
0
 40
0
 40
0
 40
0
 40
0
 40
1
 40
1
 40
1
 40
1
 10
93.589464
 20
156.255143
 30
0.0
 10
96.812275
 20
156.437707
 30
0.0
 10
99.913302
 20
156.702423
 30
0.0
 10
102.787543
 20
156.999668
 30
0.0
  0
SPLINE
  5
19e
100
AcDbEntity
  8
0
 62
7
100
AcDbSpline
 70
8
 71
3
 72
8
 73
4
 74
0
 40
0
 40
0
 40
0
 40
0
 40
1
 40
1
 40
1
 40
1
 10
102.787543
 20
156.999668
 30
0.0
 10
105.661787
 20
157.296912
 30
0.0
 10
108.308493
 20
157.625986
 30
0.0
 10
110.650968
 20
157.913390
 30
0.0
  0
SPLINE
  5
19f
100
AcDbEntity
  8
0
 62
7
100
AcDbSpline
 70
8
 71
3
 72
8
 73
4
 74
0
 40
0
 40
0
 40
0
 40
0
 40
1
 40
1
 40
1
 40
1
 10
110.650968
 20
157.913390
 30
0.0
 10
112.993447
 20
158.200794
 30
0.0
 10
115.031274
 20
158.445613
 30
0.0
 10
116.724921
 20
158.562784
 30
0.0
  0
SPLINE
  5
1a0
100
AcDbEntity
  8
0
 62
7
100
AcDbSpline
 70
8
 71
3
 72
8
 73
4
 74
0
 40
0
 40
0
 40
0
 40
0
 40
1
 40
1
 40
1
 40
1
 10
116.724921
 20
158.562784
 30
0.0
 10
118.418568
 20
158.679951
 30
0.0
 10
119.768008
 20
158.668479
 30
0.0
 10
120.774262
 20
158.446217
 30
0.0
  0
SPLINE
  5
1a1
100
AcDbEntity
  8
0
 62
7
100
AcDbSpline
 70
8
 71
3
 72
8
 73
4
 74
0
 40
0
 40
0
 40
0
 40
0
 40
1
 40
1
 40
1
 40
1
 10
120.774262
 20
158.446217
 30
0.0
 10
121.780520
 20
158.223953
 30
0.0
 10
122.443954
 20
157.789991
 30
0.0
 10
122.803635
 20
157.079505
 30
0.0
  0
SPLINE
  5
1a2
100
AcDbEntity
  8
0
 62
7
100
AcDbSpline
 70
8
 71
3
 72
8
 73
4
 74
0
 40
0
 40
0
 40
0
 40
0
 40
1
 40
1
 40
1
 40
1
 10
122.803635
 20
157.079505
 30
0.0
 10
123.163316
 20
156.369019
 30
0.0
 10
123.219932
 20
155.381326
 30
0.0
 10
123.042601
 20
154.081041
 30
0.0
  0
SPLINE
  5
1a3
100
AcDbEntity
  8
0
 62
7
100
AcDbSpline
 70
8
 71
3
 72
8
 73
4
 74
0
 40
0
 40
0
 40
0
 40
0
 40
1
 40
1
 40
1
 40
1
 10
123.042601
 20
154.081041
 30
0.0
 10
122.865269
 20
152.780759
 30
0.0
 10
122.454901
 20
151.167528
 30
0.0
 10
121.898447
 20
149.243326
 30
0.0
  0
SPLINE
  5
1a4
100
AcDbEntity
  8
0
 62
7
100
AcDbSpline
 70
8
 71
3
 72
8
 73
4
 74
0
 40
0
 40
0
 40
0
 40
0
 40
1
 40
1
 40
1
 40
1
 10
121.898447
 20
149.243326
 30
0.0
 10
121.341989
 20
147.319124
 30
0.0
 10
120.640444
 20
145.083977
 30
0.0
 10
119.884063
 20
142.579667
 30
0.0
  0
SPLINE
  5
1a5
100
AcDbEntity
  8
0
 62
7
100
AcDbSpline
 70
8
 71
3
 72
8
 73
4
 74
0
 40
0
 40
0
 40
0
 40
0
 40
1
 40
1
 40
1
 40
1
 10
119.884063
 20
142.579667
 30
0.0
 10
119.127682
 20
140.075360
 30
0.0
 10
118.317394
 20
137.302303
 30
0.0
 10
117.532161
 20
134.338634
 30
0.0
  0
SPLINE
  5
1a6
100
AcDbEntity
  8
0
 62
7
100
AcDbSpline
 70
8
 71
3
 72
8
 73
4
 74
0
 40
0
 40
0
 40
0
 40
0
 40
1
 40
1
 40
1
 40
1
 10
117.532161
 20
134.338634
 30
0.0
 10
116.746929
 20
131.374965
 30
0.0
 10
115.987466
 20
128.221434
 30
0.0
 10
115.309015
 20
124.983642
 30
0.0
  0
SPLINE
  5
1a7
100
AcDbEntity
  8
0
 62
7
100
AcDbSpline
 70
8
 71
3
 72
8
 73
4
 74
0
 40
0
 40
0
 40
0
 40
0
 40
1
 40
1
 40
1
 40
1
 10
115.309015
 20
124.983642
 30
0.0
 10
114.630561
 20
121.745848
 30
0.0
 10
114.033512
 20
118.424761
 30
0.0
 10
113.541014
 20
115.140417
 30
0.0
  0
SPLINE
  5
1a8
100
AcDbEntity
  8
0
 62
7
100
AcDbSpline
 70
8
 71
3
 72
8
 73
4
 74
0
 40
0
 40
0
 40
0
 40
0
 40
1
 40
1
 40
1
 40
1
 10
113.541014
 20
115.140417
 30
0.0
 10
113.048519
 20
111.856070
 30
0.0
 10
112.660585
 20
108.609512
 30
0.0
 10
112.365259
 20
105.519924
 30
0.0
  0
SPLINE
  5
1a9
100
AcDbEntity
  8
0
 62
7
100
AcDbSpline
 70
8
 71
3
 72
8
 73
4
 74
0
 40
0
 40
0
 40
0
 40
0
 40
1
 40
1
 40
1
 40
1
 10
112.365259
 20
105.519924
 30
0.0
 10
112.069931
 20
102.430336
 30
0.0
 10
111.866838
 20
99.498688
 30
0.0
 10
111.711678
 20
96.828058
 30
0.0
  0
SPLINE
  5
1aa
100
AcDbEntity
  8
0
 62
7
100
AcDbSpline
 70
8
 71
3
 72
8
 73
4
 74
0
 40
0
 40
0
 40
0
 40
0
 40
1
 40
1
 40
1
 40
1
 10
111.711678
 20
96.828058
 30
0.0
 10
111.556518
 20
94.157429
 30
0.0
 10
111.448593
 20
91.748561
 30
0.0
 10
111.319381
 20
89.675449
 30
0.0
  0
SPLINE
  5
1ab
100
AcDbEntity
  8
0
 62
7
100
AcDbSpline
 70
8
 71
3
 72
8
 73
4
 74
0
 40
0
 40
0
 40
0
 40
0
 40
1
 40
1
 40
1
 40
1
 10
111.319381
 20
89.675449
 30
0.0
 10
111.190165
 20
87.602338
 30
0.0
 10
111.038750
 20
85.865393
 30
0.0
 10
110.784572
 20
84.500730
 30
0.0
  0
SPLINE
  5
1ac
100
AcDbEntity
  8
0
 62
7
100
AcDbSpline
 70
8
 71
3
 72
8
 73
4
 74
0
 40
0
 40
0
 40
0
 40
0
 40
1
 40
1
 40
1
 40
1
 10
110.784572
 20
84.500730
 30
0.0
 10
110.530394
 20
83.136067
 30
0.0
 10
110.172472
 20
82.143706
 30
0.0
 10
109.632592
 20
81.518564
 30
0.0
  0
SPLINE
  5
1ad
100
AcDbEntity
  8
0
 62
7
100
AcDbSpline
 70
8
 71
3
 72
8
 73
4
 74
0
 40
0
 40
0
 40
0
 40
0
 40
1
 40
1
 40
1
 40
1
 10
109.632592
 20
81.518564
 30
0.0
 10
109.092709
 20
80.893419
 30
0.0
 10
108.369966
 20
80.635126
 30
0.0
 10
107.402822
 20
80.700012
 30
0.0
  0
SPLINE
  5
1ae
100
AcDbEntity
  8
0
 62
7
100
AcDbSpline
 70
8
 71
3
 72
8
 73
4
 74
0
 40
0
 40
0
 40
0
 40
0
 40
1
 40
1
 40
1
 40
1
 10
107.402822
 20
80.700012
 30
0.0
 10
106.435680
 20
80.764895
 30
0.0
 10
105.223454
 20
81.152256
 30
0.0
 10
103.733315
 20
81.787939
 30
0.0
  0
SPLINE
  5
1af
100
AcDbEntity
  8
0
 62
7
100
AcDbSpline
 70
8
 71
3
 72
8
 73
4
 74
0
 40
0
 40
0
 40
0
 40
0
 40
1
 40
1
 40
1
 40
1
 10
103.733315
 20
81.787939
 30
0.0
 10
102.243176
 20
82.423619
 30
0.0
 10
100.474774
 20
83.306696
 30
0.0
 10
98.431844
 20
84.344850
 30
0.0
  0
SPLINE
  5
1b0
100
AcDbEntity
  8
0
 62
7
100
AcDbSpline
 70
8
 71
3
 72
8
 73
4
 74
0
 40
0
 40
0
 40
0
 40
0
 40
1
 40
1
 40
1
 40
1
 10
98.431844
 20
84.344850
 30
0.0
 10
96.388913
 20
85.383002
 30
0.0
 10
94.071488
 20
86.575224
 30
0.0
 10
91.522279
 20
87.825683
 30
0.0
  0
SPLINE
  5
1b1
100
AcDbEntity
  8
0
 62
7
100
AcDbSpline
 70
8
 71
3
 72
8
 73
4
 74
0
 40
0
 40
0
 40
0
 40
0
 40
1
 40
1
 40
1
 40
1
 10
91.522279
 20
87.825683
 30
0.0
 10
88.973073
 20
89.076142
 30
0.0
 10
86.192504
 20
90.383900
 30
0.0
 10
83.258790
 20
91.664343
 30
0.0
  0
SPLINE
  5
1b2
100
AcDbEntity
  8
0
 62
7
100
AcDbSpline
 70
8
 71
3
 72
8
 73
4
 74
0
 40
0
 40
0
 40
0
 40
0
 40
1
 40
1
 40
1
 40
1
 10
83.258790
 20
91.664343
 30
0.0
 10
80.325076
 20
92.944782
 30
0.0
 10
77.238967
 20
94.197183
 30
0.0
 10
74.105299
 20
95.360697
 30
0.0
  0
SPLINE
  5
1b3
100
AcDbEntity
  8
0
 62
7
100
AcDbSpline
 70
8
 71
3
 72
8
 73
4
 74
0
 40
0
 40
0
 40
0
 40
0
 40
1
 40
1
 40
1
 40
1
 10
74.105299
 20
95.360697
 30
0.0
 10
70.971630
 20
96.524215
 30
0.0
 10
67.791370
 20
97.598446
 30
0.0
 10
64.682946
 20
98.554815
 30
0.0
  0
SPLINE
  5
1b4
100
AcDbEntity
  8
0
 62
7
100
AcDbSpline
 70
8
 71
3
 72
8
 73
4
 74
0
 40
0
 40
0
 40
0
 40
0
 40
1
 40
1
 40
1
 40
1
 10
64.682946
 20
98.554815
 30
0.0
 10
61.574525
 20
99.511187
 30
0.0
 10
58.538988
 20
100.349681
 30
0.0
 10
55.693118
 20
101.077128
 30
0.0
  0
SPLINE
  5
1b5
100
AcDbEntity
  8
0
 62
7
100
AcDbSpline
 70
8
 71
3
 72
8
 73
4
 74
0
 40
0
 40
0
 40
0
 40
0
 40
1
 40
1
 40
1
 40
1
 10
55.693118
 20
101.077128
 30
0.0
 10
52.847248
 20
101.804579
 30
0.0
 10
50.192011
 20
102.421350
 30
0.0
 10
47.827345
 20
102.967043
 30
0.0
  0
SPLINE
  5
1b6
100
AcDbEntity
  8
0
 62
7
100
AcDbSpline
 70
8
 71
3
 72
8
 73
4
 74
0
 40
0
 40
0
 40
0
 40
0
 40
1
 40
1
 40
1
 40
1
 10
47.827345
 20
102.967043
 30
0.0
 10
45.462675
 20
103.512737
 30
0.0
 10
43.389319
 20
103.988039
 30
0.0
 10
41.677446
 20
104.457304
 30
0.0
  0
SPLINE
  5
1b7
100
AcDbEntity
  8
0
 62
7
100
AcDbSpline
 70
8
 71
3
 72
8
 73
4
 74
0
 40
0
 40
0
 40
0
 40
0
 40
1
 40
1
 40
1
 40
1
 10
41.677446
 20
104.457304
 30
0.0
 10
39.965574
 20
104.926566
 30
0.0
 10
38.615597
 20
105.390697
 30
0.0
 10
37.659228
 20
105.926699
 30
0.0
  0
SPLINE
  5
1b8
100
AcDbEntity
  8
0
 62
7
100
AcDbSpline
 70
8
 71
3
 72
8
 73
4
 74
0
 40
0
 40
0
 40
0
 40
0
 40
1
 40
1
 40
1
 40
1
 10
37.659228
 20
105.926699
 30
0.0
 10
36.702856
 20
106.462702
 30
0.0
 10
36.140111
 20
107.071554
 30
0.0
 10
35.961018
 20
107.828618
 30
0.0
  0
SPLINE
  5
1b9
100
AcDbEntity
  8
0
 62
7
100
AcDbSpline
 70
8
 71
3
 72
8
 73
4
 74
0
 40
0
 40
0
 40
0
 40
0
 40
1
 40
1
 40
1
 40
1
 10
35.961018
 20
107.828618
 30
0.0
 10
35.781923
 20
108.585679
 30
0.0
 10
35.986108
 20
109.491855
 30
0.0
 10
36.524644
 20
110.606593
 30
0.0
  0
SPLINE
  5
1ba
100
AcDbEntity
  8
0
 62
7
100
AcDbSpline
 70
8
 71
3
 72
8
 73
4
 74
0
 40
0
 40
0
 40
0
 40
0
 40
1
 40
1
 40
1
 40
1
 10
36.524644
 20
110.606593
 30
0.0
 10
37.063178
 20
111.721334
 30
0.0
 10
37.935352
 20
113.045315
 30
0.0
 10
39.061500
 20
114.610101
 30
0.0
  0
SPLINE
  5
1bb
100
AcDbEntity
  8
0
 62
7
100
AcDbSpline
 70
8
 71
3
 72
8
 73
4
 74
0
 40
0
 40
0
 40
0
 40
0
 40
1
 40
1
 40
1
 40
1
 10
39.061500
 20
114.610101
 30
0.0
 10
40.187646
 20
116.174888
 30
0.0
 10
41.566832
 20
117.980828
 30
0.0
 10
43.101096
 20
120.023759
 30
0.0
  0
SPLINE
  5
1bc
100
AcDbEntity
  8
0
 62
7
100
AcDbSpline
 70
8
 71
3
 72
8
 73
4
 74
0
 40
0
 40
0
 40
0
 40
0
 40
1
 40
1
 40
1
 40
1
 10
43.101096
 20
120.023759
 30
0.0
 10
44.635364
 20
122.066689
 30
0.0
 10
46.323696
 20
124.346576
 30
0.0
 10
48.064620
 20
126.821135
 30
0.0
  0
SPLINE
  5
1bd
100
AcDbEntity
  8
0
 62
7
100
AcDbSpline
 70
8
 71
3
 72
8
 73
4
 74
0
 40
0
 40
0
 40
0
 40
0
 40
1
 40
1
 40
1
 40
1
 10
48.064620
 20
126.821135
 30
0.0
 10
49.805545
 20
129.295696
 30
0.0
 10
51.598116
 20
131.964508
 30
0.0
 10
53.352206
 20
134.750628
 30
0.0
  0
SPLINE
  5
1be
100
AcDbEntity
  8
0
 62
7
100
AcDbSpline
 70
8
 71
3
 72
8
 73
4
 74
0
 40
0
 40
0
 40
0
 40
0
 40
1
 40
1
 40
1
 40
1
 10
53.352206
 20
134.750628
 30
0.0
 10
55.106299
 20
137.536745
 30
0.0
 10
56.821177
 20
140.439424
 30
0.0
 10
58.430741
 20
143.355911
 30
0.0
  0
SPLINE
  5
1bf
100
AcDbEntity
  8
0
 62
7
100
AcDbSpline
 70
8
 71
3
 72
8
 73
4
 74
0
 40
0
 40
0
 40
0
 40
0
 40
1
 40
1
 40
1
 40
1
 10
58.430741
 20
143.355911
 30
0.0
 10
60.040306
 20
146.272398
 30
0.0
 10
61.544152
 20
149.201726
 30
0.0
 10
62.908815
 20
152.028323
 30
0.0
  0
SPLINE
  5
1c0
100
AcDbEntity
  8
0
 62
7
100
AcDbSpline
 70
8
 71
3
 72
8
 73
4
 74
0
 40
0
 40
0
 40
0
 40
0
 40
1
 40
1
 40
1
 40
1
 10
62.908815
 20
152.028323
 30
0.0
 10
64.273478
 20
154.854920
 30
0.0
 10
65.498938
 20
157.577743
 30
0.0
 10
66.587627
 20
160.083563
 30
0.0
  0
SPLINE
  5
1c1
100
AcDbEntity
  8
0
 62
7
100
AcDbSpline
 70
8
 71
3
 72
8
 73
4
 74
0
 40
0
 40
0
 40
0
 40
0
 40
1
 40
1
 40
1
 40
1
 10
66.587627
 20
160.083563
 30
0.0
 10
67.676319
 20
162.589383
 30
0.0
 10
68.628599
 20
164.877241
 30
0.0
 10
69.480255
 20
166.851376
 30
0.0
  0
SPLINE
  5
1c2
100
AcDbEntity
  8
0
 62
7
100
AcDbSpline
 70
8
 71
3
 72
8
 73
4
 74
0
 40
0
 40
0
 40
0
 40
0
 40
1
 40
1
 40
1
 40
1
 10
69.480255
 20
166.851376
 30
0.0
 10
70.331909
 20
168.825512
 30
0.0
 10
71.083624
 20
170.485191
 30
0.0
 10
71.796605
 20
171.764942
 30
0.0
  0
SPLINE
  5
1c3
100
AcDbEntity
  8
0
 62
7
100
AcDbSpline
 70
8
 71
3
 72
8
 73
4
 74
0
 40
0
 40
0
 40
0
 40
0
 40
1
 40
1
 40
1
 40
1
 10
71.796605
 20
171.764942
 30
0.0
 10
72.509586
 20
173.044690
 30
0.0
 10
73.184738
 20
173.944109
 30
0.0
 10
73.896663
 20
174.436604
 30
0.0
  0
SPLINE
  5
1c4
100
AcDbEntity
  8
0
 62
7
100
AcDbSpline
 70
8
 71
3
 72
8
 73
4
 74
0
 40
0
 40
0
 40
0
 40
0
 40
1
 40
1
 40
1
 40
1
 10
73.896663
 20
174.436604
 30
0.0
 10
74.608591
 20
174.929101
 30
0.0
 10
75.358269
 20
175.014666
 30
0.0
 10
76.219456
 20
174.708697
 30
0.0
  0
SPLINE
  5
1c5
100
AcDbEntity
  8
0
 62
7
100
AcDbSpline
 70
8
 71
3
 72
8
 73
4
 74
0
 40
0
 40
0
 40
0
 40
0
 40
1
 40
1
 40
1
 40
1
 10
76.219456
 20
174.708697
 30
0.0
 10
77.080646
 20
174.402726
 30
0.0
 10
78.054242
 20
173.705603
 30
0.0
 10
79.198936
 20
172.671860
 30
0.0
  0
SPLINE
  5
1c6
100
AcDbEntity
  8
0
 62
7
100
AcDbSpline
 70
8
 71
3
 72
8
 73
4
 74
0
 40
0
 40
0
 40
0
 40
0
 40
1
 40
1
 40
1
 40
1
 10
79.198936
 20
172.671860
 30
0.0
 10
80.343629
 20
171.638117
 30
0.0
 10
81.660100
 20
170.268472
 30
0.0
 10
83.179988
 20
168.648249
 30
0.0
  0
SPLINE
  5
1c7
100
AcDbEntity
  8
0
 62
7
100
AcDbSpline
 70
8
 71
3
 72
8
 73
4
 74
0
 40
0
 40
0
 40
0
 40
0
 40
1
 40
1
 40
1
 40
1
 10
83.179988
 20
168.648249
 30
0.0
 10
84.699873
 20
167.028022
 30
0.0
 10
86.423534
 20
165.158162
 30
0.0
 10
88.347736
 20
163.142198
 30
0.0
  0
SPLINE
  5
1c8
100
AcDbEntity
  8
0
 62
7
100
AcDbSpline
 70
8
 71
3
 72
8
 73
4
 74
0
 40
0
 40
0
 40
0
 40
0
 40
1
 40
1
 40
1
 40
1
 10
88.347736
 20
163.142198
 30
0.0
 10
90.271939
 20
161.126233
 30
0.0
 10
92.396654
 20
158.965193
 30
0.0
 10
94.681359
 20
156.765920
 30
0.0
  0
SPLINE
  5
1c9
100
AcDbEntity
  8
0
 62
7
100
AcDbSpline
 70
8
 71
3
 72
8
 73
4
 74
0
 40
0
 40
0
 40
0
 40
0
 40
1
 40
1
 40
1
 40
1
 10
94.681359
 20
156.765920
 30
0.0
 10
96.966066
 20
154.566647
 30
0.0
 10
99.410345
 20
152.330095
 30
0.0
 10
101.939807
 20
150.151438
 30
0.0
  0
SPLINE
  5
1ca
100
AcDbEntity
  8
0
 62
7
100
AcDbSpline
 70
8
 71
3
 72
8
 73
4
 74
0
 40
0
 40
0
 40
0
 40
0
 40
1
 40
1
 40
1
 40
1
 10
101.939807
 20
150.151438
 30
0.0
 10
104.469266
 20
147.972784
 30
0.0
 10
107.083163
 20
145.852762
 30
0.0
 10
109.682032
 20
143.862085
 30
0.0
  0
SPLINE
  5
1cb
100
AcDbEntity
  8
0
 62
7
100
AcDbSpline
 70
8
 71
3
 72
8
 73
4
 74
0
 40
0
 40
0
 40
0
 40
0
 40
1
 40
1
 40
1
 40
1
 10
109.682032
 20
143.862085
 30
0.0
 10
112.280900
 20
141.871405
 30
0.0
 10
114.863781
 20
140.010482
 30
0.0
 10
117.319030
 20
138.316836
 30
0.0
  0
SPLINE
  5
1cc
100
AcDbEntity
  8
0
 62
7
100
AcDbSpline
 70
8
 71
3
 72
8
 73
4
 74
0
 40
0
 40
0
 40
0
 40
0
 40
1
 40
1
 40
1
 40
1
 10
117.319030
 20
138.316836
 30
0.0
 10
119.774281
 20
136.623186
 30
0.0
 10
122.100871
 20
135.096844
 30
0.0
 10
124.190071
 20
133.738791
 30
0.0
  0
SPLINE
  5
1cd
100
AcDbEntity
  8
0
 62
7
100
AcDbSpline
 70
8
 71
3
 72
8
 73
4
 74
0
 40
0
 40
0
 40
0
 40
0
 40
1
 40
1
 40
1
 40
1
 10
124.190071
 20
133.738791
 30
0.0
 10
126.279272
 20
132.380735
 30
0.0
 10
128.130133
 20
131.190615
 30
0.0
 10
129.651862
 20
130.135349
 30
0.0
  0
SPLINE
  5
1ce
100
AcDbEntity
  8
0
 62
7
100
AcDbSpline
 70
8
 71
3
 72
8
 73
4
 74
0
 40
0
 40
0
 40
0
 40
0
 40
1
 40
1
 40
1
 40
1
 10
129.651862
 20
130.135349
 30
0.0
 10
131.173593
 20
129.080084
 30
0.0
 10
132.365465
 20
128.158989
 30
0.0
 10
133.167320
 20
127.312785
 30
0.0
  0
SPLINE
  5
1cf
100
AcDbEntity
  8
0
 62
7
100
AcDbSpline
 70
8
 71
3
 72
8
 73
4
 74
0
 40
0
 40
0
 40
0
 40
0
 40
1
 40
1
 40
1
 40
1
 10
133.167320
 20
127.312785
 30
0.0
 10
133.969179
 20
126.466582
 30
0.0
 10
134.380630
 20
125.694365
 30
0.0
 10
134.380630
 20
124.922640
 30
0.0
  0
SPLINE
  5
1d0
100
AcDbEntity
  8
Layer_1
 62
7
100
AcDbSpline
 70
8
 71
3
 72
8
 73
4
 74
0
 40
0
 40
0
 40
0
 40
0
 40
1
 40
1
 40
1
 40
1
 10
96.649103
 20
124.922640
 30
0.0
 10
96.649103
 20
124.768295
 30
0.0
 10
96.725782
 20
124.613691
 30
0.0
 10
96.869642
 20
124.416102
 30
0.0
  0
SPLINE
  5
1d1
100
AcDbEntity
  8
Layer_1
 62
7
100
AcDbSpline
 70
8
 71
3
 72
8
 73
4
 74
0
 40
0
 40
0
 40
0
 40
0
 40
1
 40
1
 40
1
 40
1
 10
96.869642
 20
124.416102
 30
0.0
 10
97.013502
 20
124.218512
 30
0.0
 10
97.224345
 20
123.977461
 30
0.0
 10
97.475190
 20
123.657745
 30
0.0
  0
SPLINE
  5
1d2
100
AcDbEntity
  8
Layer_1
 62
7
100
AcDbSpline
 70
8
 71
3
 72
8
 73
4
 74
0
 40
0
 40
0
 40
0
 40
0
 40
1
 40
1
 40
1
 40
1
 10
97.475190
 20
123.657745
 30
0.0
 10
97.726032
 20
123.338030
 30
0.0
 10
98.016509
 20
122.939289
 30
0.0
 10
98.306472
 20
122.440213
 30
0.0
  0
SPLINE
  5
1d3
100
AcDbEntity
  8
Layer_1
 62
7
100
AcDbSpline
 70
8
 71
3
 72
8
 73
4
 74
0
 40
0
 40
0
 40
0
 40
0
 40
1
 40
1
 40
1
 40
1
 10
98.306472
 20
122.440213
 30
0.0
 10
98.596436
 20
121.941140
 30
0.0
 10
98.885406
 20
121.341536
 30
0.0
 10
99.126525
 20
120.638202
 30
0.0
  0
SPLINE
  5
1d4
100
AcDbEntity
  8
Layer_1
 62
7
100
AcDbSpline
 70
8
 71
3
 72
8
 73
4
 74
0
 40
0
 40
0
 40
0
 40
0
 40
1
 40
1
 40
1
 40
1
 10
99.126525
 20
120.638202
 30
0.0
 10
99.367648
 20
119.934864
 30
0.0
 10
99.560400
 20
119.127802
 30
0.0
 10
99.658822
 20
118.233307
 30
0.0
  0
SPLINE
  5
1d5
100
AcDbEntity
  8
Layer_1
 62
7
100
AcDbSpline
 70
8
 71
3
 72
8
 73
4
 74
0
 40
0
 40
0
 40
0
 40
0
 40
1
 40
1
 40
1
 40
1
 10
99.658822
 20
118.233307
 30
0.0
 10
99.757244
 20
117.338812
 30
0.0
 10
99.760857
 20
116.357094
 30
0.0
 10
99.632180
 20
115.322298
 30
0.0
  0
SPLINE
  5
1d6
100
AcDbEntity
  8
Layer_1
 62
7
100
AcDbSpline
 70
8
 71
3
 72
8
 73
4
 74
0
 40
0
 40
0
 40
0
 40
0
 40
1
 40
1
 40
1
 40
1
 10
99.632186
 20
115.322298
 30
0.0
 10
99.503512
 20
114.287505
 30
0.0
 10
99.242191
 20
113.200015
 30
0.0
 10
98.825631
 20
112.107391
 30
0.0
  0
SPLINE
  5
1d7
100
AcDbEntity
  8
Layer_1
 62
7
100
AcDbSpline
 70
8
 71
3
 72
8
 73
4
 74
0
 40
0
 40
0
 40
0
 40
0
 40
1
 40
1
 40
1
 40
1
 10
98.825631
 20
112.107391
 30
0.0
 10
98.409074
 20
111.014765
 30
0.0
 10
97.837083
 20
109.917494
 30
0.0
 10
97.106201
 20
108.869950
 30
0.0
  0
SPLINE
  5
1d8
100
AcDbEntity
  8
Layer_1
 62
7
100
AcDbSpline
 70
8
 71
3
 72
8
 73
4
 74
0
 40
0
 40
0
 40
0
 40
0
 40
1
 40
1
 40
1
 40
1
 10
97.106201
 20
108.869950
 30
0.0
 10
96.375316
 20
107.822409
 30
0.0
 10
95.485545
 20
106.825123
 30
0.0
 10
94.453950
 20
105.931542
 30
0.0
  0
SPLINE
  5
1d9
100
AcDbEntity
  8
Layer_1
 62
7
100
AcDbSpline
 70
8
 71
3
 72
8
 73
4
 74
0
 40
0
 40
0
 40
0
 40
0
 40
1
 40
1
 40
1
 40
1
 10
94.453950
 20
105.931542
 30
0.0
 10
93.422354
 20
105.037962
 30
0.0
 10
92.249148
 20
104.248569
 30
0.0
 10
90.970258
 20
103.608156
 30
0.0
  0
SPLINE
  5
1da
100
AcDbEntity
  8
Layer_1
 62
7
100
AcDbSpline
 70
8
 71
3
 72
8
 73
4
 74
0
 40
0
 40
0
 40
0
 40
0
 40
1
 40
1
 40
1
 40
1
 10
90.970258
 20
103.608156
 30
0.0
 10
89.691365
 20
102.967743
 30
0.0
 10
88.307175
 20
102.476682
 30
0.0
 10
86.868003
 20
102.164556
 30
0.0
  0
SPLINE
  5
1db
100
AcDbEntity
  8
Layer_1
 62
7
100
AcDbSpline
 70
8
 71
3
 72
8
 73
4
 74
0
 40
0
 40
0
 40
0
 40
0
 40
1
 40
1
 40
1
 40
1
 10
86.868003
 20
102.164556
 30
0.0
 10
85.428830
 20
101.852432
 30
0.0
 10
83.935172
 20
101.719443
 30
0.0
 10
82.445087
 20
101.775620
 30
0.0
  0
SPLINE
  5
1dc
100
AcDbEntity
  8
Layer_1
 62
7
100
AcDbSpline
 70
8
 71
3
 72
8
 73
4
 74
0
 40
0
 40
0
 40
0
 40
0
 40
1
 40
1
 40
1
 40
1
 10
82.445087
 20
101.775620
 30
0.0
 10
80.955001
 20
101.831796
 30
0.0
 10
79.469028
 20
102.077132
 30
0.0
 10
78.045155
 20
102.500561
 30
0.0
  0
SPLINE
  5
1dd
100
AcDbEntity
  8
Layer_1
 62
7
100
AcDbSpline
 70
8
 71
3
 72
8
 73
4
 74
0
 40
0
 40
0
 40
0
 40
0
 40
1
 40
1
 40
1
 40
1
 10
78.045155
 20
102.500561
 30
0.0
 10
76.621279
 20
102.923990
 30
0.0
 10
75.260000
 20
103.525310
 30
0.0
 10
74.011423
 20
104.273907
 30
0.0
  0
SPLINE
  5
1de
100
AcDbEntity
  8
Layer_1
 62
7
100
AcDbSpline
 70
8
 71
3
 72
8
 73
4
 74
0
 40
0
 40
0
 40
0
 40
0
 40
1
 40
1
 40
1
 40
1
 10
74.011423
 20
104.273907
 30
0.0
 10
72.762844
 20
105.022505
 30
0.0
 10
71.627348
 20
105.918007
 30
0.0
 10
70.640513
 20
106.914638
 30
0.0
  0
SPLINE
  5
1df
100
AcDbEntity
  8
Layer_1
 62
7
100
AcDbSpline
 70
8
 71
3
 72
8
 73
4
 74
0
 40
0
 40
0
 40
0
 40
0
 40
1
 40
1
 40
1
 40
1
 10
70.640513
 20
106.914638
 30
0.0
 10
69.653678
 20
107.911269
 30
0.0
 10
68.815718
 20
109.008541
 30
0.0
 10
68.143210
 20
110.152077
 30
0.0
  0
SPLINE
  5
1e0
100
AcDbEntity
  8
Layer_1
 62
7
100
AcDbSpline
 70
8
 71
3
 72
8
 73
4
 74
0
 40
0
 40
0
 40
0
 40
0
 40
1
 40
1
 40
1
 40
1
 10
68.143210
 20
110.152077
 30
0.0
 10
67.470700
 20
111.295616
 30
0.0
 10
66.963654
 20
112.484886
 30
0.0
 10
66.617997
 20
113.664665
 30
0.0
  0
SPLINE
  5
1e1
100
AcDbEntity
  8
Layer_1
 62
7
100
AcDbSpline
 70
8
 71
3
 72
8
 73
4
 74
0
 40
0
 40
0
 40
0
 40
0
 40
1
 40
1
 40
1
 40
1
 10
66.617997
 20
113.664665
 30
0.0
 10
66.272342
 20
114.844442
 30
0.0
 10
66.087885
 20
116.014233
 30
0.0
 10
66.041321
 20
117.125712
 30
0.0
  0
SPLINE
  5
1e2
100
AcDbEntity
  8
Layer_1
 62
7
100
AcDbSpline
 70
8
 71
3
 72
8
 73
4
 74
0
 40
0
 40
0
 40
0
 40
0
 40
1
 40
1
 40
1
 40
1
 10
66.041321
 20
117.125712
 30
0.0
 10
65.994760
 20
118.237190
 30
0.0
 10
66.085728
 20
119.289981
 30
0.0
 10
66.275938
 20
120.249266
 30
0.0
  0
SPLINE
  5
1e3
100
AcDbEntity
  8
Layer_1
 62
7
100
AcDbSpline
 70
8
 71
3
 72
8
 73
4
 74
0
 40
0
 40
0
 40
0
 40
0
 40
1
 40
1
 40
1
 40
1
 10
66.275938
 20
120.249266
 30
0.0
 10
66.466147
 20
121.208550
 30
0.0
 10
66.755117
 20
122.074126
 30
0.0
 10
67.095991
 20
122.829149
 30
0.0
  0
SPLINE
  5
1e4
100
AcDbEntity
  8
Layer_1
 62
7
100
AcDbSpline
 70
8
 71
3
 72
8
 73
4
 74
0
 40
0
 40
0
 40
0
 40
0
 40
1
 40
1
 40
1
 40
1
 10
67.095991
 20
122.829149
 30
0.0
 10
67.436867
 20
123.584175
 30
0.0
 10
67.829128
 20
124.228641
 30
0.0
 10
68.224956
 20
124.765340
 30
0.0
  0
SPLINE
  5
1e5
100
AcDbEntity
  8
Layer_1
 62
7
100
AcDbSpline
 70
8
 71
3
 72
8
 73
4
 74
0
 40
0
 40
0
 40
0
 40
0
 40
1
 40
1
 40
1
 40
1
 10
68.224956
 20
124.765340
 30
0.0
 10
68.620784
 20
125.302040
 30
0.0
 10
69.019694
 20
125.731161
 30
0.0
 10
69.380540
 20
126.073737
 30
0.0
  0
SPLINE
  5
1e6
100
AcDbEntity
  8
Layer_1
 62
7
100
AcDbSpline
 70
8
 71
3
 72
8
 73
4
 74
0
 40
0
 40
0
 40
0
 40
0
 40
1
 40
1
 40
1
 40
1
 10
69.380540
 20
126.073737
 30
0.0
 10
69.741384
 20
126.416309
 30
0.0
 10
70.063789
 20
126.672697
 30
0.0
 10
70.319739
 20
126.877954
 30
0.0
  0
SPLINE
  5
1e7
100
AcDbEntity
  8
Layer_1
 62
7
100
AcDbSpline
 70
8
 71
3
 72
8
 73
4
 74
0
 40
0
 40
0
 40
0
 40
0
 40
1
 40
1
 40
1
 40
1
 10
70.319739
 20
126.877954
 30
0.0
 10
70.575689
 20
127.083209
 30
0.0
 10
70.764981
 20
127.237813
 30
0.0
 10
70.877072
 20
127.384492
 30
0.0
  0
SPLINE
  5
1e8
100
AcDbEntity
  8
Layer_1
 62
7
100
AcDbSpline
 70
8
 71
3
 72
8
 73
4
 74
0
 40
0
 40
0
 40
0
 40
0
 40
1
 40
1
 40
1
 40
1
 10
70.877072
 20
127.384492
 30
0.0
 10
70.989159
 20
127.531169
 30
0.0
 10
71.024044
 20
127.670440
 30
0.0
 10
70.990183
 20
127.845169
 30
0.0
  0
SPLINE
  5
1e9
100
AcDbEntity
  8
Layer_1
 62
7
100
AcDbSpline
 70
8
 71
3
 72
8
 73
4
 74
0
 40
0
 40
0
 40
0
 40
0
 40
1
 40
1
 40
1
 40
1
 10
70.990183
 20
127.845169
 30
0.0
 10
70.956325
 20
128.019902
 30
0.0
 10
70.853918
 20
128.230572
 30
0.0
 10
70.708938
 20
128.512662
 30
0.0
  0
SPLINE
  5
1ea
100
AcDbEntity
  8
Layer_1
 62
7
100
AcDbSpline
 70
8
 71
3
 72
8
 73
4
 74
0
 40
0
 40
0
 40
0
 40
0
 40
1
 40
1
 40
1
 40
1
 10
70.708938
 20
128.512662
 30
0.0
 10
70.563957
 20
128.794754
 30
0.0
 10
70.376773
 20
129.148630
 30
0.0
 10
70.186561
 20
129.596014
 30
0.0
  0
SPLINE
  5
1eb
100
AcDbEntity
  8
Layer_1
 62
7
100
AcDbSpline
 70
8
 71
3
 72
8
 73
4
 74
0
 40
0
 40
0
 40
0
 40
0
 40
1
 40
1
 40
1
 40
1
 10
70.186561
 20
129.596014
 30
0.0
 10
69.996352
 20
130.043401
 30
0.0
 10
69.803603
 20
130.584492
 30
0.0
 10
69.654270
 20
131.223036
 30
0.0
  0
SPLINE
  5
1ec
100
AcDbEntity
  8
Layer_1
 62
7
100
AcDbSpline
 70
8
 71
3
 72
8
 73
4
 74
0
 40
0
 40
0
 40
0
 40
0
 40
1
 40
1
 40
1
 40
1
 10
69.654270
 20
131.223036
 30
0.0
 10
69.504935
 20
131.861584
 30
0.0
 10
69.399539
 20
132.597577
 30
0.0
 10
69.383227
 20
133.415387
 30
0.0
  0
SPLINE
  5
1ed
100
AcDbEntity
  8
Layer_1
 62
7
100
AcDbSpline
 70
8
 71
3
 72
8
 73
4
 74
0
 40
0
 40
0
 40
0
 40
0
 40
1
 40
1
 40
1
 40
1
 10
69.383227
 20
133.415387
 30
0.0
 10
69.366915
 20
134.233196
 30
0.0
 10
69.440165
 20
135.132616
 30
0.0
 10
69.639742
 20
136.080259
 30
0.0
  0
SPLINE
  5
1ee
100
AcDbEntity
  8
Layer_1
 62
7
100
AcDbSpline
 70
8
 71
3
 72
8
 73
4
 74
0
 40
0
 40
0
 40
0
 40
0
 40
1
 40
1
 40
1
 40
1
 10
69.639742
 20
136.080259
 30
0.0
 10
69.839315
 20
137.027899
 30
0.0
 10
70.165578
 20
138.023387
 30
0.0
 10
70.640513
 20
139.020018
 30
0.0
  0
SPLINE
  5
1ef
100
AcDbEntity
  8
Layer_1
 62
7
100
AcDbSpline
 70
8
 71
3
 72
8
 73
4
 74
0
 40
0
 40
0
 40
0
 40
0
 40
1
 40
1
 40
1
 40
1
 10
70.640513
 20
139.020018
 30
0.0
 10
71.115448
 20
140.016649
 30
0.0
 10
71.739246
 20
141.013932
 30
0.0
 10
72.514892
 20
141.958425
 30
0.0
  0
SPLINE
  5
1f0
100
AcDbEntity
  8
Layer_1
 62
7
100
AcDbSpline
 70
8
 71
3
 72
8
 73
4
 74
0
 40
0
 40
0
 40
0
 40
0
 40
1
 40
1
 40
1
 40
1
 10
72.514892
 20
141.958425
 30
0.0
 10
73.290537
 20
142.902919
 30
0.0
 10
74.218018
 20
143.794092
 30
0.0
 10
75.279925
 20
144.579491
 30
0.0
  0
SPLINE
  5
1f1
100
AcDbEntity
  8
Layer_1
 62
7
100
AcDbSpline
 70
8
 71
3
 72
8
 73
4
 74
0
 40
0
 40
0
 40
0
 40
0
 40
1
 40
1
 40
1
 40
1
 10
75.279925
 20
144.579491
 30
0.0
 10
76.341831
 20
145.364887
 30
0.0
 10
77.537953
 20
146.044021
 30
0.0
 10
78.832140
 20
146.573128
 30
0.0
  0
SPLINE
  5
1f2
100
AcDbEntity
  8
Layer_1
 62
7
100
AcDbSpline
 70
8
 71
3
 72
8
 73
4
 74
0
 40
0
 40
0
 40
0
 40
0
 40
1
 40
1
 40
1
 40
1
 10
78.832140
 20
146.573128
 30
0.0
 10
80.126329
 20
147.102239
 30
0.0
 10
81.518204
 20
147.480950
 30
0.0
 10
82.957379
 20
147.680726
 30
0.0
  0
SPLINE
  5
1f3
100
AcDbEntity
  8
Layer_1
 62
7
100
AcDbSpline
 70
8
 71
3
 72
8
 73
4
 74
0
 40
0
 40
0
 40
0
 40
0
 40
1
 40
1
 40
1
 40
1
 10
82.957379
 20
147.680726
 30
0.0
 10
84.396552
 20
147.880500
 30
0.0
 10
85.882525
 20
147.901136
 30
0.0
 10
87.357311
 20
147.733654
 30
0.0
  0
SPLINE
  5
1f4
100
AcDbEntity
  8
Layer_1
 62
7
100
AcDbSpline
 70
8
 71
3
 72
8
 73
4
 74
0
 40
0
 40
0
 40
0
 40
0
 40
1
 40
1
 40
1
 40
1
 10
87.357311
 20
147.733654
 30
0.0
 10
88.832097
 20
147.566175
 30
0.0
 10
90.295160
 20
147.210584
 30
0.0
 10
91.688720
 20
146.678967
 30
0.0
  0
SPLINE
  5
1f5
100
AcDbEntity
  8
Layer_1
 62
7
100
AcDbSpline
 70
8
 71
3
 72
8
 73
4
 74
0
 40
0
 40
0
 40
0
 40
0
 40
1
 40
1
 40
1
 40
1
 10
91.688720
 20
146.678967
 30
0.0
 10
93.082285
 20
146.147354
 30
0.0
 10
94.405851
 20
145.439924
 30
0.0
 10
95.609670
 20
144.588276
 30
0.0
  0
SPLINE
  5
1f6
100
AcDbEntity
  8
Layer_1
 62
7
100
AcDbSpline
 70
8
 71
3
 72
8
 73
4
 74
0
 40
0
 40
0
 40
0
 40
0
 40
1
 40
1
 40
1
 40
1
 10
95.609670
 20
144.588276
 30
0.0
 10
96.813486
 20
143.736629
 30
0.0
 10
97.897174
 20
142.741141
 30
0.0
 10
98.825631
 20
141.648517
 30
0.0
  0
SPLINE
  5
1f7
100
AcDbEntity
  8
Layer_1
 62
7
100
AcDbSpline
 70
8
 71
3
 72
8
 73
4
 74
0
 40
0
 40
0
 40
0
 40
0
 40
1
 40
1
 40
1
 40
1
 10
98.825631
 20
141.648517
 30
0.0
 10
99.754092
 20
140.555891
 30
0.0
 10
100.527110
 20
139.366618
 30
0.0
 10
101.128717
 20
138.135929
 30
0.0
  0
SPLINE
  5
1f8
100
AcDbEntity
  8
Layer_1
 62
7
100
AcDbSpline
 70
8
 71
3
 72
8
 73
4
 74
0
 40
0
 40
0
 40
0
 40
0
 40
1
 40
1
 40
1
 40
1
 10
101.128717
 20
138.135929
 30
0.0
 10
101.730322
 20
136.905239
 30
0.0
 10
102.160505
 20
135.633665
 30
0.0
 10
102.424052
 20
134.377203
 30
0.0
  0
SPLINE
  5
1f9
100
AcDbEntity
  8
Layer_1
 62
7
100
AcDbSpline
 70
8
 71
3
 72
8
 73
4
 74
0
 40
0
 40
0
 40
0
 40
0
 40
1
 40
1
 40
1
 40
1
 10
102.424052
 20
134.377203
 30
0.0
 10
102.687597
 20
133.120741
 30
0.0
 10
102.784698
 20
131.879880
 30
0.0
 10
102.739472
 20
130.703612
 30
0.0
  0
SPLINE
  5
1fa
100
AcDbEntity
  8
Layer_1
 62
7
100
AcDbSpline
 70
8
 71
3
 72
8
 73
4
 74
0
 40
0
 40
0
 40
0
 40
0
 40
1
 40
1
 40
1
 40
1
 10
102.739472
 20
130.703612
 30
0.0
 10
102.694249
 20
129.527341
 30
0.0
 10
102.507062
 20
128.416043
 30
0.0
 10
102.217099
 20
127.405066
 30
0.0
  0
SPLINE
  5
1fb
100
AcDbEntity
  8
Layer_1
 62
7
100
AcDbSpline
 70
8
 71
3
 72
8
 73
4
 74
0
 40
0
 40
0
 40
0
 40
0
 40
1
 40
1
 40
1
 40
1
 10
102.217099
 20
127.405066
 30
0.0
 10
101.927135
 20
126.394093
 30
0.0
 10
101.534874
 20
125.483655
 30
0.0
 10
101.088136
 20
124.691006
 30
0.0
  0
SPLINE
  5
1fc
100
AcDbEntity
  8
Layer_1
 62
7
100
AcDbSpline
 70
8
 71
3
 72
8
 73
4
 74
0
 40
0
 40
0
 40
0
 40
0
 40
1
 40
1
 40
1
 40
1
 10
101.088136
 20
124.691006
 30
0.0
 10
100.641396
 20
123.898357
 30
0.0
 10
100.140699
 20
123.223507
 30
0.0
 10
99.634873
 20
122.663950
 30
0.0
  0
SPLINE
  5
1fd
100
AcDbEntity
  8
Layer_1
 62
7
100
AcDbSpline
 70
8
 71
3
 72
8
 73
4
 74
0
 40
0
 40
0
 40
0
 40
0
 40
1
 40
1
 40
1
 40
1
 10
99.634873
 20
122.663950
 30
0.0
 10
99.129043
 20
122.104391
 30
0.0
 10
98.618568
 20
121.659936
 30
0.0
 10
98.145634
 20
121.309693
 30
0.0
  0
SPLINE
  5
1fe
100
AcDbEntity
  8
Layer_1
 62
7
100
AcDbSpline
 70
8
 71
3
 72
8
 73
4
 74
0
 40
0
 40
0
 40
0
 40
0
 40
1
 40
1
 40
1
 40
1
 10
98.145634
 20
121.309693
 30
0.0
 10
97.672700
 20
120.959455
 30
0.0
 10
97.237680
 20
120.703068
 30
0.0
 10
96.869642
 20
120.505478
 30
0.0
  0
SPLINE
  5
1ff
100
AcDbEntity
  8
Layer_1
 62
7
100
AcDbSpline
 70
8
 71
3
 72
8
 73
4
 74
0
 40
0
 40
0
 40
0
 40
0
 40
1
 40
1
 40
1
 40
1
 10
96.869642
 20
120.505478
 30
0.0
 10
96.501602
 20
120.307886
 30
0.0
 10
96.200747
 20
120.168618
 30
0.0
 10
95.978658
 20
120.044798
 30
0.0
  0
SPLINE
  5
200
100
AcDbEntity
  8
Layer_1
 62
7
100
AcDbSpline
 70
8
 71
3
 72
8
 73
4
 74
0
 40
0
 40
0
 40
0
 40
0
 40
1
 40
1
 40
1
 40
1
 10
95.978658
 20
120.044798
 30
0.0
 10
95.756566
 20
119.920979
 30
0.0
 10
95.613248
 20
119.812092
 30
0.0
 10
95.541245
 20
119.674986
 30
0.0
  0
SPLINE
  5
201
100
AcDbEntity
  8
Layer_1
 62
7
100
AcDbSpline
 70
8
 71
3
 72
8
 73
4
 74
0
 40
0
 40
0
 40
0
 40
0
 40
1
 40
1
 40
1
 40
1
 10
95.541245
 20
119.674986
 30
0.0
 10
95.469239
 20
119.537876
 30
0.0
 10
95.468355
 20
119.372071
 30
0.0
 10
95.513587
 20
119.141670
 30
0.0
  0
SPLINE
  5
202
100
AcDbEntity
  8
Layer_1
 62
7
100
AcDbSpline
 70
8
 71
3
 72
8
 73
4
 74
0
 40
0
 40
0
 40
0
 40
0
 40
1
 40
1
 40
1
 40
1
 10
95.513581
 20
119.141670
 30
0.0
 10
95.558808
 20
118.911267
 30
0.0
 10
95.649773
 20
118.615904
 30
0.0
 10
95.748196
 20
118.233307
 30
0.0
  0
SPLINE
  5
203
100
AcDbEntity
  8
Layer_1
 62
7
100
AcDbSpline
 70
8
 71
3
 72
8
 73
4
 74
0
 40
0
 40
0
 40
0
 40
0
 40
1
 40
1
 40
1
 40
1
 10
95.748196
 20
118.233307
 30
0.0
 10
95.846618
 20
117.850712
 30
0.0
 10
95.952014
 20
117.380691
 30
0.0
 10
96.019239
 20
116.818832
 30
0.0
  0
SPLINE
  5
204
100
AcDbEntity
  8
Layer_1
 62
7
100
AcDbSpline
 70
8
 71
3
 72
8
 73
4
 74
0
 40
0
 40
0
 40
0
 40
0
 40
1
 40
1
 40
1
 40
1
 10
96.019239
 20
116.818832
 30
0.0
 10
96.086462
 20
116.256970
 30
0.0
 10
96.114994
 20
115.603278
 30
0.0
 10
96.060404
 20
114.872619
 30
0.0
  0
SPLINE
  5
205
100
AcDbEntity
  8
Layer_1
 62
7
100
AcDbSpline
 70
8
 71
3
 72
8
 73
4
 74
0
 40
0
 40
0
 40
0
 40
0
 40
1
 40
1
 40
1
 40
1
 10
96.060404
 20
114.872619
 30
0.0
 10
96.005811
 20
114.141963
 30
0.0
 10
95.867621
 20
113.334545
 30
0.0
 10
95.609670
 20
112.482897
 30
0.0
  0
SPLINE
  5
206
100
AcDbEntity
  8
Layer_1
 62
7
100
AcDbSpline
 70
8
 71
3
 72
8
 73
4
 74
0
 40
0
 40
0
 40
0
 40
0
 40
1
 40
1
 40
1
 40
1
 10
95.609670
 20
112.482897
 30
0.0
 10
95.351719
 20
111.631249
 30
0.0
 10
94.973645
 20
110.735749
 30
0.0
 10
94.453950
 20
109.842166
 30
0.0
  0
SPLINE
  5
207
100
AcDbEntity
  8
Layer_1
 62
7
100
AcDbSpline
 70
8
 71
3
 72
8
 73
4
 74
0
 40
0
 40
0
 40
0
 40
0
 40
1
 40
1
 40
1
 40
1
 10
94.453950
 20
109.842166
 30
0.0
 10
93.934255
 20
108.948585
 30
0.0
 10
93.272745
 20
108.057412
 30
0.0
 10
92.466789
 20
107.221103
 30
0.0
  0
SPLINE
  5
208
100
AcDbEntity
  8
Layer_1
 62
7
100
AcDbSpline
 70
8
 71
3
 72
8
 73
4
 74
0
 40
0
 40
0
 40
0
 40
0
 40
1
 40
1
 40
1
 40
1
 10
92.466789
 20
107.221103
 30
0.0
 10
91.660830
 20
106.384794
 30
0.0
 10
90.710439
 20
105.603880
 30
0.0
 10
89.633233
 20
104.929786
 30
0.0
  0
SPLINE
  5
209
100
AcDbEntity
  8
Layer_1
 62
7
100
AcDbSpline
 70
8
 71
3
 72
8
 73
4
 74
0
 40
0
 40
0
 40
0
 40
0
 40
1
 40
1
 40
1
 40
1
 10
89.633233
 20
104.929786
 30
0.0
 10
88.556028
 20
104.255693
 30
0.0
 10
87.352223
 20
103.688909
 30
0.0
 10
86.058034
 20
103.272151
 30
0.0
  0
SPLINE
  5
20a
100
AcDbEntity
  8
Layer_1
 62
7
100
AcDbSpline
 70
8
 71
3
 72
8
 73
4
 74
0
 40
0
 40
0
 40
0
 40
0
 40
1
 40
1
 40
1
 40
1
 10
86.058034
 20
103.272151
 30
0.0
 10
84.763844
 20
102.855394
 30
0.0
 10
83.379654
 20
102.589032
 30
0.0
 10
81.955778
 20
102.500561
 30
0.0
  0
SPLINE
  5
20b
100
AcDbEntity
  8
Layer_1
 62
7
100
AcDbSpline
 70
8
 71
3
 72
8
 73
4
 74
0
 40
0
 40
0
 40
0
 40
0
 40
1
 40
1
 40
1
 40
1
 10
81.955778
 20
102.500561
 30
0.0
 10
80.531905
 20
102.412093
 30
0.0
 10
79.068843
 20
102.501690
 30
0.0
 10
77.624370
 20
102.777376
 30
0.0
  0
SPLINE
  5
20c
100
AcDbEntity
  8
Layer_1
 62
7
100
AcDbSpline
 70
8
 71
3
 72
8
 73
4
 74
0
 40
0
 40
0
 40
0
 40
0
 40
1
 40
1
 40
1
 40
1
 10
77.624370
 20
102.777376
 30
0.0
 10
76.179894
 20
103.053042
 30
0.0
 10
74.754545
 20
103.514744
 30
0.0
 10
73.405743
 20
104.149408
 30
0.0
  0
SPLINE
  5
20d
100
AcDbEntity
  8
Layer_1
 62
7
100
AcDbSpline
 70
8
 71
3
 72
8
 73
4
 74
0
 40
0
 40
0
 40
0
 40
0
 40
1
 40
1
 40
1
 40
1
 10
73.405743
 20
104.149408
 30
0.0
 10
72.056941
 20
104.784072
 30
0.0
 10
70.785183
 20
105.591490
 30
0.0
 10
69.639742
 20
106.539133
 30
0.0
  0
SPLINE
  5
20e
100
AcDbEntity
  8
Layer_1
 62
7
100
AcDbSpline
 70
8
 71
3
 72
8
 73
4
 74
0
 40
0
 40
0
 40
0
 40
0
 40
1
 40
1
 40
1
 40
1
 10
69.639742
 20
106.539133
 30
0.0
 10
68.494298
 20
107.486773
 30
0.0
 10
67.475552
 20
108.574263
 30
0.0
 10
66.617997
 20
109.754039
 30
0.0
  0
SPLINE
  5
20f
100
AcDbEntity
  8
Layer_1
 62
7
100
AcDbSpline
 70
8
 71
3
 72
8
 73
4
 74
0
 40
0
 40
0
 40
0
 40
0
 40
1
 40
1
 40
1
 40
1
 10
66.617997
 20
109.754039
 30
0.0
 10
65.760442
 20
110.933818
 30
0.0
 10
65.064287
 20
112.205390
 30
0.0
 10
64.544792
 20
113.512765
 30
0.0
  0
SPLINE
  5
210
100
AcDbEntity
  8
Layer_1
 62
7
100
AcDbSpline
 70
8
 71
3
 72
8
 73
4
 74
0
 40
0
 40
0
 40
0
 40
0
 40
1
 40
1
 40
1
 40
1
 10
64.544792
 20
113.512765
 30
0.0
 10
64.025295
 20
114.820140
 30
0.0
 10
63.682468
 20
116.162784
 30
0.0
 10
63.510708
 20
117.484035
 30
0.0
  0
SPLINE
  5
211
100
AcDbEntity
  8
Layer_1
 62
7
100
AcDbSpline
 70
8
 71
3
 72
8
 73
4
 74
0
 40
0
 40
0
 40
0
 40
0
 40
1
 40
1
 40
1
 40
1
 10
63.510708
 20
117.484035
 30
0.0
 10
63.338950
 20
118.805290
 30
0.0
 10
63.338067
 20
120.104661
 30
0.0
 10
63.483050
 20
121.332618
 30
0.0
  0
SPLINE
  5
212
100
AcDbEntity
  8
Layer_1
 62
7
100
AcDbSpline
 70
8
 71
3
 72
8
 73
4
 74
0
 40
0
 40
0
 40
0
 40
0
 40
1
 40
1
 40
1
 40
1
 10
63.483047
 20
121.332618
 30
0.0
 10
63.628024
 20
122.560578
 30
0.0
 10
63.918502
 20
123.716741
 30
0.0
 10
64.314330
 20
124.765340
 30
0.0
  0
SPLINE
  5
213
100
AcDbEntity
  8
Layer_1
 62
7
100
AcDbSpline
 70
8
 71
3
 72
8
 73
4
 74
0
 40
0
 40
0
 40
0
 40
0
 40
1
 40
1
 40
1
 40
1
 10
64.314330
 20
124.765340
 30
0.0
 10
64.710158
 20
125.813940
 30
0.0
 10
65.210854
 20
126.754762
 30
0.0
 10
65.767593
 20
127.570268
 30
0.0
  0
SPLINE
  5
214
100
AcDbEntity
  8
Layer_1
 62
7
100
AcDbSpline
 70
8
 71
3
 72
8
 73
4
 74
0
 40
0
 40
0
 40
0
 40
0
 40
1
 40
1
 40
1
 40
1
 10
65.767593
 20
127.570268
 30
0.0
 10
66.324333
 20
128.385775
 30
0.0
 10
66.936595
 20
129.075957
 30
0.0
 10
67.554512
 20
129.643182
 30
0.0
  0
SPLINE
  5
215
100
AcDbEntity
  8
Layer_1
 62
7
100
AcDbSpline
 70
8
 71
3
 72
8
 73
4
 74
0
 40
0
 40
0
 40
0
 40
0
 40
1
 40
1
 40
1
 40
1
 10
67.554512
 20
129.643182
 30
0.0
 10
68.172429
 20
130.210406
 30
0.0
 10
68.795516
 20
130.654864
 30
0.0
 10
69.380540
 20
130.997436
 30
0.0
  0
SPLINE
  5
216
100
AcDbEntity
  8
Layer_1
 62
7
100
AcDbSpline
 70
8
 71
3
 72
8
 73
4
 74
0
 40
0
 40
0
 40
0
 40
0
 40
1
 40
1
 40
1
 40
1
 10
69.380540
 20
130.997436
 30
0.0
 10
69.965562
 20
131.340012
 30
0.0
 10
70.512144
 20
131.581063
 30
0.0
 10
70.990183
 20
131.755796
 30
0.0
  0
SPLINE
  5
217
100
AcDbEntity
  8
Layer_1
 62
7
100
AcDbSpline
 70
8
 71
3
 72
8
 73
4
 74
0
 40
0
 40
0
 40
0
 40
0
 40
1
 40
1
 40
1
 40
1
 10
70.990183
 20
131.755796
 30
0.0
 10
71.468223
 20
131.930525
 30
0.0
 10
71.877515
 20
132.039412
 30
0.0
 10
72.205469
 20
132.125608
 30
0.0
  0
SPLINE
  5
218
100
AcDbEntity
  8
Layer_1
 62
7
100
AcDbSpline
 70
8
 71
3
 72
8
 73
4
 74
0
 40
0
 40
0
 40
0
 40
0
 40
1
 40
1
 40
1
 40
1
 10
72.205469
 20
132.125608
 30
0.0
 10
72.533423
 20
132.211805
 30
0.0
 10
72.780034
 20
132.275827
 30
0.0
 10
72.951792
 20
132.361244
 30
0.0
  0
SPLINE
  5
219
100
AcDbEntity
  8
Layer_1
 62
7
100
AcDbSpline
 70
8
 71
3
 72
8
 73
4
 74
0
 40
0
 40
0
 40
0
 40
0
 40
1
 40
1
 40
1
 40
1
 10
72.951792
 20
132.361244
 30
0.0
 10
73.123552
 20
132.446664
 30
0.0
 10
73.220653
 20
132.553957
 30
0.0
 10
73.267214
 20
132.719568
 30
0.0
  0
SPLINE
  5
21a
100
AcDbEntity
  8
Layer_1
 62
7
100
AcDbSpline
 70
8
 71
3
 72
8
 73
4
 74
0
 40
0
 40
0
 40
0
 40
0
 40
1
 40
1
 40
1
 40
1
 10
73.267214
 20
132.719568
 30
0.0
 10
73.313778
 20
132.885181
 30
0.0
 10
73.310163
 20
133.109477
 30
0.0
 10
73.293856
 20
133.415387
 30
0.0
  0
SPLINE
  5
21b
100
AcDbEntity
  8
Layer_1
 62
7
100
AcDbSpline
 70
8
 71
3
 72
8
 73
4
 74
0
 40
0
 40
0
 40
0
 40
0
 40
1
 40
1
 40
1
 40
1
 10
73.293851
 20
133.415387
 30
0.0
 10
73.277538
 20
133.721296
 30
0.0
 10
73.249008
 20
134.109018
 30
0.0
 10
73.252686
 20
134.583724
 30
0.0
  0
SPLINE
  5
21c
100
AcDbEntity
  8
Layer_1
 62
7
100
AcDbSpline
 70
8
 71
3
 72
8
 73
4
 74
0
 40
0
 40
0
 40
0
 40
0
 40
1
 40
1
 40
1
 40
1
 10
73.252686
 20
134.583724
 30
0.0
 10
73.256354
 20
135.058434
 30
0.0
 10
73.292775
 20
135.620126
 30
0.0
 10
73.405743
 20
136.254788
 30
0.0
  0
SPLINE
  5
21d
100
AcDbEntity
  8
Layer_1
 62
7
100
AcDbSpline
 70
8
 71
3
 72
8
 73
4
 74
0
 40
0
 40
0
 40
0
 40
0
 40
1
 40
1
 40
1
 40
1
 10
73.405743
 20
136.254788
 30
0.0
 10
73.518708
 20
136.889452
 30
0.0
 10
73.708712
 20
137.596881
 30
0.0
 10
74.011423
 20
138.345479
 30
0.0
  0
SPLINE
  5
21e
100
AcDbEntity
  8
Layer_1
 62
7
100
AcDbSpline
 70
8
 71
3
 72
8
 73
4
 74
0
 40
0
 40
0
 40
0
 40
0
 40
1
 40
1
 40
1
 40
1
 10
74.011423
 20
138.345479
 30
0.0
 10
74.314135
 20
139.094079
 30
0.0
 10
74.729919
 20
139.883468
 30
0.0
 10
75.279925
 20
140.668865
 30
0.0
  0
SPLINE
  5
21f
100
AcDbEntity
  8
Layer_1
 62
7
100
AcDbSpline
 70
8
 71
3
 72
8
 73
4
 74
0
 40
0
 40
0
 40
0
 40
0
 40
1
 40
1
 40
1
 40
1
 10
75.279925
 20
140.668865
 30
0.0
 10
75.829930
 20
141.454264
 30
0.0
 10
76.514353
 20
142.235178
 30
0.0
 10
77.335609
 20
142.960182
 30
0.0
  0
SPLINE
  5
220
100
AcDbEntity
  8
Layer_1
 62
7
100
AcDbSpline
 70
8
 71
3
 72
8
 73
4
 74
0
 40
0
 40
0
 40
0
 40
0
 40
1
 40
1
 40
1
 40
1
 10
77.335609
 20
142.960182
 30
0.0
 10
78.156864
 20
143.685188
 30
0.0
 10
79.114944
 20
144.353753
 30
0.0
 10
80.192149
 20
144.915496
 30
0.0
  0
SPLINE
  5
221
100
AcDbEntity
  8
Layer_1
 62
7
100
AcDbSpline
 70
8
 71
3
 72
8
 73
4
 74
0
 40
0
 40
0
 40
0
 40
0
 40
1
 40
1
 40
1
 40
1
 10
80.192149
 20
144.915496
 30
0.0
 10
81.269355
 20
145.477237
 30
0.0
 10
82.465474
 20
145.931671
 30
0.0
 10
83.744364
 20
146.237123
 30
0.0
  0
SPLINE
  5
222
100
AcDbEntity
  8
Layer_1
 62
7
100
AcDbSpline
 70
8
 71
3
 72
8
 73
4
 74
0
 40
0
 40
0
 40
0
 40
0
 40
1
 40
1
 40
1
 40
1
 10
83.744364
 20
146.237123
 30
0.0
 10
85.023254
 20
146.542578
 30
0.0
 10
86.384534
 20
146.698683
 30
0.0
 10
87.778096
 20
146.678967
 30
0.0
  0
SPLINE
  5
223
100
AcDbEntity
  8
Layer_1
 62
7
100
AcDbSpline
 70
8
 71
3
 72
8
 73
4
 74
0
 40
0
 40
0
 40
0
 40
0
 40
1
 40
1
 40
1
 40
1
 10
87.778096
 20
146.678967
 30
0.0
 10
89.171659
 20
146.659268
 30
0.0
 10
90.597008
 20
146.463522
 30
0.0
 10
91.996723
 20
146.084808
 30
0.0
  0
SPLINE
  5
224
100
AcDbEntity
  8
Layer_1
 62
7
100
AcDbSpline
 70
8
 71
3
 72
8
 73
4
 74
0
 40
0
 40
0
 40
0
 40
0
 40
1
 40
1
 40
1
 40
1
 10
91.996723
 20
146.084808
 30
0.0
 10
93.396435
 20
145.706094
 30
0.0
 10
94.769977
 20
145.144404
 30
0.0
 10
96.060404
 20
144.413745
 30
0.0
  0
SPLINE
  5
225
100
AcDbEntity
  8
Layer_1
 62
7
100
AcDbSpline
 70
8
 71
3
 72
8
 73
4
 74
0
 40
0
 40
0
 40
0
 40
0
 40
1
 40
1
 40
1
 40
1
 10
96.060404
 20
144.413745
 30
0.0
 10
97.350828
 20
143.683088
 30
0.0
 10
98.557647
 20
142.783669
 30
0.0
 10
99.632186
 20
141.748875
 30
0.0
  0
SPLINE
  5
226
100
AcDbEntity
  8
Layer_1
 62
7
100
AcDbSpline
 70
8
 71
3
 72
8
 73
4
 74
0
 40
0
 40
0
 40
0
 40
0
 40
1
 40
1
 40
1
 40
1
 10
99.632186
 20
141.748875
 30
0.0
 10
100.706724
 20
140.714082
 30
0.0
 10
101.648604
 20
139.544291
 30
0.0
 10
102.424052
 20
138.287826
 30
0.0
  0
SPLINE
  5
227
100
AcDbEntity
  8
Layer_1
 62
7
100
AcDbSpline
 70
8
 71
3
 72
8
 73
4
 74
0
 40
0
 40
0
 40
0
 40
0
 40
1
 40
1
 40
1
 40
1
 10
102.424052
 20
138.287826
 30
0.0
 10
103.199494
 20
137.031364
 30
0.0
 10
103.808296
 20
135.688723
 30
0.0
 10
104.236004
 20
134.316556
 30
0.0
  0
SPLINE
  5
228
100
AcDbEntity
  8
Layer_1
 62
7
100
AcDbSpline
 70
8
 71
3
 72
8
 73
4
 74
0
 40
0
 40
0
 40
0
 40
0
 40
1
 40
1
 40
1
 40
1
 10
104.236004
 20
134.316556
 30
0.0
 10
104.663714
 20
132.944392
 30
0.0
 10
104.910323
 20
131.543237
 30
0.0
 10
104.982326
 20
130.170297
 30
0.0
  0
SPLINE
  5
229
100
AcDbEntity
  8
Layer_1
 62
7
100
AcDbSpline
 70
8
 71
3
 72
8
 73
4
 74
0
 40
0
 40
0
 40
0
 40
0
 40
1
 40
1
 40
1
 40
1
 10
104.982326
 20
130.170297
 30
0.0
 10
105.054329
 20
128.797353
 30
0.0
 10
104.951925
 20
127.453118
 30
0.0
 10
104.701080
 20
126.187537
 30
0.0
  0
SPLINE
  5
22a
100
AcDbEntity
  8
Layer_1
 62
7
100
AcDbSpline
 70
8
 71
3
 72
8
 73
4
 74
0
 40
0
 40
0
 40
0
 40
0
 40
1
 40
1
 40
1
 40
1
 10
104.701080
 20
126.187537
 30
0.0
 10
104.450238
 20
124.921954
 30
0.0
 10
104.051326
 20
123.735407
 30
0.0
 10
103.545496
 20
122.663950
 30
0.0
  0
SPLINE
  5
22b
100
AcDbEntity
  8
Layer_1
 62
7
100
AcDbSpline
 70
8
 71
3
 72
8
 73
4
 74
0
 40
0
 40
0
 40
0
 40
0
 40
1
 40
1
 40
1
 40
1
 10
103.545496
 20
122.663950
 30
0.0
 10
103.039666
 20
121.592494
 30
0.0
 10
102.427408
 20
120.636336
 30
0.0
 10
101.758581
 20
119.813162
 30
0.0
  0
SPLINE
  5
22c
100
AcDbEntity
  8
Layer_1
 62
7
100
AcDbSpline
 70
8
 71
3
 72
8
 73
4
 74
0
 40
0
 40
0
 40
0
 40
0
 40
1
 40
1
 40
1
 40
1
 10
101.758581
 20
119.813162
 30
0.0
 10
101.089751
 20
118.989987
 30
0.0
 10
100.364877
 20
118.299804
 30
0.0
 10
99.634873
 20
117.740248
 30
0.0
  0
SPLINE
  5
22d
100
AcDbEntity
  8
Layer_1
 62
7
100
AcDbSpline
 70
8
 71
3
 72
8
 73
4
 74
0
 40
0
 40
0
 40
0
 40
0
 40
1
 40
1
 40
1
 40
1
 10
99.634873
 20
117.740248
 30
0.0
 10
98.904865
 20
117.180692
 30
0.0
 10
98.170213
 20
116.751567
 30
0.0
 10
97.475190
 20
116.431852
 30
0.0
  0
SPLINE
  5
22e
100
AcDbEntity
  8
Layer_1
 62
7
100
AcDbSpline
 70
8
 71
3
 72
8
 73
4
 74
0
 40
0
 40
0
 40
0
 40
0
 40
1
 40
1
 40
1
 40
1
 10
97.475190
 20
116.431852
 30
0.0
 10
96.780167
 20
116.112136
 30
0.0
 10
96.125146
 20
115.901466
 30
0.0
 10
95.541245
 20
115.764359
 30
0.0
  0
SPLINE
  5
22f
100
AcDbEntity
  8
Layer_1
 62
7
100
AcDbSpline
 70
8
 71
3
 72
8
 73
4
 74
0
 40
0
 40
0
 40
0
 40
0
 40
1
 40
1
 40
1
 40
1
 10
95.541245
 20
115.764359
 30
0.0
 10
94.957338
 20
115.627253
 30
0.0
 10
94.444758
 20
115.563231
 30
0.0
 10
94.017050
 20
115.528724
 30
0.0
  0
SPLINE
  5
230
100
AcDbEntity
  8
Layer_1
 62
7
100
AcDbSpline
 70
8
 71
3
 72
8
 73
4
 74
0
 40
0
 40
0
 40
0
 40
0
 40
1
 40
1
 40
1
 40
1
 10
94.017050
 20
115.528724
 30
0.0
 10
93.589342
 20
115.494216
 30
0.0
 10
93.246513
 20
115.488707
 30
0.0
 10
92.982968
 20
115.468080
 30
0.0
  0
SPLINE
  5
231
100
AcDbEntity
  8
Layer_1
 62
7
100
AcDbSpline
 70
8
 71
3
 72
8
 73
4
 74
0
 40
0
 40
0
 40
0
 40
0
 40
1
 40
1
 40
1
 40
1
 10
92.982968
 20
115.468080
 30
0.0
 10
92.719421
 20
115.447449
 30
0.0
 10
92.534963
 20
115.411226
 30
0.0
 10
92.406292
 20
115.322298
 30
0.0
  0
SPLINE
  5
232
100
AcDbEntity
  8
Layer_1
 62
7
100
AcDbSpline
 70
8
 71
3
 72
8
 73
4
 74
0
 40
0
 40
0
 40
0
 40
0
 40
1
 40
1
 40
1
 40
1
 10
92.406292
 20
115.322298
 30
0.0
 10
92.277621
 20
115.233372
 30
0.0
 10
92.204368
 20
115.091378
 30
0.0
 10
92.149778
 20
114.872619
 30
0.0
  0
SPLINE
  5
233
100
AcDbEntity
  8
Layer_1
 62
7
100
AcDbSpline
 70
8
 71
3
 72
8
 73
4
 74
0
 40
0
 40
0
 40
0
 40
0
 40
1
 40
1
 40
1
 40
1
 10
92.149778
 20
114.872619
 30
0.0
 10
92.095187
 20
114.653860
 30
0.0
 10
92.058778
 20
114.358142
 30
0.0
 10
91.996723
 20
113.979428
 30
0.0
  0
SPLINE
  5
234
100
AcDbEntity
  8
Layer_1
 62
7
100
AcDbSpline
 70
8
 71
3
 72
8
 73
4
 74
0
 40
0
 40
0
 40
0
 40
0
 40
1
 40
1
 40
1
 40
1
 10
91.996723
 20
113.979428
 30
0.0
 10
91.934668
 20
113.600714
 30
0.0
 10
91.846448
 20
113.139010
 30
0.0
 10
91.688720
 20
112.607396
 30
0.0
  0
SPLINE
  5
235
100
AcDbEntity
  8
Layer_1
 62
7
100
AcDbSpline
 70
8
 71
3
 72
8
 73
4
 74
0
 40
0
 40
0
 40
0
 40
0
 40
1
 40
1
 40
1
 40
1
 10
91.688720
 20
112.607396
 30
0.0
 10
91.530994
 20
112.075783
 30
0.0
 10
91.303280
 20
111.474463
 30
0.0
 10
90.970258
 20
110.834050
 30
0.0
  0
SPLINE
  5
236
100
AcDbEntity
  8
Layer_1
 62
7
100
AcDbSpline
 70
8
 71
3
 72
8
 73
4
 74
0
 40
0
 40
0
 40
0
 40
0
 40
1
 40
1
 40
1
 40
1
 10
90.970258
 20
110.834050
 30
0.0
 10
90.637233
 20
110.193637
 30
0.0
 10
90.198538
 20
109.514503
 30
0.0
 10
89.633233
 20
108.840410
 30
0.0
  0
SPLINE
  5
237
100
AcDbEntity
  8
Layer_1
 62
7
100
AcDbSpline
 70
8
 71
3
 72
8
 73
4
 74
0
 40
0
 40
0
 40
0
 40
0
 40
1
 40
1
 40
1
 40
1
 10
89.633233
 20
108.840410
 30
0.0
 10
89.067928
 20
108.166319
 30
0.0
 10
88.375820
 20
107.497752
 30
0.0
 10
87.554565
 20
106.885098
 30
0.0
  0
SPLINE
  5
238
100
AcDbEntity
  8
Layer_1
 62
7
100
AcDbSpline
 70
8
 71
3
 72
8
 73
4
 74
0
 40
0
 40
0
 40
0
 40
0
 40
1
 40
1
 40
1
 40
1
 10
87.554565
 20
106.885098
 30
0.0
 10
86.733309
 20
106.272444
 30
0.0
 10
85.782915
 20
105.716229
 30
0.0
 10
84.721009
 20
105.265791
 30
0.0
  0
SPLINE
  5
239
100
AcDbEntity
  8
Layer_1
 62
7
100
AcDbSpline
 70
8
 71
3
 72
8
 73
4
 74
0
 40
0
 40
0
 40
0
 40
0
 40
1
 40
1
 40
1
 40
1
 10
84.721009
 20
105.265791
 30
0.0
 10
83.659102
 20
104.815353
 30
0.0
 10
82.485893
 20
104.471178
 30
0.0
 10
81.237317
 20
104.273907
 30
0.0
  0
SPLINE
  5
23a
100
AcDbEntity
  8
Layer_1
 62
7
100
AcDbSpline
 70
8
 71
3
 72
8
 73
4
 74
0
 40
0
 40
0
 40
0
 40
0
 40
1
 40
1
 40
1
 40
1
 10
81.237317
 20
104.273907
 30
0.0
 10
79.988737
 20
104.076640
 30
0.0
 10
78.665169
 20
104.026644
 30
0.0
 10
77.316367
 20
104.149408
 30
0.0
  0
SPLINE
  5
23b
100
AcDbEntity
  8
Layer_1
 62
7
100
AcDbSpline
 70
8
 71
3
 72
8
 73
4
 74
0
 40
0
 40
0
 40
0
 40
0
 40
1
 40
1
 40
1
 40
1
 10
77.316367
 20
104.149408
 30
0.0
 10
75.967565
 20
104.272172
 30
0.0
 10
74.594026
 20
104.567893
 30
0.0
 10
73.252686
 20
105.042599
 30
0.0
  0
SPLINE
  5
23c
100
AcDbEntity
  8
Layer_1
 62
7
100
AcDbSpline
 70
8
 71
3
 72
8
 73
4
 74
0
 40
0
 40
0
 40
0
 40
0
 40
1
 40
1
 40
1
 40
1
 10
73.252686
 20
105.042599
 30
0.0
 10
71.911348
 20
105.517308
 30
0.0
 10
70.602749
 20
106.170999
 30
0.0
 10
69.383227
 20
106.988812
 30
0.0
  0
SPLINE
  5
23d
100
AcDbEntity
  8
Layer_1
 62
7
100
AcDbSpline
 70
8
 71
3
 72
8
 73
4
 74
0
 40
0
 40
0
 40
0
 40
0
 40
1
 40
1
 40
1
 40
1
 10
69.383227
 20
106.988812
 30
0.0
 10
68.163705
 20
107.806621
 30
0.0
 10
67.033750
 20
108.788340
 30
0.0
 10
66.041321
 20
109.899818
 30
0.0
  0
SPLINE
  5
23e
100
AcDbEntity
  8
Layer_1
 62
7
100
AcDbSpline
 70
8
 71
3
 72
8
 73
4
 74
0
 40
0
 40
0
 40
0
 40
0
 40
1
 40
1
 40
1
 40
1
 10
66.041321
 20
109.899818
 30
0.0
 10
65.048892
 20
111.011300
 30
0.0
 10
64.194365
 20
112.252157
 30
0.0
 10
63.510708
 20
113.573412
 30
0.0
  0
SPLINE
  5
23f
100
AcDbEntity
  8
Layer_1
 62
7
100
AcDbSpline
 70
8
 71
3
 72
8
 73
4
 74
0
 40
0
 40
0
 40
0
 40
0
 40
1
 40
1
 40
1
 40
1
 10
63.510708
 20
113.573412
 30
0.0
 10
62.827050
 20
114.894663
 30
0.0
 10
62.314469
 20
116.295818
 30
0.0
 10
61.986516
 20
117.719671
 30
0.0
  0
SPLINE
  5
240
100
AcDbEntity
  8
Layer_1
 62
7
100
AcDbSpline
 70
8
 71
3
 72
8
 73
4
 74
0
 40
0
 40
0
 40
0
 40
0
 40
1
 40
1
 40
1
 40
1
 10
61.986516
 20
117.719671
 30
0.0
 10
61.658562
 20
119.143527
 30
0.0
 10
61.515241
 20
120.589544
 30
0.0
 10
61.549099
 20
122.000110
 30
0.0
  0
SPLINE
  5
241
100
AcDbEntity
  8
Layer_1
 62
7
100
AcDbSpline
 70
8
 71
3
 72
8
 73
4
 74
0
 40
0
 40
0
 40
0
 40
0
 40
1
 40
1
 40
1
 40
1
 10
61.549099
 20
122.000110
 30
0.0
 10
61.582960
 20
123.410677
 30
0.0
 10
61.793803
 20
124.785296
 30
0.0
 10
62.154647
 20
126.073737
 30
0.0
  0
SPLINE
  5
242
100
AcDbEntity
  8
Layer_1
 62
7
100
AcDbSpline
 70
8
 71
3
 72
8
 73
4
 74
0
 40
0
 40
0
 40
0
 40
0
 40
1
 40
1
 40
1
 40
1
 10
62.154647
 20
126.073737
 30
0.0
 10
62.515493
 20
127.362177
 30
0.0
 10
63.025968
 20
128.564057
 30
0.0
 10
63.643885
 20
129.643182
 30
0.0
  0
SPLINE
  5
243
100
AcDbEntity
  8
Layer_1
 62
7
100
AcDbSpline
 70
8
 71
3
 72
8
 73
4
 74
0
 40
0
 40
0
 40
0
 40
0
 40
1
 40
1
 40
1
 40
1
 10
63.643885
 20
129.643182
 30
0.0
 10
64.261802
 20
130.722306
 30
0.0
 10
64.986676
 20
131.678461
 30
0.0
 10
65.767593
 20
132.493971
 30
0.0
  0
SPLINE
  5
244
100
AcDbEntity
  8
Layer_1
 62
7
100
AcDbSpline
 70
8
 71
3
 72
8
 73
4
 74
0
 40
0
 40
0
 40
0
 40
0
 40
1
 40
1
 40
1
 40
1
 10
65.767593
 20
132.493971
 30
0.0
 10
66.548511
 20
133.309477
 30
0.0
 10
67.384947
 20
133.984324
 30
0.0
 10
68.224956
 20
134.521026
 30
0.0
  0
SPLINE
  5
245
100
AcDbEntity
  8
Layer_1
 62
7
100
AcDbSpline
 70
8
 71
3
 72
8
 73
4
 74
0
 40
0
 40
0
 40
0
 40
0
 40
1
 40
1
 40
1
 40
1
 10
68.224956
 20
134.521026
 30
0.0
 10
69.064962
 20
135.057722
 30
0.0
 10
69.908050
 20
135.456466
 30
0.0
 10
70.708938
 20
135.738555
 30
0.0
  0
SPLINE
  5
246
100
AcDbEntity
  8
Layer_1
 62
7
100
AcDbSpline
 70
8
 71
3
 72
8
 73
4
 74
0
 40
0
 40
0
 40
0
 40
0
 40
1
 40
1
 40
1
 40
1
 10
70.708938
 20
135.738555
 30
0.0
 10
71.509825
 20
136.020645
 30
0.0
 10
72.268134
 20
136.186450
 30
0.0
 10
72.951792
 20
136.271871
 30
0.0
  0
SPLINE
  5
247
100
AcDbEntity
  8
Layer_1
 62
7
100
AcDbSpline
 70
8
 71
3
 72
8
 73
4
 74
0
 40
0
 40
0
 40
0
 40
0
 40
1
 40
1
 40
1
 40
1
 10
72.951792
 20
136.271871
 30
0.0
 10
73.635449
 20
136.357288
 30
0.0
 10
74.244251
 20
136.362800
 30
0.0
 10
74.763746
 20
136.332514
 30
0.0
  0
SPLINE
  5
248
100
AcDbEntity
  8
Layer_1
 62
7
100
AcDbSpline
 70
8
 71
3
 72
8
 73
4
 74
0
 40
0
 40
0
 40
0
 40
0
 40
1
 40
1
 40
1
 40
1
 10
74.763746
 20
136.332514
 30
0.0
 10
75.283241
 20
136.302232
 30
0.0
 10
75.713426
 20
136.236675
 30
0.0
 10
76.059081
 20
136.180617
 30
0.0
  0
SPLINE
  5
249
100
AcDbEntity
  8
Layer_1
 62
7
100
AcDbSpline
 70
8
 71
3
 72
8
 73
4
 74
0
 40
0
 40
0
 40
0
 40
0
 40
1
 40
1
 40
1
 40
1
 10
76.059081
 20
136.180617
 30
0.0
 10
76.404738
 20
136.124559
 30
0.0
 10
76.666059
 20
136.078483
 30
0.0
 10
76.865632
 20
136.080259
 30
0.0
  0
SPLINE
  5
24a
100
AcDbEntity
  8
Layer_1
 62
7
100
AcDbSpline
 70
8
 71
3
 72
8
 73
4
 74
0
 40
0
 40
0
 40
0
 40
0
 40
1
 40
1
 40
1
 40
1
 10
76.865632
 20
136.080259
 30
0.0
 10
77.065209
 20
136.081952
 30
0.0
 10
77.203402
 20
136.132024
 30
0.0
 10
77.316367
 20
136.254788
 30
0.0
  0
SPLINE
  5
24b
100
AcDbEntity
  8
Layer_1
 62
7
100
AcDbSpline
 70
8
 71
3
 72
8
 73
4
 74
0
 40
0
 40
0
 40
0
 40
0
 40
1
 40
1
 40
1
 40
1
 10
77.316367
 20
136.254788
 30
0.0
 10
77.429335
 20
136.377552
 30
0.0
 10
77.517554
 20
136.573284
 30
0.0
 10
77.624370
 20
136.848947
 30
0.0
  0
SPLINE
  5
24c
100
AcDbEntity
  8
Layer_1
 62
7
100
AcDbSpline
 70
8
 71
3
 72
8
 73
4
 74
0
 40
0
 40
0
 40
0
 40
0
 40
1
 40
1
 40
1
 40
1
 10
77.624370
 20
136.848947
 30
0.0
 10
77.731185
 20
137.124613
 30
0.0
 10
77.857116
 20
137.480205
 30
0.0
 10
78.045155
 20
137.903637
 30
0.0
  0
SPLINE
  5
24d
100
AcDbEntity
  8
Layer_1
 62
7
100
AcDbSpline
 70
8
 71
3
 72
8
 73
4
 74
0
 40
0
 40
0
 40
0
 40
0
 40
1
 40
1
 40
1
 40
1
 10
78.045155
 20
137.903637
 30
0.0
 10
78.233194
 20
138.327066
 30
0.0
 10
78.483818
 20
138.818127
 30
0.0
 10
78.832140
 20
139.347238
 30
0.0
  0
SPLINE
  5
24e
100
AcDbEntity
  8
Layer_1
 62
7
100
AcDbSpline
 70
8
 71
3
 72
8
 73
4
 74
0
 40
0
 40
0
 40
0
 40
0
 40
1
 40
1
 40
1
 40
1
 10
78.832140
 20
139.347238
 30
0.0
 10
79.180461
 20
139.876345
 30
0.0
 10
79.626844
 20
140.443129
 30
0.0
 10
80.192149
 20
141.004870
 30
0.0
  0
SPLINE
  5
24f
100
AcDbEntity
  8
Layer_1
 62
7
100
AcDbSpline
 70
8
 71
3
 72
8
 73
4
 74
0
 40
0
 40
0
 40
0
 40
0
 40
1
 40
1
 40
1
 40
1
 10
80.192149
 20
141.004870
 30
0.0
 10
80.757454
 20
141.566613
 30
0.0
 10
81.441877
 20
142.122828
 30
0.0
 10
82.247833
 20
142.624176
 30
0.0
  0
SPLINE
  5
250
100
AcDbEntity
  8
Layer_1
 62
7
100
AcDbSpline
 70
8
 71
3
 72
8
 73
4
 74
0
 40
0
 40
0
 40
0
 40
0
 40
1
 40
1
 40
1
 40
1
 10
82.247833
 20
142.624176
 30
0.0
 10
83.053789
 20
143.125527
 30
0.0
 10
83.981273
 20
143.571486
 30
0.0
 10
85.012866
 20
143.913740
 30
0.0
  0
SPLINE
  5
251
100
AcDbEntity
  8
Layer_1
 62
7
100
AcDbSpline
 70
8
 71
3
 72
8
 73
4
 74
0
 40
0
 40
0
 40
0
 40
0
 40
1
 40
1
 40
1
 40
1
 10
85.012866
 20
143.913740
 30
0.0
 10
86.044461
 20
144.255994
 30
0.0
 10
87.179957
 20
144.494057
 30
0.0
 10
88.383776
 20
144.588276
 30
0.0
  0
SPLINE
  5
252
100
AcDbEntity
  8
Layer_1
 62
7
100
AcDbSpline
 70
8
 71
3
 72
8
 73
4
 74
0
 40
0
 40
0
 40
0
 40
0
 40
1
 40
1
 40
1
 40
1
 10
88.383776
 20
144.588276
 30
0.0
 10
89.587595
 20
144.682496
 30
0.0
 10
90.859353
 20
144.632504
 30
0.0
 10
92.149778
 20
144.413745
 30
0.0
  0
SPLINE
  5
253
100
AcDbEntity
  8
Layer_1
 62
7
100
AcDbSpline
 70
8
 71
3
 72
8
 73
4
 74
0
 40
0
 40
0
 40
0
 40
0
 40
1
 40
1
 40
1
 40
1
 10
92.149778
 20
144.413745
 30
0.0
 10
93.440205
 20
144.194986
 30
0.0
 10
94.748804
 20
143.807266
 30
0.0
 10
96.019239
 20
143.245407
 30
0.0
  0
SPLINE
  5
254
100
AcDbEntity
  8
Layer_1
 62
7
100
AcDbSpline
 70
8
 71
3
 72
8
 73
4
 74
0
 40
0
 40
0
 40
0
 40
0
 40
1
 40
1
 40
1
 40
1
 10
96.019239
 20
143.245407
 30
0.0
 10
97.289674
 20
142.683545
 30
0.0
 10
98.521410
 20
141.947551
 30
0.0
 10
99.658822
 20
141.053057
 30
0.0
  0
SPLINE
  5
255
100
AcDbEntity
  8
Layer_1
 62
7
100
AcDbSpline
 70
8
 71
3
 72
8
 73
4
 74
0
 40
0
 40
0
 40
0
 40
0
 40
1
 40
1
 40
1
 40
1
 10
99.658822
 20
141.053057
 30
0.0
 10
100.796234
 20
140.158562
 30
0.0
 10
101.838831
 20
139.105774
 30
0.0
 10
102.739472
 20
137.929503
 30
0.0
  0
SPLINE
  5
256
100
AcDbEntity
  8
Layer_1
 62
7
100
AcDbSpline
 70
8
 71
3
 72
8
 73
4
 74
0
 40
0
 40
0
 40
0
 40
0
 40
1
 40
1
 40
1
 40
1
 10
102.739472
 20
137.929503
 30
0.0
 10
103.640114
 20
136.753234
 30
0.0
 10
104.398425
 20
135.453864
 30
0.0
 10
104.982326
 20
134.080923
 30
0.0
  0
SPLINE
  5
257
100
AcDbEntity
  8
Layer_1
 62
7
100
AcDbSpline
 70
8
 71
3
 72
8
 73
4
 74
0
 40
0
 40
0
 40
0
 40
0
 40
1
 40
1
 40
1
 40
1
 10
104.982326
 20
134.080923
 30
0.0
 10
105.566230
 20
132.707980
 30
0.0
 10
105.975523
 20
131.261960
 30
0.0
 10
106.197614
 20
129.800484
 30
0.0
  0
SPLINE
  5
258
100
AcDbEntity
  8
Layer_1
 62
7
100
AcDbSpline
 70
8
 71
3
 72
8
 73
4
 74
0
 40
0
 40
0
 40
0
 40
0
 40
1
 40
1
 40
1
 40
1
 10
106.197614
 20
129.800484
 30
0.0
 10
106.419704
 20
128.339005
 30
0.0
 10
106.454586
 20
126.862604
 30
0.0
 10
106.310726
 20
125.429178
 30
0.0
  0
SPLINE
  5
259
100
AcDbEntity
  8
Layer_1
 62
7
100
AcDbSpline
 70
8
 71
3
 72
8
 73
4
 74
0
 40
0
 40
0
 40
0
 40
0
 40
1
 40
1
 40
1
 40
1
 10
106.310726
 20
125.429178
 30
0.0
 10
106.166866
 20
123.995754
 30
0.0
 10
105.844459
 20
122.605801
 30
0.0
 10
105.371525
 20
121.309693
 30
0.0
  0
SPLINE
  5
25a
100
AcDbEntity
  8
Layer_1
 62
7
100
AcDbSpline
 70
8
 71
3
 72
8
 73
4
 74
0
 40
0
 40
0
 40
0
 40
0
 40
1
 40
1
 40
1
 40
1
 10
105.371525
 20
121.309693
 30
0.0
 10
104.898591
 20
120.013587
 30
0.0
 10
104.275503
 20
118.811705
 30
0.0
 10
103.545496
 20
117.740248
 30
0.0
  0
SPLINE
  5
25b
100
AcDbEntity
  8
Layer_1
 62
7
100
AcDbSpline
 70
8
 71
3
 72
8
 73
4
 74
0
 40
0
 40
0
 40
0
 40
0
 40
1
 40
1
 40
1
 40
1
 10
103.545496
 20
117.740248
 30
0.0
 10
102.815489
 20
116.668791
 30
0.0
 10
101.979053
 20
115.727970
 30
0.0
 10
101.088136
 20
114.935320
 30
0.0
  0
SPLINE
  5
25c
100
AcDbEntity
  8
Layer_1
 62
7
100
AcDbSpline
 70
8
 71
3
 72
8
 73
4
 74
0
 40
0
 40
0
 40
0
 40
0
 40
1
 40
1
 40
1
 40
1
 10
101.088136
 20
114.935320
 30
0.0
 10
100.197217
 20
114.142671
 30
0.0
 10
99.252343
 20
113.498205
 30
0.0
 10
98.306472
 20
112.999129
 30
0.0
  0
SPLINE
  5
25d
100
AcDbEntity
  8
Layer_1
 62
7
100
AcDbSpline
 70
8
 71
3
 72
8
 73
4
 74
0
 40
0
 40
0
 40
0
 40
0
 40
1
 40
1
 40
1
 40
1
 10
98.306472
 20
112.999129
 30
0.0
 10
97.360602
 20
112.500056
 30
0.0
 10
96.414223
 20
112.146180
 30
0.0
 10
95.513581
 20
111.915777
 30
0.0
  0
SPLINE
  5
25e
100
AcDbEntity
  8
Layer_1
 62
7
100
AcDbSpline
 70
8
 71
3
 72
8
 73
4
 74
0
 40
0
 40
0
 40
0
 40
0
 40
1
 40
1
 40
1
 40
1
 10
95.513581
 20
111.915777
 30
0.0
 10
94.612940
 20
111.685376
 30
0.0
 10
93.758413
 20
111.578081
 30
0.0
 10
92.982968
 20
111.557453
 30
0.0
  0
SPLINE
  5
25f
100
AcDbEntity
  8
Layer_1
 62
7
100
AcDbSpline
 70
8
 71
3
 72
8
 73
4
 74
0
 40
0
 40
0
 40
0
 40
0
 40
1
 40
1
 40
1
 40
1
 10
92.982968
 20
111.557453
 30
0.0
 10
92.207523
 20
111.536823
 30
0.0
 10
91.511366
 20
111.602383
 30
0.0
 10
90.909761
 20
111.709354
 30
0.0
  0
SPLINE
  5
260
100
AcDbEntity
  8
Layer_1
 62
7
100
AcDbSpline
 70
8
 71
3
 72
8
 73
4
 74
0
 40
0
 40
0
 40
0
 40
0
 40
1
 40
1
 40
1
 40
1
 10
90.909761
 20
111.709354
 30
0.0
 10
90.308156
 20
111.816322
 30
0.0
 10
89.801107
 20
111.964181
 30
0.0
 10
89.384547
 20
112.107391
 30
0.0
  0
SPLINE
  5
261
100
AcDbEntity
  8
Layer_1
 62
7
100
AcDbSpline
 70
8
 71
3
 72
8
 73
4
 74
0
 40
0
 40
0
 40
0
 40
0
 40
1
 40
1
 40
1
 40
1
 10
89.384547
 20
112.107391
 30
0.0
 10
88.967990
 20
112.250600
 30
0.0
 10
88.641727
 20
112.388677
 30
0.0
 10
88.383776
 20
112.482897
 30
0.0
  0
SPLINE
  5
262
100
AcDbEntity
  8
Layer_1
 62
7
100
AcDbSpline
 70
8
 71
3
 72
8
 73
4
 74
0
 40
0
 40
0
 40
0
 40
0
 40
1
 40
1
 40
1
 40
1
 10
88.383776
 20
112.482897
 30
0.0
 10
88.125825
 20
112.577117
 30
0.0
 10
87.935824
 20
112.627112
 30
0.0
 10
87.778096
 20
112.607396
 30
0.0
  0
SPLINE
  5
263
100
AcDbEntity
  8
Layer_1
 62
7
100
AcDbSpline
 70
8
 71
3
 72
8
 73
4
 74
0
 40
0
 40
0
 40
0
 40
0
 40
1
 40
1
 40
1
 40
1
 10
87.778096
 20
112.607396
 30
0.0
 10
87.620368
 20
112.587669
 30
0.0
 10
87.494437
 20
112.498060
 30
0.0
 10
87.357311
 20
112.330581
 30
0.0
  0
SPLINE
  5
264
100
AcDbEntity
  8
Layer_1
 62
7
100
AcDbSpline
 70
8
 71
3
 72
8
 73
4
 74
0
 40
0
 40
0
 40
0
 40
0
 40
1
 40
1
 40
1
 40
1
 10
87.357311
 20
112.330581
 30
0.0
 10
87.220182
 20
112.163102
 30
0.0
 10
87.071341
 20
111.917764
 30
0.0
 10
86.868003
 20
111.605640
 30
0.0
  0
SPLINE
  5
265
100
AcDbEntity
  8
Layer_1
 62
7
100
AcDbSpline
 70
8
 71
3
 72
8
 73
4
 74
0
 40
0
 40
0
 40
0
 40
0
 40
1
 40
1
 40
1
 40
1
 10
86.868003
 20
111.605640
 30
0.0
 10
86.664665
 20
111.293513
 30
0.0
 10
86.406355
 20
110.914802
 30
0.0
 10
86.058034
 20
110.498045
 30
0.0
  0
SPLINE
  5
266
100
AcDbEntity
  8
Layer_1
 62
7
100
AcDbSpline
 70
8
 71
3
 72
8
 73
4
 74
0
 40
0
 40
0
 40
0
 40
0
 40
1
 40
1
 40
1
 40
1
 10
86.058034
 20
110.498045
 30
0.0
 10
85.709712
 20
110.081287
 30
0.0
 10
85.271017
 20
109.626853
 30
0.0
 10
84.721009
 20
109.176415
 30
0.0
  0
SPLINE
  5
267
100
AcDbEntity
  8
Layer_1
 62
7
100
AcDbSpline
 70
8
 71
3
 72
8
 73
4
 74
0
 40
0
 40
0
 40
0
 40
0
 40
1
 40
1
 40
1
 40
1
 10
84.721009
 20
109.176415
 30
0.0
 10
84.171003
 20
108.725977
 30
0.0
 10
83.509491
 20
108.280021
 30
0.0
 10
82.733848
 20
107.886854
 30
0.0
  0
SPLINE
  5
268
100
AcDbEntity
  8
Layer_1
 62
7
100
AcDbSpline
 70
8
 71
3
 72
8
 73
4
 74
0
 40
0
 40
0
 40
0
 40
0
 40
1
 40
1
 40
1
 40
1
 10
82.733848
 20
107.886854
 30
0.0
 10
81.958203
 20
107.493690
 30
0.0
 10
81.068432
 20
107.153841
 30
0.0
 10
80.081597
 20
106.914638
 30
0.0
  0
SPLINE
  5
269
100
AcDbEntity
  8
Layer_1
 62
7
100
AcDbSpline
 70
8
 71
3
 72
8
 73
4
 74
0
 40
0
 40
0
 40
0
 40
0
 40
1
 40
1
 40
1
 40
1
 10
80.081597
 20
106.914638
 30
0.0
 10
79.094765
 20
106.675435
 30
0.0
 10
78.011076
 20
106.537358
 30
0.0
 10
76.865632
 20
106.539133
 30
0.0
  0
SPLINE
  5
26a
100
AcDbEntity
  8
Layer_1
 62
7
100
AcDbSpline
 70
8
 71
3
 72
8
 73
4
 74
0
 40
0
 40
0
 40
0
 40
0
 40
1
 40
1
 40
1
 40
1
 10
76.865632
 20
106.539133
 30
0.0
 10
75.720191
 20
106.540826
 30
0.0
 10
74.513375
 20
106.682900
 30
0.0
 10
73.293851
 20
106.988812
 30
0.0
  0
SPLINE
  5
26b
100
AcDbEntity
  8
Layer_1
 62
7
100
AcDbSpline
 70
8
 71
3
 72
8
 73
4
 74
0
 40
0
 40
0
 40
0
 40
0
 40
1
 40
1
 40
1
 40
1
 10
73.293851
 20
106.988812
 30
0.0
 10
72.074329
 20
107.294721
 30
0.0
 10
70.842592
 20
107.764742
 30
0.0
 10
69.654270
 20
108.403287
 30
0.0
  0
SPLINE
  5
26c
100
AcDbEntity
  8
Layer_1
 62
7
100
AcDbSpline
 70
8
 71
3
 72
8
 73
4
 74
0
 40
0
 40
0
 40
0
 40
0
 40
1
 40
1
 40
1
 40
1
 10
69.654270
 20
108.403287
 30
0.0
 10
68.465946
 20
109.041834
 30
0.0
 10
67.321563
 20
109.848897
 30
0.0
 10
66.275938
 20
110.808181
 30
0.0
  0
SPLINE
  5
26d
100
AcDbEntity
  8
Layer_1
 62
7
100
AcDbSpline
 70
8
 71
3
 72
8
 73
4
 74
0
 40
0
 40
0
 40
0
 40
0
 40
1
 40
1
 40
1
 40
1
 10
66.275938
 20
110.808181
 30
0.0
 10
65.230313
 20
111.767466
 30
0.0
 10
64.283934
 20
112.878767
 30
0.0
 10
63.483047
 20
114.106724
 30
0.0
  0
SPLINE
  5
26e
100
AcDbEntity
  8
Layer_1
 62
7
100
AcDbSpline
 70
8
 71
3
 72
8
 73
4
 74
0
 40
0
 40
0
 40
0
 40
0
 40
1
 40
1
 40
1
 40
1
 10
63.483047
 20
114.106724
 30
0.0
 10
62.682160
 20
115.334684
 30
0.0
 10
62.027139
 20
116.678920
 30
0.0
 10
61.549099
 20
118.089487
 30
0.0
  0
SPLINE
  5
26f
100
AcDbEntity
  8
Layer_1
 62
7
100
AcDbSpline
 70
8
 71
3
 72
8
 73
4
 74
0
 40
0
 40
0
 40
0
 40
0
 40
1
 40
1
 40
1
 40
1
 10
61.549099
 20
118.089487
 30
0.0
 10
61.071060
 20
119.500053
 30
0.0
 10
60.770206
 20
120.976453
 30
0.0
 10
60.658115
 20
122.460790
 30
0.0
  0
SPLINE
  5
270
100
AcDbEntity
  8
Layer_1
 62
7
100
AcDbSpline
 70
8
 71
3
 72
8
 73
4
 74
0
 40
0
 40
0
 40
0
 40
0
 40
1
 40
1
 40
1
 40
1
 10
60.658115
 20
122.460790
 30
0.0
 10
60.546028
 20
123.945126
 30
0.0
 10
60.622708
 20
125.436863
 30
0.0
 10
60.878655
 20
126.877954
 30
0.0
  0
SPLINE
  5
271
100
AcDbEntity
  8
Layer_1
 62
7
100
AcDbSpline
 70
8
 71
3
 72
8
 73
4
 74
0
 40
0
 40
0
 40
0
 40
0
 40
1
 40
1
 40
1
 40
1
 10
60.878655
 20
126.877954
 30
0.0
 10
61.134605
 20
128.319046
 30
0.0
 10
61.569625
 20
129.708996
 30
0.0
 10
62.154647
 20
130.997436
 30
0.0
  0
SPLINE
  5
272
100
AcDbEntity
  8
Layer_1
 62
7
100
AcDbSpline
 70
8
 71
3
 72
8
 73
4
 74
0
 40
0
 40
0
 40
0
 40
0
 40
1
 40
1
 40
1
 40
1
 10
62.154647
 20
130.997436
 30
0.0
 10
62.739671
 20
132.285877
 30
0.0
 10
63.474323
 20
133.472427
 30
0.0
 10
64.314330
 20
134.521026
 30
0.0
  0
SPLINE
  5
273
100
AcDbEntity
  8
Layer_1
 62
7
100
AcDbSpline
 70
8
 71
3
 72
8
 73
4
 74
0
 40
0
 40
0
 40
0
 40
0
 40
1
 40
1
 40
1
 40
1
 10
64.314330
 20
134.521026
 30
0.0
 10
65.154339
 20
135.569623
 30
0.0
 10
66.099210
 20
136.480063
 30
0.0
 10
67.095991
 20
137.235087
 30
0.0
  0
SPLINE
  5
274
100
AcDbEntity
  8
Layer_1
 62
7
100
AcDbSpline
 70
8
 71
3
 72
8
 73
4
 74
0
 40
0
 40
0
 40
0
 40
0
 40
1
 40
1
 40
1
 40
1
 10
67.095991
 20
137.235087
 30
0.0
 10
68.092774
 20
137.990113
 30
0.0
 10
69.140936
 20
138.589714
 30
0.0
 10
70.186561
 20
139.037101
 30
0.0
  0
SPLINE
  5
275
100
AcDbEntity
  8
Layer_1
 62
7
100
AcDbSpline
 70
8
 71
3
 72
8
 73
4
 74
0
 40
0
 40
0
 40
0
 40
0
 40
1
 40
1
 40
1
 40
1
 10
70.186561
 20
139.037101
 30
0.0
 10
71.232189
 20
139.484485
 30
0.0
 10
72.274786
 20
139.779850
 30
0.0
 10
73.267214
 20
139.945461
 30
0.0
  0
SPLINE
  5
276
100
AcDbEntity
  8
Layer_1
 62
7
100
AcDbSpline
 70
8
 71
3
 72
8
 73
4
 74
0
 40
0
 40
0
 40
0
 40
0
 40
1
 40
1
 40
1
 40
1
 10
73.267214
 20
139.945461
 30
0.0
 10
74.259643
 20
140.111075
 30
0.0
 10
75.201526
 20
140.147298
 30
0.0
 10
76.059081
 20
140.091240
 30
0.0
  0
SPLINE
  5
277
100
AcDbEntity
  8
Layer_1
 62
7
100
AcDbSpline
 70
8
 71
3
 72
8
 73
4
 74
0
 40
0
 40
0
 40
0
 40
0
 40
1
 40
1
 40
1
 40
1
 10
76.059081
 20
140.091240
 30
0.0
 10
76.916636
 20
140.035183
 30
0.0
 10
77.689656
 20
139.887324
 30
0.0
 10
78.362164
 20
139.693203
 30
0.0
  0
SPLINE
  5
278
100
AcDbEntity
  8
Layer_1
 62
7
100
AcDbSpline
 70
8
 71
3
 72
8
 73
4
 74
0
 40
0
 40
0
 40
0
 40
0
 40
1
 40
1
 40
1
 40
1
 10
78.362164
 20
139.693203
 30
0.0
 10
79.034674
 20
139.499082
 30
0.0
 10
79.606662
 20
139.259221
 30
0.0
 10
80.081597
 20
139.020018
 30
0.0
  0
SPLINE
  5
279
100
AcDbEntity
  8
Layer_1
 62
7
100
AcDbSpline
 70
8
 71
3
 72
8
 73
4
 74
0
 40
0
 40
0
 40
0
 40
0
 40
1
 40
1
 40
1
 40
1
 10
80.081597
 20
139.020018
 30
0.0
 10
80.556532
 20
138.780815
 30
0.0
 10
80.934605
 20
138.542749
 30
0.0
 10
81.237317
 20
138.345479
 30
0.0
  0
SPLINE
  5
27a
100
AcDbEntity
  8
Layer_1
 62
7
100
AcDbSpline
 70
8
 71
3
 72
8
 73
4
 74
0
 40
0
 40
0
 40
0
 40
0
 40
1
 40
1
 40
1
 40
1
 10
81.237317
 20
138.345479
 30
0.0
 10
81.540025
 20
138.148211
 30
0.0
 10
81.767739
 20
137.992105
 30
0.0
 10
81.955778
 20
137.903637
 30
0.0
  0
SPLINE
  5
27b
100
AcDbEntity
  8
Layer_1
 62
7
100
AcDbSpline
 70
8
 71
3
 72
8
 73
4
 74
0
 40
0
 40
0
 40
0
 40
0
 40
1
 40
1
 40
1
 40
1
 10
81.955778
 20
137.903637
 30
0.0
 10
82.143817
 20
137.815166
 30
0.0
 10
82.292661
 20
137.794530
 30
0.0
 10
82.445087
 20
137.850706
 30
0.0
  0
SPLINE
  5
27c
100
AcDbEntity
  8
Layer_1
 62
7
100
AcDbSpline
 70
8
 71
3
 72
8
 73
4
 74
0
 40
0
 40
0
 40
0
 40
0
 40
1
 40
1
 40
1
 40
1
 10
82.445087
 20
137.850706
 30
0.0
 10
82.597512
 20
137.906880
 30
0.0
 10
82.754041
 20
138.039866
 30
0.0
 10
82.957379
 20
138.239642
 30
0.0
  0
SPLINE
  5
27d
100
AcDbEntity
  8
Layer_1
 62
7
100
AcDbSpline
 70
8
 71
3
 72
8
 73
4
 74
0
 40
0
 40
0
 40
0
 40
0
 40
1
 40
1
 40
1
 40
1
 10
82.957379
 20
138.239642
 30
0.0
 10
83.160715
 20
138.439416
 30
0.0
 10
83.411342
 20
138.705778
 30
0.0
 10
83.744364
 20
139.011232
 30
0.0
  0
SPLINE
  5
27e
100
AcDbEntity
  8
Layer_1
 62
7
100
AcDbSpline
 70
8
 71
3
 72
8
 73
4
 74
0
 40
0
 40
0
 40
0
 40
0
 40
1
 40
1
 40
1
 40
1
 10
83.744364
 20
139.011232
 30
0.0
 10
84.077387
 20
139.316684
 30
0.0
 10
84.493171
 20
139.660860
 30
0.0
 10
85.012866
 20
140.003114
 30
0.0
  0
SPLINE
  5
27f
100
AcDbEntity
  8
Layer_1
 62
7
100
AcDbSpline
 70
8
 71
3
 72
8
 73
4
 74
0
 40
0
 40
0
 40
0
 40
0
 40
1
 40
1
 40
1
 40
1
 10
85.012866
 20
140.003114
 30
0.0
 10
85.532561
 20
140.345367
 30
0.0
 10
86.156360
 20
140.685214
 30
0.0
 10
86.887245
 20
140.975330
 30
0.0
  0
SPLINE
  5
280
100
AcDbEntity
  8
Layer_1
 62
7
100
AcDbSpline
 70
8
 71
3
 72
8
 73
4
 74
0
 40
0
 40
0
 40
0
 40
0
 40
1
 40
1
 40
1
 40
1
 10
86.887245
 20
140.975330
 30
0.0
 10
87.618130
 20
141.265446
 30
0.0
 10
88.456090
 20
141.505306
 30
0.0
 10
89.384547
 20
141.648517
 30
0.0
  0
SPLINE
  5
281
100
AcDbEntity
  8
Layer_1
 62
7
100
AcDbSpline
 70
8
 71
3
 72
8
 73
4
 74
0
 40
0
 40
0
 40
0
 40
0
 40
1
 40
1
 40
1
 40
1
 10
89.384547
 20
141.648517
 30
0.0
 10
90.313008
 20
141.791725
 30
0.0
 10
91.331754
 20
141.837801
 30
0.0
 10
92.406292
 20
141.748875
 30
0.0
  0
SPLINE
  5
282
100
AcDbEntity
  8
Layer_1
 62
7
100
AcDbSpline
 70
8
 71
3
 72
8
 73
4
 74
0
 40
0
 40
0
 40
0
 40
0
 40
1
 40
1
 40
1
 40
1
 10
92.406292
 20
141.748875
 30
0.0
 10
93.480831
 20
141.659947
 30
0.0
 10
94.610784
 20
141.435654
 30
0.0
 10
95.748196
 20
141.053057
 30
0.0
  0
SPLINE
  5
283
100
AcDbEntity
  8
Layer_1
 62
7
100
AcDbSpline
 70
8
 71
3
 72
8
 73
4
 74
0
 40
0
 40
0
 40
0
 40
0
 40
1
 40
1
 40
1
 40
1
 10
95.748196
 20
141.053057
 30
0.0
 10
96.885610
 20
140.670462
 30
0.0
 10
98.029990
 20
140.129371
 30
0.0
 10
99.126525
 20
139.426034
 30
0.0
  0
SPLINE
  5
284
100
AcDbEntity
  8
Layer_1
 62
7
100
AcDbSpline
 70
8
 71
3
 72
8
 73
4
 74
0
 40
0
 40
0
 40
0
 40
0
 40
1
 40
1
 40
1
 40
1
 10
99.126525
 20
139.426034
 30
0.0
 10
100.223063
 20
138.722700
 30
0.0
 10
101.271225
 20
137.857124
 30
0.0
 10
102.217099
 20
136.846150
 30
0.0
  0
SPLINE
  5
285
100
AcDbEntity
  8
Layer_1
 62
7
100
AcDbSpline
 70
8
 71
3
 72
8
 73
4
 74
0
 40
0
 40
0
 40
0
 40
0
 40
1
 40
1
 40
1
 40
1
 10
102.217099
 20
136.846150
 30
0.0
 10
103.162969
 20
135.835177
 30
0.0
 10
104.006057
 20
134.679011
 30
0.0
 10
104.701080
 20
133.413428
 30
0.0
  0
SPLINE
  5
286
100
AcDbEntity
  8
Layer_1
 62
7
100
AcDbSpline
 70
8
 71
3
 72
8
 73
4
 74
0
 40
0
 40
0
 40
0
 40
0
 40
1
 40
1
 40
1
 40
1
 10
104.701080
 20
133.413428
 30
0.0
 10
105.396106
 20
132.147848
 30
0.0
 10
105.942686
 20
130.773228
 30
0.0
 10
106.310726
 20
129.339804
 30
0.0
  0
SPLINE
  5
287
100
AcDbEntity
  8
Layer_1
 62
7
100
AcDbSpline
 70
8
 71
3
 72
8
 73
4
 74
0
 40
0
 40
0
 40
0
 40
0
 40
1
 40
1
 40
1
 40
1
 10
106.310726
 20
129.339804
 30
0.0
 10
106.678764
 20
127.906381
 30
0.0
 10
106.868059
 20
126.414644
 30
0.0
 10
106.868059
 20
124.922640
 30
0.0
  0
SPLINE
  5
288
100
AcDbEntity
  8
Layer_1
 62
7
100
AcDbSpline
 70
8
 71
3
 72
8
 73
4
 74
0
 40
0
 40
0
 40
0
 40
0
 40
1
 40
1
 40
1
 40
1
 10
106.868059
 20
124.922640
 30
0.0
 10
106.868059
 20
123.430638
 30
0.0
 10
106.678764
 20
121.938902
 30
0.0
 10
106.310726
 20
120.505478
 30
0.0
  0
SPLINE
  5
289
100
AcDbEntity
  8
Layer_1
 62
7
100
AcDbSpline
 70
8
 71
3
 72
8
 73
4
 74
0
 40
0
 40
0
 40
0
 40
0
 40
1
 40
1
 40
1
 40
1
 10
106.310726
 20
120.505478
 30
0.0
 10
105.942686
 20
119.072052
 30
0.0
 10
105.396106
 20
117.697435
 30
0.0
 10
104.701080
 20
116.431852
 30
0.0
  0
SPLINE
  5
28a
100
AcDbEntity
  8
Layer_1
 62
7
100
AcDbSpline
 70
8
 71
3
 72
8
 73
4
 74
0
 40
0
 40
0
 40
0
 40
0
 40
1
 40
1
 40
1
 40
1
 10
104.701080
 20
116.431852
 30
0.0
 10
104.006057
 20
115.166271
 30
0.0
 10
103.162969
 20
114.010105
 30
0.0
 10
102.217099
 20
112.999129
 30
0.0
  0
SPLINE
  5
28b
100
AcDbEntity
  8
Layer_1
 62
7
100
AcDbSpline
 70
8
 71
3
 72
8
 73
4
 74
0
 40
0
 40
0
 40
0
 40
0
 40
1
 40
1
 40
1
 40
1
 10
102.217099
 20
112.999129
 30
0.0
 10
101.271225
 20
111.988155
 30
0.0
 10
100.223063
 20
111.122583
 30
0.0
 10
99.126525
 20
110.419245
 30
0.0
  0
SPLINE
  5
28c
100
AcDbEntity
  8
Layer_1
 62
7
100
AcDbSpline
 70
8
 71
3
 72
8
 73
4
 74
0
 40
0
 40
0
 40
0
 40
0
 40
1
 40
1
 40
1
 40
1
 10
99.126525
 20
110.419245
 30
0.0
 10
98.029990
 20
109.715908
 30
0.0
 10
96.885610
 20
109.174820
 30
0.0
 10
95.748196
 20
108.792223
 30
0.0
  0
SPLINE
  5
28d
100
AcDbEntity
  8
Layer_1
 62
7
100
AcDbSpline
 70
8
 71
3
 72
8
 73
4
 74
0
 40
0
 40
0
 40
0
 40
0
 40
1
 40
1
 40
1
 40
1
 10
95.748196
 20
108.792223
 30
0.0
 10
94.610784
 20
108.409628
 30
0.0
 10
93.480831
 20
108.185332
 30
0.0
 10
92.406292
 20
108.096407
 30
0.0
  0
SPLINE
  5
28e
100
AcDbEntity
  8
Layer_1
 62
7
100
AcDbSpline
 70
8
 71
3
 72
8
 73
4
 74
0
 40
0
 40
0
 40
0
 40
0
 40
1
 40
1
 40
1
 40
1
 10
92.406292
 20
108.096407
 30
0.0
 10
91.331754
 20
108.007479
 30
0.0
 10
90.313008
 20
108.053557
 30
0.0
 10
89.384547
 20
108.196765
 30
0.0
  0
SPLINE
  5
28f
100
AcDbEntity
  8
Layer_1
 62
7
100
AcDbSpline
 70
8
 71
3
 72
8
 73
4
 74
0
 40
0
 40
0
 40
0
 40
0
 40
1
 40
1
 40
1
 40
1
 10
89.384547
 20
108.196765
 30
0.0
 10
88.456090
 20
108.339973
 30
0.0
 10
87.618130
 20
108.579834
 30
0.0
 10
86.887245
 20
108.869950
 30
0.0
  0
SPLINE
  5
290
100
AcDbEntity
  8
Layer_1
 62
7
100
AcDbSpline
 70
8
 71
3
 72
8
 73
4
 74
0
 40
0
 40
0
 40
0
 40
0
 40
1
 40
1
 40
1
 40
1
 10
86.887245
 20
108.869950
 30
0.0
 10
86.156360
 20
109.160066
 30
0.0
 10
85.532561
 20
109.499915
 30
0.0
 10
85.012866
 20
109.842166
 30
0.0
  0
SPLINE
  5
291
100
AcDbEntity
  8
Layer_1
 62
7
100
AcDbSpline
 70
8
 71
3
 72
8
 73
4
 74
0
 40
0
 40
0
 40
0
 40
0
 40
1
 40
1
 40
1
 40
1
 10
85.012866
 20
109.842166
 30
0.0
 10
84.493171
 20
110.184420
 30
0.0
 10
84.077387
 20
110.528595
 30
0.0
 10
83.744364
 20
110.834050
 30
0.0
  0
SPLINE
  5
292
100
AcDbEntity
  8
Layer_1
 62
7
100
AcDbSpline
 70
8
 71
3
 72
8
 73
4
 74
0
 40
0
 40
0
 40
0
 40
0
 40
1
 40
1
 40
1
 40
1
 10
83.744364
 20
110.834050
 30
0.0
 10
83.411342
 20
111.139502
 30
0.0
 10
83.160715
 20
111.405866
 30
0.0
 10
82.957379
 20
111.605640
 30
0.0
  0
SPLINE
  5
293
100
AcDbEntity
  8
Layer_1
 62
7
100
AcDbSpline
 70
8
 71
3
 72
8
 73
4
 74
0
 40
0
 40
0
 40
0
 40
0
 40
1
 40
1
 40
1
 40
1
 10
82.957379
 20
111.605640
 30
0.0
 10
82.754041
 20
111.805414
 30
0.0
 10
82.597512
 20
111.938400
 30
0.0
 10
82.445087
 20
111.994576
 30
0.0
  0
SPLINE
  5
294
100
AcDbEntity
  8
Layer_1
 62
7
100
AcDbSpline
 70
8
 71
3
 72
8
 73
4
 74
0
 40
0
 40
0
 40
0
 40
0
 40
1
 40
1
 40
1
 40
1
 10
82.445087
 20
111.994576
 30
0.0
 10
82.292661
 20
112.050752
 30
0.0
 10
82.143817
 20
112.030116
 30
0.0
 10
81.955778
 20
111.941645
 30
0.0
  0
SPLINE
  5
295
100
AcDbEntity
  8
Layer_1
 62
7
100
AcDbSpline
 70
8
 71
3
 72
8
 73
4
 74
0
 40
0
 40
0
 40
0
 40
0
 40
1
 40
1
 40
1
 40
1
 10
81.955778
 20
111.941645
 30
0.0
 10
81.767739
 20
111.853174
 30
0.0
 10
81.540025
 20
111.697071
 30
0.0
 10
81.237317
 20
111.499801
 30
0.0
  0
SPLINE
  5
296
100
AcDbEntity
  8
Layer_1
 62
7
100
AcDbSpline
 70
8
 71
3
 72
8
 73
4
 74
0
 40
0
 40
0
 40
0
 40
0
 40
1
 40
1
 40
1
 40
1
 10
81.237317
 20
111.499801
 30
0.0
 10
80.934605
 20
111.302530
 30
0.0
 10
80.556532
 20
111.064467
 30
0.0
 10
80.081597
 20
110.825262
 30
0.0
  0
SPLINE
  5
297
100
AcDbEntity
  8
Layer_1
 62
7
100
AcDbSpline
 70
8
 71
3
 72
8
 73
4
 74
0
 40
0
 40
0
 40
0
 40
0
 40
1
 40
1
 40
1
 40
1
 10
80.081597
 20
110.825262
 30
0.0
 10
79.606662
 20
110.586058
 30
0.0
 10
79.034674
 20
110.346198
 30
0.0
 10
78.362164
 20
110.152077
 30
0.0
  0
SPLINE
  5
298
100
AcDbEntity
  8
Layer_1
 62
7
100
AcDbSpline
 70
8
 71
3
 72
8
 73
4
 74
0
 40
0
 40
0
 40
0
 40
0
 40
1
 40
1
 40
1
 40
1
 10
78.362164
 20
110.152077
 30
0.0
 10
77.689656
 20
109.957956
 30
0.0
 10
76.916636
 20
109.810097
 30
0.0
 10
76.059081
 20
109.754039
 30
0.0
  0
SPLINE
  5
299
100
AcDbEntity
  8
Layer_1
 62
7
100
AcDbSpline
 70
8
 71
3
 72
8
 73
4
 74
0
 40
0
 40
0
 40
0
 40
0
 40
1
 40
1
 40
1
 40
1
 10
76.059081
 20
109.754039
 30
0.0
 10
75.201526
 20
109.697981
 30
0.0
 10
74.259643
 20
109.734199
 30
0.0
 10
73.267214
 20
109.899818
 30
0.0
  0
SPLINE
  5
29a
100
AcDbEntity
  8
Layer_1
 62
7
100
AcDbSpline
 70
8
 71
3
 72
8
 73
4
 74
0
 40
0
 40
0
 40
0
 40
0
 40
1
 40
1
 40
1
 40
1
 10
73.267214
 20
109.899818
 30
0.0
 10
72.274786
 20
110.065432
 30
0.0
 10
71.232189
 20
110.360794
 30
0.0
 10
70.186561
 20
110.808181
 30
0.0
  0
SPLINE
  5
29b
100
AcDbEntity
  8
Layer_1
 62
7
100
AcDbSpline
 70
8
 71
3
 72
8
 73
4
 74
0
 40
0
 40
0
 40
0
 40
0
 40
1
 40
1
 40
1
 40
1
 10
70.186561
 20
110.808181
 30
0.0
 10
69.140936
 20
111.255569
 30
0.0
 10
68.092774
 20
111.855169
 30
0.0
 10
67.095991
 20
112.610196
 30
0.0
  0
SPLINE
  5
29c
100
AcDbEntity
  8
Layer_1
 62
7
100
AcDbSpline
 70
8
 71
3
 72
8
 73
4
 74
0
 40
0
 40
0
 40
0
 40
0
 40
1
 40
1
 40
1
 40
1
 10
67.095991
 20
112.610196
 30
0.0
 10
66.099210
 20
113.365219
 30
0.0
 10
65.154339
 20
114.275660
 30
0.0
 10
64.314330
 20
115.324256
 30
0.0
  0
SPLINE
  5
29d
100
AcDbEntity
  8
Layer_1
 62
7
100
AcDbSpline
 70
8
 71
3
 72
8
 73
4
 74
0
 40
0
 40
0
 40
0
 40
0
 40
1
 40
1
 40
1
 40
1
 10
64.314330
 20
115.324256
 30
0.0
 10
63.474323
 20
116.372856
 30
0.0
 10
62.739671
 20
117.559403
 30
0.0
 10
62.154647
 20
118.847843
 30
0.0
  0
SPLINE
  5
29e
100
AcDbEntity
  8
Layer_1
 62
7
100
AcDbSpline
 70
8
 71
3
 72
8
 73
4
 74
0
 40
0
 40
0
 40
0
 40
0
 40
1
 40
1
 40
1
 40
1
 10
62.154647
 20
118.847843
 30
0.0
 10
61.569625
 20
120.136284
 30
0.0
 10
61.134605
 20
121.526236
 30
0.0
 10
60.878655
 20
122.967328
 30
0.0
  0
SPLINE
  5
29f
100
AcDbEntity
  8
Layer_1
 62
7
100
AcDbSpline
 70
8
 71
3
 72
8
 73
4
 74
0
 40
0
 40
0
 40
0
 40
0
 40
1
 40
1
 40
1
 40
1
 10
60.878655
 20
122.967328
 30
0.0
 10
60.622708
 20
124.408420
 30
0.0
 10
60.546028
 20
125.900156
 30
0.0
 10
60.658115
 20
127.384492
 30
0.0
  0
SPLINE
  5
2a0
100
AcDbEntity
  8
Layer_1
 62
7
100
AcDbSpline
 70
8
 71
3
 72
8
 73
4
 74
0
 40
0
 40
0
 40
0
 40
0
 40
1
 40
1
 40
1
 40
1
 10
60.658115
 20
127.384492
 30
0.0
 10
60.770206
 20
128.868829
 30
0.0
 10
61.071060
 20
130.345229
 30
0.0
 10
61.549099
 20
131.755796
 30
0.0
  0
SPLINE
  5
2a1
100
AcDbEntity
  8
Layer_1
 62
7
100
AcDbSpline
 70
8
 71
3
 72
8
 73
4
 74
0
 40
0
 40
0
 40
0
 40
0
 40
1
 40
1
 40
1
 40
1
 10
61.549099
 20
131.755796
 30
0.0
 10
62.027139
 20
133.166362
 30
0.0
 10
62.682160
 20
134.510598
 30
0.0
 10
63.483047
 20
135.738555
 30
0.0
  0
SPLINE
  5
2a2
100
AcDbEntity
  8
Layer_1
 62
7
100
AcDbSpline
 70
8
 71
3
 72
8
 73
4
 74
0
 40
0
 40
0
 40
0
 40
0
 40
1
 40
1
 40
1
 40
1
 10
63.483047
 20
135.738555
 30
0.0
 10
64.283934
 20
136.966513
 30
0.0
 10
65.230313
 20
138.077813
 30
0.0
 10
66.275938
 20
139.037101
 30
0.0
  0
SPLINE
  5
2a3
100
AcDbEntity
  8
Layer_1
 62
7
100
AcDbSpline
 70
8
 71
3
 72
8
 73
4
 74
0
 40
0
 40
0
 40
0
 40
0
 40
1
 40
1
 40
1
 40
1
 10
66.275938
 20
139.037101
 30
0.0
 10
67.321563
 20
139.996385
 30
0.0
 10
68.465946
 20
140.803448
 30
0.0
 10
69.654270
 20
141.441993
 30
0.0
  0
SPLINE
  5
2a4
100
AcDbEntity
  8
Layer_1
 62
7
100
AcDbSpline
 70
8
 71
3
 72
8
 73
4
 74
0
 40
0
 40
0
 40
0
 40
0
 40
1
 40
1
 40
1
 40
1
 10
69.654270
 20
141.441993
 30
0.0
 10
70.842592
 20
142.080540
 30
0.0
 10
72.074329
 20
142.550561
 30
0.0
 10
73.293851
 20
142.856471
 30
0.0
  0
SPLINE
  5
2a5
100
AcDbEntity
  8
Layer_1
 62
7
100
AcDbSpline
 70
8
 71
3
 72
8
 73
4
 74
0
 40
0
 40
0
 40
0
 40
0
 40
1
 40
1
 40
1
 40
1
 10
73.293851
 20
142.856471
 30
0.0
 10
74.513375
 20
143.162380
 30
0.0
 10
75.720191
 20
143.304374
 30
0.0
 10
76.865632
 20
143.306149
 30
0.0
  0
SPLINE
  5
2a6
100
AcDbEntity
  8
Layer_1
 62
7
100
AcDbSpline
 70
8
 71
3
 72
8
 73
4
 74
0
 40
0
 40
0
 40
0
 40
0
 40
1
 40
1
 40
1
 40
1
 10
76.865632
 20
143.306149
 30
0.0
 10
78.011076
 20
143.307843
 30
0.0
 10
79.094765
 20
143.169847
 30
0.0
 10
80.081597
 20
142.930644
 30
0.0
  0
SPLINE
  5
2a7
100
AcDbEntity
  8
Layer_1
 62
7
100
AcDbSpline
 70
8
 71
3
 72
8
 73
4
 74
0
 40
0
 40
0
 40
0
 40
0
 40
1
 40
1
 40
1
 40
1
 10
80.081597
 20
142.930644
 30
0.0
 10
81.068432
 20
142.691438
 30
0.0
 10
81.958203
 20
142.351592
 30
0.0
 10
82.733848
 20
141.958425
 30
0.0
  0
SPLINE
  5
2a8
100
AcDbEntity
  8
Layer_1
 62
7
100
AcDbSpline
 70
8
 71
3
 72
8
 73
4
 74
0
 40
0
 40
0
 40
0
 40
0
 40
1
 40
1
 40
1
 40
1
 10
82.733848
 20
141.958425
 30
0.0
 10
83.509491
 20
141.565262
 30
0.0
 10
84.171003
 20
141.119303
 30
0.0
 10
84.721009
 20
140.668865
 30
0.0
  0
SPLINE
  5
2a9
100
AcDbEntity
  8
Layer_1
 62
7
100
AcDbSpline
 70
8
 71
3
 72
8
 73
4
 74
0
 40
0
 40
0
 40
0
 40
0
 40
1
 40
1
 40
1
 40
1
 10
84.721009
 20
140.668865
 30
0.0
 10
85.271017
 20
140.218427
 30
0.0
 10
85.709712
 20
139.763995
 30
0.0
 10
86.058034
 20
139.347238
 30
0.0
  0
SPLINE
  5
2aa
100
AcDbEntity
  8
Layer_1
 62
7
100
AcDbSpline
 70
8
 71
3
 72
8
 73
4
 74
0
 40
0
 40
0
 40
0
 40
0
 40
1
 40
1
 40
1
 40
1
 10
86.058034
 20
139.347238
 30
0.0
 10
86.406355
 20
138.930477
 30
0.0
 10
86.664665
 20
138.551766
 30
0.0
 10
86.868003
 20
138.239642
 30
0.0
  0
SPLINE
  5
2ab
100
AcDbEntity
  8
Layer_1
 62
7
100
AcDbSpline
 70
8
 71
3
 72
8
 73
4
 74
0
 40
0
 40
0
 40
0
 40
0
 40
1
 40
1
 40
1
 40
1
 10
86.868003
 20
138.239642
 30
0.0
 10
87.071341
 20
137.927516
 30
0.0
 10
87.220182
 20
137.682180
 30
0.0
 10
87.357311
 20
137.514701
 30
0.0
  0
SPLINE
  5
2ac
100
AcDbEntity
  8
Layer_1
 62
7
100
AcDbSpline
 70
8
 71
3
 72
8
 73
4
 74
0
 40
0
 40
0
 40
0
 40
0
 40
1
 40
1
 40
1
 40
1
 10
87.357311
 20
137.514701
 30
0.0
 10
87.494437
 20
137.347222
 30
0.0
 10
87.620368
 20
137.257599
 30
0.0
 10
87.778096
 20
137.237883
 30
0.0
  0
SPLINE
  5
2ad
100
AcDbEntity
  8
Layer_1
 62
7
100
AcDbSpline
 70
8
 71
3
 72
8
 73
4
 74
0
 40
0
 40
0
 40
0
 40
0
 40
1
 40
1
 40
1
 40
1
 10
87.778096
 20
137.237883
 30
0.0
 10
87.935824
 20
137.218184
 30
0.0
 10
88.125825
 20
137.268163
 30
0.0
 10
88.383776
 20
137.362386
 30
0.0
  0
SPLINE
  5
2ae
100
AcDbEntity
  8
Layer_1
 62
7
100
AcDbSpline
 70
8
 71
3
 72
8
 73
4
 74
0
 40
0
 40
0
 40
0
 40
0
 40
1
 40
1
 40
1
 40
1
 10
88.383776
 20
137.362386
 30
0.0
 10
88.641727
 20
137.456606
 30
0.0
 10
88.967990
 20
137.594683
 30
0.0
 10
89.384547
 20
137.737891
 30
0.0
  0
SPLINE
  5
2af
100
AcDbEntity
  8
Layer_1
 62
7
100
AcDbSpline
 70
8
 71
3
 72
8
 73
4
 74
0
 40
0
 40
0
 40
0
 40
0
 40
1
 40
1
 40
1
 40
1
 10
89.384547
 20
137.737891
 30
0.0
 10
89.801107
 20
137.881099
 30
0.0
 10
90.308156
 20
138.028961
 30
0.0
 10
90.909761
 20
138.135929
 30
0.0
  0
SPLINE
  5
2b0
100
AcDbEntity
  8
Layer_1
 62
7
100
AcDbSpline
 70
8
 71
3
 72
8
 73
4
 74
0
 40
0
 40
0
 40
0
 40
0
 40
1
 40
1
 40
1
 40
1
 10
90.909761
 20
138.135929
 30
0.0
 10
91.511366
 20
138.242896
 30
0.0
 10
92.207523
 20
138.308457
 30
0.0
 10
92.982968
 20
138.287826
 30
0.0
  0
SPLINE
  5
2b1
100
AcDbEntity
  8
Layer_1
 62
7
100
AcDbSpline
 70
8
 71
3
 72
8
 73
4
 74
0
 40
0
 40
0
 40
0
 40
0
 40
1
 40
1
 40
1
 40
1
 10
92.982968
 20
138.287826
 30
0.0
 10
93.758413
 20
138.267196
 30
0.0
 10
94.612940
 20
138.159906
 30
0.0
 10
95.513581
 20
137.929503
 30
0.0
  0
SPLINE
  5
2b2
100
AcDbEntity
  8
Layer_1
 62
7
100
AcDbSpline
 70
8
 71
3
 72
8
 73
4
 74
0
 40
0
 40
0
 40
0
 40
0
 40
1
 40
1
 40
1
 40
1
 10
95.513581
 20
137.929503
 30
0.0
 10
96.414223
 20
137.699102
 30
0.0
 10
97.360602
 20
137.345227
 30
0.0
 10
98.306472
 20
136.846150
 30
0.0
  0
SPLINE
  5
2b3
100
AcDbEntity
  8
Layer_1
 62
7
100
AcDbSpline
 70
8
 71
3
 72
8
 73
4
 74
0
 40
0
 40
0
 40
0
 40
0
 40
1
 40
1
 40
1
 40
1
 10
98.306472
 20
136.846150
 30
0.0
 10
99.252343
 20
136.347077
 30
0.0
 10
100.197217
 20
135.702609
 30
0.0
 10
101.088136
 20
134.909962
 30
0.0
  0
SPLINE
  5
2b4
100
AcDbEntity
  8
Layer_1
 62
7
100
AcDbSpline
 70
8
 71
3
 72
8
 73
4
 74
0
 40
0
 40
0
 40
0
 40
0
 40
1
 40
1
 40
1
 40
1
 10
101.088136
 20
134.909962
 30
0.0
 10
101.979053
 20
134.117313
 30
0.0
 10
102.815489
 20
133.176491
 30
0.0
 10
103.545496
 20
132.105034
 30
0.0
  0
SPLINE
  5
2b5
100
AcDbEntity
  8
Layer_1
 62
7
100
AcDbSpline
 70
8
 71
3
 72
8
 73
4
 74
0
 40
0
 40
0
 40
0
 40
0
 40
1
 40
1
 40
1
 40
1
 10
103.545496
 20
132.105034
 30
0.0
 10
104.275503
 20
131.033575
 30
0.0
 10
104.898591
 20
129.831695
 30
0.0
 10
105.371525
 20
128.535587
 30
0.0
  0
SPLINE
  5
2b6
100
AcDbEntity
  8
Layer_1
 62
7
100
AcDbSpline
 70
8
 71
3
 72
8
 73
4
 74
0
 40
0
 40
0
 40
0
 40
0
 40
1
 40
1
 40
1
 40
1
 10
105.371525
 20
128.535587
 30
0.0
 10
105.844459
 20
127.239478
 30
0.0
 10
106.166866
 20
125.849525
 30
0.0
 10
106.310726
 20
124.416102
 30
0.0
  0
SPLINE
  5
2b7
100
AcDbEntity
  8
Layer_1
 62
7
100
AcDbSpline
 70
8
 71
3
 72
8
 73
4
 74
0
 40
0
 40
0
 40
0
 40
0
 40
1
 40
1
 40
1
 40
1
 10
106.310726
 20
124.416102
 30
0.0
 10
106.454586
 20
122.982678
 30
0.0
 10
106.419704
 20
121.506278
 30
0.0
 10
106.197614
 20
120.044798
 30
0.0
  0
SPLINE
  5
2b8
100
AcDbEntity
  8
Layer_1
 62
7
100
AcDbSpline
 70
8
 71
3
 72
8
 73
4
 74
0
 40
0
 40
0
 40
0
 40
0
 40
1
 40
1
 40
1
 40
1
 10
106.197614
 20
120.044798
 30
0.0
 10
105.975523
 20
118.583322
 30
0.0
 10
105.566230
 20
117.137303
 30
0.0
 10
104.982326
 20
115.764359
 30
0.0
  0
SPLINE
  5
2b9
100
AcDbEntity
  8
Layer_1
 62
7
100
AcDbSpline
 70
8
 71
3
 72
8
 73
4
 74
0
 40
0
 40
0
 40
0
 40
0
 40
1
 40
1
 40
1
 40
1
 10
104.982326
 20
115.764359
 30
0.0
 10
104.398425
 20
114.391419
 30
0.0
 10
103.640114
 20
113.092045
 30
0.0
 10
102.739472
 20
111.915777
 30
0.0
  0
SPLINE
  5
2ba
100
AcDbEntity
  8
Layer_1
 62
7
100
AcDbSpline
 70
8
 71
3
 72
8
 73
4
 74
0
 40
0
 40
0
 40
0
 40
0
 40
1
 40
1
 40
1
 40
1
 10
102.739472
 20
111.915777
 30
0.0
 10
101.838831
 20
110.739508
 30
0.0
 10
100.796234
 20
109.686721
 30
0.0
 10
99.658822
 20
108.792223
 30
0.0
  0
SPLINE
  5
2bb
100
AcDbEntity
  8
Layer_1
 62
7
100
AcDbSpline
 70
8
 71
3
 72
8
 73
4
 74
0
 40
0
 40
0
 40
0
 40
0
 40
1
 40
1
 40
1
 40
1
 10
99.658822
 20
108.792223
 30
0.0
 10
98.521410
 20
107.897728
 30
0.0
 10
97.289674
 20
107.161735
 30
0.0
 10
96.019239
 20
106.599876
 30
0.0
  0
SPLINE
  5
2bc
100
AcDbEntity
  8
Layer_1
 62
7
100
AcDbSpline
 70
8
 71
3
 72
8
 73
4
 74
0
 40
0
 40
0
 40
0
 40
0
 40
1
 40
1
 40
1
 40
1
 10
96.019239
 20
106.599876
 30
0.0
 10
94.748804
 20
106.038014
 30
0.0
 10
93.440205
 20
105.650294
 30
0.0
 10
92.149778
 20
105.431535
 30
0.0
  0
SPLINE
  5
2bd
100
AcDbEntity
  8
Layer_1
 62
7
100
AcDbSpline
 70
8
 71
3
 72
8
 73
4
 74
0
 40
0
 40
0
 40
0
 40
0
 40
1
 40
1
 40
1
 40
1
 10
92.149778
 20
105.431535
 30
0.0
 10
90.859353
 20
105.212776
 30
0.0
 10
89.587595
 20
105.162783
 30
0.0
 10
88.383776
 20
105.257003
 30
0.0
  0
SPLINE
  5
2be
100
AcDbEntity
  8
Layer_1
 62
7
100
AcDbSpline
 70
8
 71
3
 72
8
 73
4
 74
0
 40
0
 40
0
 40
0
 40
0
 40
1
 40
1
 40
1
 40
1
 10
88.383776
 20
105.257003
 30
0.0
 10
87.179957
 20
105.351223
 30
0.0
 10
86.044461
 20
105.589289
 30
0.0
 10
85.012866
 20
105.931542
 30
0.0
  0
SPLINE
  5
2bf
100
AcDbEntity
  8
Layer_1
 62
7
100
AcDbSpline
 70
8
 71
3
 72
8
 73
4
 74
0
 40
0
 40
0
 40
0
 40
0
 40
1
 40
1
 40
1
 40
1
 10
85.012866
 20
105.931542
 30
0.0
 10
83.981273
 20
106.273796
 30
0.0
 10
83.053789
 20
106.719755
 30
0.0
 10
82.247833
 20
107.221103
 30
0.0
  0
SPLINE
  5
2c0
100
AcDbEntity
  8
Layer_1
 62
7
100
AcDbSpline
 70
8
 71
3
 72
8
 73
4
 74
0
 40
0
 40
0
 40
0
 40
0
 40
1
 40
1
 40
1
 40
1
 10
82.247833
 20
107.221103
 30
0.0
 10
81.441877
 20
107.722451
 30
0.0
 10
80.757454
 20
108.278669
 30
0.0
 10
80.192149
 20
108.840410
 30
0.0
  0
SPLINE
  5
2c1
100
AcDbEntity
  8
Layer_1
 62
7
100
AcDbSpline
 70
8
 71
3
 72
8
 73
4
 74
0
 40
0
 40
0
 40
0
 40
0
 40
1
 40
1
 40
1
 40
1
 10
80.192149
 20
108.840410
 30
0.0
 10
79.626844
 20
109.402153
 30
0.0
 10
79.180461
 20
109.968934
 30
0.0
 10
78.832140
 20
110.498045
 30
0.0
  0
SPLINE
  5
2c2
100
AcDbEntity
  8
Layer_1
 62
7
100
AcDbSpline
 70
8
 71
3
 72
8
 73
4
 74
0
 40
0
 40
0
 40
0
 40
0
 40
1
 40
1
 40
1
 40
1
 10
78.832140
 20
110.498045
 30
0.0
 10
78.483818
 20
111.027152
 30
0.0
 10
78.233194
 20
111.518216
 30
0.0
 10
78.045155
 20
111.941645
 30
0.0
  0
SPLINE
  5
2c3
100
AcDbEntity
  8
Layer_1
 62
7
100
AcDbSpline
 70
8
 71
3
 72
8
 73
4
 74
0
 40
0
 40
0
 40
0
 40
0
 40
1
 40
1
 40
1
 40
1
 10
78.045155
 20
111.941645
 30
0.0
 10
77.857116
 20
112.365074
 30
0.0
 10
77.731185
 20
112.720669
 30
0.0
 10
77.624370
 20
112.996332
 30
0.0
  0
SPLINE
  5
2c4
100
AcDbEntity
  8
Layer_1
 62
7
100
AcDbSpline
 70
8
 71
3
 72
8
 73
4
 74
0
 40
0
 40
0
 40
0
 40
0
 40
1
 40
1
 40
1
 40
1
 10
77.624370
 20
112.996332
 30
0.0
 10
77.517554
 20
113.271996
 30
0.0
 10
77.429335
 20
113.467728
 30
0.0
 10
77.316367
 20
113.590492
 30
0.0
  0
SPLINE
  5
2c5
100
AcDbEntity
  8
Layer_1
 62
7
100
AcDbSpline
 70
8
 71
3
 72
8
 73
4
 74
0
 40
0
 40
0
 40
0
 40
0
 40
1
 40
1
 40
1
 40
1
 10
77.316367
 20
113.590492
 30
0.0
 10
77.203402
 20
113.713256
 30
0.0
 10
77.065209
 20
113.763249
 30
0.0
 10
76.865632
 20
113.765024
 30
0.0
  0
SPLINE
  5
2c6
100
AcDbEntity
  8
Layer_1
 62
7
100
AcDbSpline
 70
8
 71
3
 72
8
 73
4
 74
0
 40
0
 40
0
 40
0
 40
0
 40
1
 40
1
 40
1
 40
1
 10
76.865632
 20
113.765024
 30
0.0
 10
76.666059
 20
113.766717
 30
0.0
 10
76.404738
 20
113.720723
 30
0.0
 10
76.059081
 20
113.664665
 30
0.0
  0
SPLINE
  5
2c7
100
AcDbEntity
  8
Layer_1
 62
7
100
AcDbSpline
 70
8
 71
3
 72
8
 73
4
 74
0
 40
0
 40
0
 40
0
 40
0
 40
1
 40
1
 40
1
 40
1
 10
76.059081
 20
113.664665
 30
0.0
 10
75.713426
 20
113.608608
 30
0.0
 10
75.283241
 20
113.543050
 30
0.0
 10
74.763746
 20
113.512765
 30
0.0
  0
SPLINE
  5
2c8
100
AcDbEntity
  8
Layer_1
 62
7
100
AcDbSpline
 70
8
 71
3
 72
8
 73
4
 74
0
 40
0
 40
0
 40
0
 40
0
 40
1
 40
1
 40
1
 40
1
 10
74.763746
 20
113.512765
 30
0.0
 10
74.244251
 20
113.482483
 30
0.0
 10
73.635449
 20
113.487986
 30
0.0
 10
72.951792
 20
113.573412
 30
0.0
  0
SPLINE
  5
2c9
100
AcDbEntity
  8
Layer_1
 62
7
100
AcDbSpline
 70
8
 71
3
 72
8
 73
4
 74
0
 40
0
 40
0
 40
0
 40
0
 40
1
 40
1
 40
1
 40
1
 10
72.951792
 20
113.573412
 30
0.0
 10
72.268134
 20
113.658829
 30
0.0
 10
71.509825
 20
113.824635
 30
0.0
 10
70.708938
 20
114.106724
 30
0.0
  0
SPLINE
  5
2ca
100
AcDbEntity
  8
Layer_1
 62
7
100
AcDbSpline
 70
8
 71
3
 72
8
 73
4
 74
0
 40
0
 40
0
 40
0
 40
0
 40
1
 40
1
 40
1
 40
1
 10
70.708938
 20
114.106724
 30
0.0
 10
69.908050
 20
114.388817
 30
0.0
 10
69.064962
 20
114.787557
 30
0.0
 10
68.224956
 20
115.324256
 30
0.0
  0
SPLINE
  5
2cb
100
AcDbEntity
  8
Layer_1
 62
7
100
AcDbSpline
 70
8
 71
3
 72
8
 73
4
 74
0
 40
0
 40
0
 40
0
 40
0
 40
1
 40
1
 40
1
 40
1
 10
68.224956
 20
115.324256
 30
0.0
 10
67.384947
 20
115.860956
 30
0.0
 10
66.548511
 20
116.535805
 30
0.0
 10
65.767593
 20
117.351312
 30
0.0
  0
SPLINE
  5
2cc
100
AcDbEntity
  8
Layer_1
 62
7
100
AcDbSpline
 70
8
 71
3
 72
8
 73
4
 74
0
 40
0
 40
0
 40
0
 40
0
 40
1
 40
1
 40
1
 40
1
 10
65.767593
 20
117.351312
 30
0.0
 10
64.986676
 20
118.166818
 30
0.0
 10
64.261802
 20
119.122976
 30
0.0
 10
63.643885
 20
120.202098
 30
0.0
  0
SPLINE
  5
2cd
100
AcDbEntity
  8
Layer_1
 62
7
100
AcDbSpline
 70
8
 71
3
 72
8
 73
4
 74
0
 40
0
 40
0
 40
0
 40
0
 40
1
 40
1
 40
1
 40
1
 10
63.643885
 20
120.202098
 30
0.0
 10
63.025968
 20
121.281222
 30
0.0
 10
62.515493
 20
122.483105
 30
0.0
 10
62.154647
 20
123.771546
 30
0.0
  0
SPLINE
  5
2ce
100
AcDbEntity
  8
Layer_1
 62
7
100
AcDbSpline
 70
8
 71
3
 72
8
 73
4
 74
0
 40
0
 40
0
 40
0
 40
0
 40
1
 40
1
 40
1
 40
1
 10
62.154647
 20
123.771546
 30
0.0
 10
61.793803
 20
125.059986
 30
0.0
 10
61.582960
 20
126.434603
 30
0.0
 10
61.549099
 20
127.845169
 30
0.0
  0
SPLINE
  5
2cf
100
AcDbEntity
  8
Layer_1
 62
7
100
AcDbSpline
 70
8
 71
3
 72
8
 73
4
 74
0
 40
0
 40
0
 40
0
 40
0
 40
1
 40
1
 40
1
 40
1
 10
61.549099
 20
127.845169
 30
0.0
 10
61.515241
 20
129.255736
 30
0.0
 10
61.658562
 20
130.701755
 30
0.0
 10
61.986516
 20
132.125608
 30
0.0
  0
SPLINE
  5
2d0
100
AcDbEntity
  8
Layer_1
 62
7
100
AcDbSpline
 70
8
 71
3
 72
8
 73
4
 74
0
 40
0
 40
0
 40
0
 40
0
 40
1
 40
1
 40
1
 40
1
 10
61.986516
 20
132.125608
 30
0.0
 10
62.314469
 20
133.549462
 30
0.0
 10
62.827050
 20
134.950616
 30
0.0
 10
63.510708
 20
136.271871
 30
0.0
  0
SPLINE
  5
2d1
100
AcDbEntity
  8
Layer_1
 62
7
100
AcDbSpline
 70
8
 71
3
 72
8
 73
4
 74
0
 40
0
 40
0
 40
0
 40
0
 40
1
 40
1
 40
1
 40
1
 10
63.510708
 20
136.271871
 30
0.0
 10
64.194365
 20
137.593125
 30
0.0
 10
65.048892
 20
138.833983
 30
0.0
 10
66.041321
 20
139.945461
 30
0.0
  0
SPLINE
  5
2d2
100
AcDbEntity
  8
Layer_1
 62
7
100
AcDbSpline
 70
8
 71
3
 72
8
 73
4
 74
0
 40
0
 40
0
 40
0
 40
0
 40
1
 40
1
 40
1
 40
1
 10
66.041321
 20
139.945461
 30
0.0
 10
67.033750
 20
141.056940
 30
0.0
 10
68.163705
 20
142.038661
 30
0.0
 10
69.383227
 20
142.856471
 30
0.0
  0
SPLINE
  5
2d3
100
AcDbEntity
  8
Layer_1
 62
7
100
AcDbSpline
 70
8
 71
3
 72
8
 73
4
 74
0
 40
0
 40
0
 40
0
 40
0
 40
1
 40
1
 40
1
 40
1
 10
69.383227
 20
142.856471
 30
0.0
 10
70.602749
 20
143.674280
 30
0.0
 10
71.911348
 20
144.327972
 30
0.0
 10
73.252686
 20
144.802681
 30
0.0
  0
SPLINE
  5
2d4
100
AcDbEntity
  8
Layer_1
 62
7
100
AcDbSpline
 70
8
 71
3
 72
8
 73
4
 74
0
 40
0
 40
0
 40
0
 40
0
 40
1
 40
1
 40
1
 40
1
 10
73.252686
 20
144.802681
 30
0.0
 10
74.594026
 20
145.277390
 30
0.0
 10
75.967565
 20
145.573108
 30
0.0
 10
77.316367
 20
145.695872
 30
0.0
  0
SPLINE
  5
2d5
100
AcDbEntity
  8
Layer_1
 62
7
100
AcDbSpline
 70
8
 71
3
 72
8
 73
4
 74
0
 40
0
 40
0
 40
0
 40
0
 40
1
 40
1
 40
1
 40
1
 10
77.316367
 20
145.695872
 30
0.0
 10
78.665169
 20
145.818636
 30
0.0
 10
79.988737
 20
145.768643
 30
0.0
 10
81.237317
 20
145.571372
 30
0.0
  0
SPLINE
  5
2d6
100
AcDbEntity
  8
Layer_1
 62
7
100
AcDbSpline
 70
8
 71
3
 72
8
 73
4
 74
0
 40
0
 40
0
 40
0
 40
0
 40
1
 40
1
 40
1
 40
1
 10
81.237317
 20
145.571372
 30
0.0
 10
82.485893
 20
145.374105
 30
0.0
 10
83.659102
 20
145.029929
 30
0.0
 10
84.721009
 20
144.579491
 30
0.0
  0
SPLINE
  5
2d7
100
AcDbEntity
  8
Layer_1
 62
7
100
AcDbSpline
 70
8
 71
3
 72
8
 73
4
 74
0
 40
0
 40
0
 40
0
 40
0
 40
1
 40
1
 40
1
 40
1
 10
84.721009
 20
144.579491
 30
0.0
 10
85.782915
 20
144.129053
 30
0.0
 10
86.733309
 20
143.572838
 30
0.0
 10
87.554565
 20
142.960182
 30
0.0
  0
SPLINE
  5
2d8
100
AcDbEntity
  8
Layer_1
 62
7
100
AcDbSpline
 70
8
 71
3
 72
8
 73
4
 74
0
 40
0
 40
0
 40
0
 40
0
 40
1
 40
1
 40
1
 40
1
 10
87.554565
 20
142.960182
 30
0.0
 10
88.375820
 20
142.347528
 30
0.0
 10
89.067928
 20
141.678963
 30
0.0
 10
89.633233
 20
141.004870
 30
0.0
  0
SPLINE
  5
2d9
100
AcDbEntity
  8
Layer_1
 62
7
100
AcDbSpline
 70
8
 71
3
 72
8
 73
4
 74
0
 40
0
 40
0
 40
0
 40
0
 40
1
 40
1
 40
1
 40
1
 10
89.633233
 20
141.004870
 30
0.0
 10
90.198538
 20
140.330779
 30
0.0
 10
90.637233
 20
139.651645
 30
0.0
 10
90.970258
 20
139.011232
 30
0.0
  0
SPLINE
  5
2da
100
AcDbEntity
  8
Layer_1
 62
7
100
AcDbSpline
 70
8
 71
3
 72
8
 73
4
 74
0
 40
0
 40
0
 40
0
 40
0
 40
1
 40
1
 40
1
 40
1
 10
90.970258
 20
139.011232
 30
0.0
 10
91.303280
 20
138.370819
 30
0.0
 10
91.530994
 20
137.769500
 30
0.0
 10
91.688720
 20
137.237883
 30
0.0
  0
SPLINE
  5
2db
100
AcDbEntity
  8
Layer_1
 62
7
100
AcDbSpline
 70
8
 71
3
 72
8
 73
4
 74
0
 40
0
 40
0
 40
0
 40
0
 40
1
 40
1
 40
1
 40
1
 10
91.688720
 20
137.237883
 30
0.0
 10
91.846448
 20
136.706270
 30
0.0
 10
91.934668
 20
136.244566
 30
0.0
 10
91.996723
 20
135.865852
 30
0.0
  0
SPLINE
  5
2dc
100
AcDbEntity
  8
Layer_1
 62
7
100
AcDbSpline
 70
8
 71
3
 72
8
 73
4
 74
0
 40
0
 40
0
 40
0
 40
0
 40
1
 40
1
 40
1
 40
1
 10
91.996723
 20
135.865852
 30
0.0
 10
92.058778
 20
135.487138
 30
0.0
 10
92.095187
 20
135.191419
 30
0.0
 10
92.149778
 20
134.972661
 30
0.0
  0
SPLINE
  5
2dd
100
AcDbEntity
  8
Layer_1
 62
7
100
AcDbSpline
 70
8
 71
3
 72
8
 73
4
 74
0
 40
0
 40
0
 40
0
 40
0
 40
1
 40
1
 40
1
 40
1
 10
92.149778
 20
134.972661
 30
0.0
 10
92.204368
 20
134.753904
 30
0.0
 10
92.277621
 20
134.611907
 30
0.0
 10
92.406292
 20
134.522982
 30
0.0
  0
SPLINE
  5
2de
100
AcDbEntity
  8
Layer_1
 62
7
100
AcDbSpline
 70
8
 71
3
 72
8
 73
4
 74
0
 40
0
 40
0
 40
0
 40
0
 40
1
 40
1
 40
1
 40
1
 10
92.406292
 20
134.522982
 30
0.0
 10
92.534963
 20
134.434056
 30
0.0
 10
92.719421
 20
134.397830
 30
0.0
 10
92.982968
 20
134.377203
 30
0.0
  0
SPLINE
  5
2df
100
AcDbEntity
  8
Layer_1
 62
7
100
AcDbSpline
 70
8
 71
3
 72
8
 73
4
 74
0
 40
0
 40
0
 40
0
 40
0
 40
1
 40
1
 40
1
 40
1
 10
92.982968
 20
134.377203
 30
0.0
 10
93.246513
 20
134.356572
 30
0.0
 10
93.589342
 20
134.351069
 30
0.0
 10
94.017050
 20
134.316556
 30
0.0
  0
SPLINE
  5
2e0
100
AcDbEntity
  8
Layer_1
 62
7
100
AcDbSpline
 70
8
 71
3
 72
8
 73
4
 74
0
 40
0
 40
0
 40
0
 40
0
 40
1
 40
1
 40
1
 40
1
 10
94.017050
 20
134.316556
 30
0.0
 10
94.444758
 20
134.282052
 30
0.0
 10
94.957338
 20
134.218029
 30
0.0
 10
95.541245
 20
134.080923
 30
0.0
  0
SPLINE
  5
2e1
100
AcDbEntity
  8
Layer_1
 62
7
100
AcDbSpline
 70
8
 71
3
 72
8
 73
4
 74
0
 40
0
 40
0
 40
0
 40
0
 40
1
 40
1
 40
1
 40
1
 10
95.541245
 20
134.080923
 30
0.0
 10
96.125146
 20
133.943814
 30
0.0
 10
96.780167
 20
133.733143
 30
0.0
 10
97.475190
 20
133.413428
 30
0.0
  0
SPLINE
  5
2e2
100
AcDbEntity
  8
Layer_1
 62
7
100
AcDbSpline
 70
8
 71
3
 72
8
 73
4
 74
0
 40
0
 40
0
 40
0
 40
0
 40
1
 40
1
 40
1
 40
1
 10
97.475190
 20
133.413428
 30
0.0
 10
98.170213
 20
133.093713
 30
0.0
 10
98.904865
 20
132.664591
 30
0.0
 10
99.634873
 20
132.105034
 30
0.0
  0
SPLINE
  5
2e3
100
AcDbEntity
  8
Layer_1
 62
7
100
AcDbSpline
 70
8
 71
3
 72
8
 73
4
 74
0
 40
0
 40
0
 40
0
 40
0
 40
1
 40
1
 40
1
 40
1
 10
99.634873
 20
132.105034
 30
0.0
 10
100.364877
 20
131.545475
 30
0.0
 10
101.089751
 20
130.855292
 30
0.0
 10
101.758581
 20
130.032118
 30
0.0
  0
SPLINE
  5
2e4
100
AcDbEntity
  8
Layer_1
 62
7
100
AcDbSpline
 70
8
 71
3
 72
8
 73
4
 74
0
 40
0
 40
0
 40
0
 40
0
 40
1
 40
1
 40
1
 40
1
 10
101.758581
 20
130.032118
 30
0.0
 10
102.427408
 20
129.208943
 30
0.0
 10
103.039666
 20
128.252789
 30
0.0
 10
103.545496
 20
127.181332
 30
0.0
  0
SPLINE
  5
2e5
100
AcDbEntity
  8
Layer_1
 62
7
100
AcDbSpline
 70
8
 71
3
 72
8
 73
4
 74
0
 40
0
 40
0
 40
0
 40
0
 40
1
 40
1
 40
1
 40
1
 10
103.545496
 20
127.181332
 30
0.0
 10
104.051326
 20
126.109875
 30
0.0
 10
104.450238
 20
124.923326
 30
0.0
 10
104.701080
 20
123.657745
 30
0.0
  0
SPLINE
  5
2e6
100
AcDbEntity
  8
Layer_1
 62
7
100
AcDbSpline
 70
8
 71
3
 72
8
 73
4
 74
0
 40
0
 40
0
 40
0
 40
0
 40
1
 40
1
 40
1
 40
1
 10
104.701080
 20
123.657745
 30
0.0
 10
104.951925
 20
122.392162
 30
0.0
 10
105.054329
 20
121.047926
 30
0.0
 10
104.982326
 20
119.674986
 30
0.0
  0
SPLINE
  5
2e7
100
AcDbEntity
  8
Layer_1
 62
7
100
AcDbSpline
 70
8
 71
3
 72
8
 73
4
 74
0
 40
0
 40
0
 40
0
 40
0
 40
1
 40
1
 40
1
 40
1
 10
104.982326
 20
119.674986
 30
0.0
 10
104.910323
 20
118.302042
 30
0.0
 10
104.663714
 20
116.900888
 30
0.0
 10
104.236004
 20
115.528724
 30
0.0
  0
SPLINE
  5
2e8
100
AcDbEntity
  8
Layer_1
 62
7
100
AcDbSpline
 70
8
 71
3
 72
8
 73
4
 74
0
 40
0
 40
0
 40
0
 40
0
 40
1
 40
1
 40
1
 40
1
 10
104.236004
 20
115.528724
 30
0.0
 10
103.808296
 20
114.156559
 30
0.0
 10
103.199494
 20
112.813915
 30
0.0
 10
102.424052
 20
111.557453
 30
0.0
  0
SPLINE
  5
2e9
100
AcDbEntity
  8
Layer_1
 62
7
100
AcDbSpline
 70
8
 71
3
 72
8
 73
4
 74
0
 40
0
 40
0
 40
0
 40
0
 40
1
 40
1
 40
1
 40
1
 10
102.424052
 20
111.557453
 30
0.0
 10
101.648604
 20
110.300991
 30
0.0
 10
100.706724
 20
109.131200
 30
0.0
 10
99.632186
 20
108.096407
 30
0.0
  0
SPLINE
  5
2ea
100
AcDbEntity
  8
Layer_1
 62
7
100
AcDbSpline
 70
8
 71
3
 72
8
 73
4
 74
0
 40
0
 40
0
 40
0
 40
0
 40
1
 40
1
 40
1
 40
1
 10
99.632186
 20
108.096407
 30
0.0
 10
98.557647
 20
107.061614
 30
0.0
 10
97.350828
 20
106.162194
 30
0.0
 10
96.060404
 20
105.431535
 30
0.0
  0
SPLINE
  5
2eb
100
AcDbEntity
  8
Layer_1
 62
7
100
AcDbSpline
 70
8
 71
3
 72
8
 73
4
 74
0
 40
0
 40
0
 40
0
 40
0
 40
1
 40
1
 40
1
 40
1
 10
96.060404
 20
105.431535
 30
0.0
 10
94.769977
 20
104.700878
 30
0.0
 10
93.396435
 20
104.139186
 30
0.0
 10
91.996723
 20
103.760472
 30
0.0
  0
SPLINE
  5
2ec
100
AcDbEntity
  8
Layer_1
 62
7
100
AcDbSpline
 70
8
 71
3
 72
8
 73
4
 74
0
 40
0
 40
0
 40
0
 40
0
 40
1
 40
1
 40
1
 40
1
 10
91.996723
 20
103.760472
 30
0.0
 10
90.597008
 20
103.381758
 30
0.0
 10
89.171659
 20
103.186028
 30
0.0
 10
87.778096
 20
103.166312
 30
0.0
  0
SPLINE
  5
2ed
100
AcDbEntity
  8
Layer_1
 62
7
100
AcDbSpline
 70
8
 71
3
 72
8
 73
4
 74
0
 40
0
 40
0
 40
0
 40
0
 40
1
 40
1
 40
1
 40
1
 10
87.778096
 20
103.166312
 30
0.0
 10
86.384534
 20
103.146613
 30
0.0
 10
85.023254
 20
103.302704
 30
0.0
 10
83.744364
 20
103.608156
 30
0.0
  0
SPLINE
  5
2ee
100
AcDbEntity
  8
Layer_1
 62
7
100
AcDbSpline
 70
8
 71
3
 72
8
 73
4
 74
0
 40
0
 40
0
 40
0
 40
0
 40
1
 40
1
 40
1
 40
1
 10
83.744364
 20
103.608156
 30
0.0
 10
82.465474
 20
103.913611
 30
0.0
 10
81.269355
 20
104.368043
 30
0.0
 10
80.192149
 20
104.929786
 30
0.0
  0
SPLINE
  5
2ef
100
AcDbEntity
  8
Layer_1
 62
7
100
AcDbSpline
 70
8
 71
3
 72
8
 73
4
 74
0
 40
0
 40
0
 40
0
 40
0
 40
1
 40
1
 40
1
 40
1
 10
80.192149
 20
104.929786
 30
0.0
 10
79.114944
 20
105.491527
 30
0.0
 10
78.156864
 20
106.160094
 30
0.0
 10
77.335609
 20
106.885098
 30
0.0
  0
SPLINE
  5
2f0
100
AcDbEntity
  8
Layer_1
 62
7
100
AcDbSpline
 70
8
 71
3
 72
8
 73
4
 74
0
 40
0
 40
0
 40
0
 40
0
 40
1
 40
1
 40
1
 40
1
 10
77.335609
 20
106.885098
 30
0.0
 10
76.514353
 20
107.610101
 30
0.0
 10
75.829930
 20
108.391019
 30
0.0
 10
75.279925
 20
109.176415
 30
0.0
  0
SPLINE
  5
2f1
100
AcDbEntity
  8
Layer_1
 62
7
100
AcDbSpline
 70
8
 71
3
 72
8
 73
4
 74
0
 40
0
 40
0
 40
0
 40
0
 40
1
 40
1
 40
1
 40
1
 10
75.279925
 20
109.176415
 30
0.0
 10
74.729919
 20
109.961814
 30
0.0
 10
74.314135
 20
110.751204
 30
0.0
 10
74.011423
 20
111.499801
 30
0.0
  0
SPLINE
  5
2f2
100
AcDbEntity
  8
Layer_1
 62
7
100
AcDbSpline
 70
8
 71
3
 72
8
 73
4
 74
0
 40
0
 40
0
 40
0
 40
0
 40
1
 40
1
 40
1
 40
1
 10
74.011423
 20
111.499801
 30
0.0
 10
73.708712
 20
112.248398
 30
0.0
 10
73.518708
 20
112.955831
 30
0.0
 10
73.405743
 20
113.590492
 30
0.0
  0
SPLINE
  5
2f3
100
AcDbEntity
  8
Layer_1
 62
7
100
AcDbSpline
 70
8
 71
3
 72
8
 73
4
 74
0
 40
0
 40
0
 40
0
 40
0
 40
1
 40
1
 40
1
 40
1
 10
73.405743
 20
113.590492
 30
0.0
 10
73.292775
 20
114.225156
 30
0.0
 10
73.256366
 20
114.786846
 30
0.0
 10
73.252686
 20
115.261555
 30
0.0
  0
SPLINE
  5
2f4
100
AcDbEntity
  8
Layer_1
 62
7
100
AcDbSpline
 70
8
 71
3
 72
8
 73
4
 74
0
 40
0
 40
0
 40
0
 40
0
 40
1
 40
1
 40
1
 40
1
 10
73.252686
 20
115.261555
 30
0.0
 10
73.249017
 20
115.736264
 30
0.0
 10
73.277549
 20
116.123984
 30
0.0
 10
73.293851
 20
116.429893
 30
0.0
  0
SPLINE
  5
2f5
100
AcDbEntity
  8
Layer_1
 62
7
100
AcDbSpline
 70
8
 71
3
 72
8
 73
4
 74
0
 40
0
 40
0
 40
0
 40
0
 40
1
 40
1
 40
1
 40
1
 10
73.293851
 20
116.429893
 30
0.0
 10
73.310163
 20
116.735805
 30
0.0
 10
73.313775
 20
116.960101
 30
0.0
 10
73.267209
 20
117.125712
 30
0.0
  0
SPLINE
  5
2f6
100
AcDbEntity
  8
Layer_1
 62
7
100
AcDbSpline
 70
8
 71
3
 72
8
 73
4
 74
0
 40
0
 40
0
 40
0
 40
0
 40
1
 40
1
 40
1
 40
1
 10
73.267214
 20
117.125712
 30
0.0
 10
73.220653
 20
117.291323
 30
0.0
 10
73.123552
 20
117.398618
 30
0.0
 10
72.951792
 20
117.484035
 30
0.0
  0
SPLINE
  5
2f7
100
AcDbEntity
  8
Layer_1
 62
7
100
AcDbSpline
 70
8
 71
3
 72
8
 73
4
 74
0
 40
0
 40
0
 40
0
 40
0
 40
1
 40
1
 40
1
 40
1
 10
72.951792
 20
117.484035
 30
0.0
 10
72.780034
 20
117.569455
 30
0.0
 10
72.533423
 20
117.633478
 30
0.0
 10
72.205469
 20
117.719671
 30
0.0
  0
SPLINE
  5
2f8
100
AcDbEntity
  8
Layer_1
 62
7
100
AcDbSpline
 70
8
 71
3
 72
8
 73
4
 74
0
 40
0
 40
0
 40
0
 40
0
 40
1
 40
1
 40
1
 40
1
 10
72.205469
 20
117.719671
 30
0.0
 10
71.877515
 20
117.805867
 30
0.0
 10
71.468223
 20
117.914754
 30
0.0
 10
70.990183
 20
118.089487
 30
0.0
  0
SPLINE
  5
2f9
100
AcDbEntity
  8
Layer_1
 62
7
100
AcDbSpline
 70
8
 71
3
 72
8
 73
4
 74
0
 40
0
 40
0
 40
0
 40
0
 40
1
 40
1
 40
1
 40
1
 10
70.990183
 20
118.089487
 30
0.0
 10
70.512144
 20
118.264216
 30
0.0
 10
69.965562
 20
118.505270
 30
0.0
 10
69.380540
 20
118.847843
 30
0.0
  0
SPLINE
  5
2fa
100
AcDbEntity
  8
Layer_1
 62
7
100
AcDbSpline
 70
8
 71
3
 72
8
 73
4
 74
0
 40
0
 40
0
 40
0
 40
0
 40
1
 40
1
 40
1
 40
1
 10
69.380540
 20
118.847843
 30
0.0
 10
68.795516
 20
119.190416
 30
0.0
 10
68.172429
 20
119.634873
 30
0.0
 10
67.554512
 20
120.202098
 30
0.0
  0
SPLINE
  5
2fb
100
AcDbEntity
  8
Layer_1
 62
7
100
AcDbSpline
 70
8
 71
3
 72
8
 73
4
 74
0
 40
0
 40
0
 40
0
 40
0
 40
1
 40
1
 40
1
 40
1
 10
67.554512
 20
120.202098
 30
0.0
 10
66.936595
 20
120.769322
 30
0.0
 10
66.324333
 20
121.459505
 30
0.0
 10
65.767593
 20
122.275014
 30
0.0
  0
SPLINE
  5
2fc
100
AcDbEntity
  8
Layer_1
 62
7
100
AcDbSpline
 70
8
 71
3
 72
8
 73
4
 74
0
 40
0
 40
0
 40
0
 40
0
 40
1
 40
1
 40
1
 40
1
 10
65.767593
 20
122.275014
 30
0.0
 10
65.210854
 20
123.090521
 30
0.0
 10
64.710158
 20
124.031342
 30
0.0
 10
64.314330
 20
125.079942
 30
0.0
  0
SPLINE
  5
2fd
100
AcDbEntity
  8
Layer_1
 62
7
100
AcDbSpline
 70
8
 71
3
 72
8
 73
4
 74
0
 40
0
 40
0
 40
0
 40
0
 40
1
 40
1
 40
1
 40
1
 10
64.314330
 20
125.079942
 30
0.0
 10
63.918502
 20
126.128539
 30
0.0
 10
63.628024
 20
127.284704
 30
0.0
 10
63.483047
 20
128.512662
 30
0.0
  0
SPLINE
  5
2fe
100
AcDbEntity
  8
Layer_1
 62
7
100
AcDbSpline
 70
8
 71
3
 72
8
 73
4
 74
0
 40
0
 40
0
 40
0
 40
0
 40
1
 40
1
 40
1
 40
1
 10
63.483047
 20
128.512662
 30
0.0
 10
63.338067
 20
129.740622
 30
0.0
 10
63.338950
 20
131.039993
 30
0.0
 10
63.510705
 20
132.361244
 30
0.0
  0
SPLINE
  5
2ff
100
AcDbEntity
  8
Layer_1
 62
7
100
AcDbSpline
 70
8
 71
3
 72
8
 73
4
 74
0
 40
0
 40
0
 40
0
 40
0
 40
1
 40
1
 40
1
 40
1
 10
63.510708
 20
132.361244
 30
0.0
 10
63.682468
 20
133.682499
 30
0.0
 10
64.025295
 20
135.025140
 30
0.0
 10
64.544792
 20
136.332514
 30
0.0
  0
SPLINE
  5
300
100
AcDbEntity
  8
Layer_1
 62
7
100
AcDbSpline
 70
8
 71
3
 72
8
 73
4
 74
0
 40
0
 40
0
 40
0
 40
0
 40
1
 40
1
 40
1
 40
1
 10
64.544792
 20
136.332514
 30
0.0
 10
65.064287
 20
137.639889
 30
0.0
 10
65.760442
 20
138.911464
 30
0.0
 10
66.617997
 20
140.091240
 30
0.0
  0
SPLINE
  5
301
100
AcDbEntity
  8
Layer_1
 62
7
100
AcDbSpline
 70
8
 71
3
 72
8
 73
4
 74
0
 40
0
 40
0
 40
0
 40
0
 40
1
 40
1
 40
1
 40
1
 10
66.617997
 20
140.091240
 30
0.0
 10
67.475552
 20
141.271020
 30
0.0
 10
68.494298
 20
142.358506
 30
0.0
 10
69.639742
 20
143.306149
 30
0.0
  0
SPLINE
  5
302
100
AcDbEntity
  8
Layer_1
 62
7
100
AcDbSpline
 70
8
 71
3
 72
8
 73
4
 74
0
 40
0
 40
0
 40
0
 40
0
 40
1
 40
1
 40
1
 40
1
 10
69.639742
 20
143.306149
 30
0.0
 10
70.785183
 20
144.253792
 30
0.0
 10
72.056941
 20
145.061208
 30
0.0
 10
73.405743
 20
145.695872
 30
0.0
  0
SPLINE
  5
303
100
AcDbEntity
  8
Layer_1
 62
7
100
AcDbSpline
 70
8
 71
3
 72
8
 73
4
 74
0
 40
0
 40
0
 40
0
 40
0
 40
1
 40
1
 40
1
 40
1
 10
73.405743
 20
145.695872
 30
0.0
 10
74.754545
 20
146.330536
 30
0.0
 10
76.179894
 20
146.792240
 30
0.0
 10
77.624370
 20
147.067904
 30
0.0
  0
SPLINE
  5
304
100
AcDbEntity
  8
Layer_1
 62
7
100
AcDbSpline
 70
8
 71
3
 72
8
 73
4
 74
0
 40
0
 40
0
 40
0
 40
0
 40
1
 40
1
 40
1
 40
1
 10
77.624370
 20
147.067904
 30
0.0
 10
79.068843
 20
147.343567
 30
0.0
 10
80.531905
 20
147.433189
 30
0.0
 10
81.955778
 20
147.344721
 30
0.0
  0
SPLINE
  5
305
100
AcDbEntity
  8
Layer_1
 62
7
100
AcDbSpline
 70
8
 71
3
 72
8
 73
4
 74
0
 40
0
 40
0
 40
0
 40
0
 40
1
 40
1
 40
1
 40
1
 10
81.955778
 20
147.344721
 30
0.0
 10
83.379654
 20
147.256250
 30
0.0
 10
84.763844
 20
146.989889
 30
0.0
 10
86.058034
 20
146.573128
 30
0.0
  0
SPLINE
  5
306
100
AcDbEntity
  8
Layer_1
 62
7
100
AcDbSpline
 70
8
 71
3
 72
8
 73
4
 74
0
 40
0
 40
0
 40
0
 40
0
 40
1
 40
1
 40
1
 40
1
 10
86.058034
 20
146.573128
 30
0.0
 10
87.352223
 20
146.156371
 30
0.0
 10
88.556028
 20
145.589590
 30
0.0
 10
89.633233
 20
144.915496
 30
0.0
  0
SPLINE
  5
307
100
AcDbEntity
  8
Layer_1
 62
7
100
AcDbSpline
 70
8
 71
3
 72
8
 73
4
 74
0
 40
0
 40
0
 40
0
 40
0
 40
1
 40
1
 40
1
 40
1
 10
89.633233
 20
144.915496
 30
0.0
 10
90.710439
 20
144.241403
 30
0.0
 10
91.660830
 20
143.460485
 30
0.0
 10
92.466789
 20
142.624176
 30
0.0
  0
SPLINE
  5
308
100
AcDbEntity
  8
Layer_1
 62
7
100
AcDbSpline
 70
8
 71
3
 72
8
 73
4
 74
0
 40
0
 40
0
 40
0
 40
0
 40
1
 40
1
 40
1
 40
1
 10
92.466789
 20
142.624176
 30
0.0
 10
93.272745
 20
141.787870
 30
0.0
 10
93.934255
 20
140.896697
 30
0.0
 10
94.453950
 20
140.003114
 30
0.0
  0
SPLINE
  5
309
100
AcDbEntity
  8
Layer_1
 62
7
100
AcDbSpline
 70
8
 71
3
 72
8
 73
4
 74
0
 40
0
 40
0
 40
0
 40
0
 40
1
 40
1
 40
1
 40
1
 10
94.453950
 20
140.003114
 30
0.0
 10
94.973645
 20
139.109533
 30
0.0
 10
95.351719
 20
138.214031
 30
0.0
 10
95.609670
 20
137.362386
 30
0.0
  0
SPLINE
  5
30a
100
AcDbEntity
  8
Layer_1
 62
7
100
AcDbSpline
 70
8
 71
3
 72
8
 73
4
 74
0
 40
0
 40
0
 40
0
 40
0
 40
1
 40
1
 40
1
 40
1
 10
95.609670
 20
137.362386
 30
0.0
 10
95.867621
 20
136.510738
 30
0.0
 10
96.005811
 20
135.703320
 30
0.0
 10
96.060404
 20
134.972661
 30
0.0
  0
SPLINE
  5
30b
100
AcDbEntity
  8
Layer_1
 62
7
100
AcDbSpline
 70
8
 71
3
 72
8
 73
4
 74
0
 40
0
 40
0
 40
0
 40
0
 40
1
 40
1
 40
1
 40
1
 10
96.060404
 20
134.972661
 30
0.0
 10
96.114994
 20
134.242004
 30
0.0
 10
96.086453
 20
133.588310
 30
0.0
 10
96.019239
 20
133.026450
 30
0.0
  0
SPLINE
  5
30c
100
AcDbEntity
  8
Layer_1
 62
7
100
AcDbSpline
 70
8
 71
3
 72
8
 73
4
 74
0
 40
0
 40
0
 40
0
 40
0
 40
1
 40
1
 40
1
 40
1
 10
96.019239
 20
133.026450
 30
0.0
 10
95.952014
 20
132.464591
 30
0.0
 10
95.846618
 20
131.994570
 30
0.0
 10
95.748196
 20
131.611972
 30
0.0
  0
SPLINE
  5
30d
100
AcDbEntity
  8
Layer_1
 62
7
100
AcDbSpline
 70
8
 71
3
 72
8
 73
4
 74
0
 40
0
 40
0
 40
0
 40
0
 40
1
 40
1
 40
1
 40
1
 10
95.748196
 20
131.611972
 30
0.0
 10
95.649773
 20
131.229378
 30
0.0
 10
95.558808
 20
130.934013
 30
0.0
 10
95.513581
 20
130.703612
 30
0.0
  0
SPLINE
  5
30e
100
AcDbEntity
  8
Layer_1
 62
7
100
AcDbSpline
 70
8
 71
3
 72
8
 73
4
 74
0
 40
0
 40
0
 40
0
 40
0
 40
1
 40
1
 40
1
 40
1
 10
95.513581
 20
130.703612
 30
0.0
 10
95.468355
 20
130.473209
 30
0.0
 10
95.469239
 20
130.307403
 30
0.0
 10
95.541239
 20
130.170297
 30
0.0
  0
SPLINE
  5
30f
100
AcDbEntity
  8
Layer_1
 62
7
100
AcDbSpline
 70
8
 71
3
 72
8
 73
4
 74
0
 40
0
 40
0
 40
0
 40
0
 40
1
 40
1
 40
1
 40
1
 10
95.541245
 20
130.170297
 30
0.0
 10
95.613248
 20
130.033190
 30
0.0
 10
95.756566
 20
129.924303
 30
0.0
 10
95.978658
 20
129.800484
 30
0.0
  0
SPLINE
  5
310
100
AcDbEntity
  8
Layer_1
 62
7
100
AcDbSpline
 70
8
 71
3
 72
8
 73
4
 74
0
 40
0
 40
0
 40
0
 40
0
 40
1
 40
1
 40
1
 40
1
 10
95.978658
 20
129.800484
 30
0.0
 10
96.200747
 20
129.676662
 30
0.0
 10
96.501602
 20
129.537394
 30
0.0
 10
96.869642
 20
129.339804
 30
0.0
  0
SPLINE
  5
311
100
AcDbEntity
  8
Layer_1
 62
7
100
AcDbSpline
 70
8
 71
3
 72
8
 73
4
 74
0
 40
0
 40
0
 40
0
 40
0
 40
1
 40
1
 40
1
 40
1
 10
96.869642
 20
129.339804
 30
0.0
 10
97.237680
 20
129.142215
 30
0.0
 10
97.672700
 20
128.885827
 30
0.0
 10
98.145634
 20
128.535587
 30
0.0
  0
SPLINE
  5
312
100
AcDbEntity
  8
Layer_1
 62
7
100
AcDbSpline
 70
8
 71
3
 72
8
 73
4
 74
0
 40
0
 40
0
 40
0
 40
0
 40
1
 40
1
 40
1
 40
1
 10
98.145634
 20
128.535587
 30
0.0
 10
98.618568
 20
128.185346
 30
0.0
 10
99.129043
 20
127.740888
 30
0.0
 10
99.634873
 20
127.181332
 30
0.0
  0
SPLINE
  5
313
100
AcDbEntity
  8
Layer_1
 62
7
100
AcDbSpline
 70
8
 71
3
 72
8
 73
4
 74
0
 40
0
 40
0
 40
0
 40
0
 40
1
 40
1
 40
1
 40
1
 10
99.634873
 20
127.181332
 30
0.0
 10
100.140699
 20
126.621773
 30
0.0
 10
100.641396
 20
125.946926
 30
0.0
 10
101.088136
 20
125.154276
 30
0.0
  0
SPLINE
  5
314
100
AcDbEntity
  8
Layer_1
 62
7
100
AcDbSpline
 70
8
 71
3
 72
8
 73
4
 74
0
 40
0
 40
0
 40
0
 40
0
 40
1
 40
1
 40
1
 40
1
 10
101.088136
 20
125.154276
 30
0.0
 10
101.534874
 20
124.361627
 30
0.0
 10
101.927135
 20
123.451190
 30
0.0
 10
102.217099
 20
122.440213
 30
0.0
  0
SPLINE
  5
315
100
AcDbEntity
  8
Layer_1
 62
7
100
AcDbSpline
 70
8
 71
3
 72
8
 73
4
 74
0
 40
0
 40
0
 40
0
 40
0
 40
1
 40
1
 40
1
 40
1
 10
102.217099
 20
122.440213
 30
0.0
 10
102.507062
 20
121.429239
 30
0.0
 10
102.694249
 20
120.317939
 30
0.0
 10
102.739472
 20
119.141670
 30
0.0
  0
SPLINE
  5
316
100
AcDbEntity
  8
Layer_1
 62
7
100
AcDbSpline
 70
8
 71
3
 72
8
 73
4
 74
0
 40
0
 40
0
 40
0
 40
0
 40
1
 40
1
 40
1
 40
1
 10
102.739472
 20
119.141670
 30
0.0
 10
102.784698
 20
117.965402
 30
0.0
 10
102.687597
 20
116.724541
 30
0.0
 10
102.424052
 20
115.468080
 30
0.0
  0
SPLINE
  5
317
100
AcDbEntity
  8
Layer_1
 62
7
100
AcDbSpline
 70
8
 71
3
 72
8
 73
4
 74
0
 40
0
 40
0
 40
0
 40
0
 40
1
 40
1
 40
1
 40
1
 10
102.424052
 20
115.468080
 30
0.0
 10
102.160505
 20
114.211615
 30
0.0
 10
101.730322
 20
112.940043
 30
0.0
 10
101.128717
 20
111.709354
 30
0.0
  0
SPLINE
  5
318
100
AcDbEntity
  8
Layer_1
 62
7
100
AcDbSpline
 70
8
 71
3
 72
8
 73
4
 74
0
 40
0
 40
0
 40
0
 40
0
 40
1
 40
1
 40
1
 40
1
 10
101.128717
 20
111.709354
 30
0.0
 10
100.527110
 20
110.478664
 30
0.0
 10
99.754092
 20
109.289391
 30
0.0
 10
98.825631
 20
108.196765
 30
0.0
  0
SPLINE
  5
319
100
AcDbEntity
  8
Layer_1
 62
7
100
AcDbSpline
 70
8
 71
3
 72
8
 73
4
 74
0
 40
0
 40
0
 40
0
 40
0
 40
1
 40
1
 40
1
 40
1
 10
98.825631
 20
108.196765
 30
0.0
 10
97.897174
 20
107.104139
 30
0.0
 10
96.813486
 20
106.108651
 30
0.0
 10
95.609670
 20
105.257003
 30
0.0
  0
SPLINE
  5
31a
100
AcDbEntity
  8
Layer_1
 62
7
100
AcDbSpline
 70
8
 71
3
 72
8
 73
4
 74
0
 40
0
 40
0
 40
0
 40
0
 40
1
 40
1
 40
1
 40
1
 10
95.609670
 20
105.257003
 30
0.0
 10
94.405851
 20
104.405358
 30
0.0
 10
93.082285
 20
103.697926
 30
0.0
 10
91.688720
 20
103.166312
 30
0.0
  0
SPLINE
  5
31b
100
AcDbEntity
  8
Layer_1
 62
7
100
AcDbSpline
 70
8
 71
3
 72
8
 73
4
 74
0
 40
0
 40
0
 40
0
 40
0
 40
1
 40
1
 40
1
 40
1
 10
91.688720
 20
103.166312
 30
0.0
 10
90.295160
 20
102.634699
 30
0.0
 10
88.832097
 20
102.279104
 30
0.0
 10
87.357311
 20
102.111625
 30
0.0
  0
SPLINE
  5
31c
100
AcDbEntity
  8
Layer_1
 62
7
100
AcDbSpline
 70
8
 71
3
 72
8
 73
4
 74
0
 40
0
 40
0
 40
0
 40
0
 40
1
 40
1
 40
1
 40
1
 10
87.357311
 20
102.111625
 30
0.0
 10
85.882525
 20
101.944146
 30
0.0
 10
84.396552
 20
101.964782
 30
0.0
 10
82.957379
 20
102.164556
 30
0.0
  0
SPLINE
  5
31d
100
AcDbEntity
  8
Layer_1
 62
7
100
AcDbSpline
 70
8
 71
3
 72
8
 73
4
 74
0
 40
0
 40
0
 40
0
 40
0
 40
1
 40
1
 40
1
 40
1
 10
82.957379
 20
102.164556
 30
0.0
 10
81.518204
 20
102.364330
 30
0.0
 10
80.126329
 20
102.743044
 30
0.0
 10
78.832140
 20
103.272151
 30
0.0
  0
SPLINE
  5
31e
100
AcDbEntity
  8
Layer_1
 62
7
100
AcDbSpline
 70
8
 71
3
 72
8
 73
4
 74
0
 40
0
 40
0
 40
0
 40
0
 40
1
 40
1
 40
1
 40
1
 10
78.832140
 20
103.272151
 30
0.0
 10
77.537953
 20
103.801261
 30
0.0
 10
76.341831
 20
104.480392
 30
0.0
 10
75.279925
 20
105.265791
 30
0.0
  0
SPLINE
  5
31f
100
AcDbEntity
  8
Layer_1
 62
7
100
AcDbSpline
 70
8
 71
3
 72
8
 73
4
 74
0
 40
0
 40
0
 40
0
 40
0
 40
1
 40
1
 40
1
 40
1
 10
75.279925
 20
105.265791
 30
0.0
 10
74.218018
 20
106.051188
 30
0.0
 10
73.290537
 20
106.942361
 30
0.0
 10
72.514892
 20
107.886854
 30
0.0
  0
SPLINE
  5
320
100
AcDbEntity
  8
Layer_1
 62
7
100
AcDbSpline
 70
8
 71
3
 72
8
 73
4
 74
0
 40
0
 40
0
 40
0
 40
0
 40
1
 40
1
 40
1
 40
1
 10
72.514892
 20
107.886854
 30
0.0
 10
71.739246
 20
108.831347
 30
0.0
 10
71.115448
 20
109.828630
 30
0.0
 10
70.640513
 20
110.825262
 30
0.0
  0
SPLINE
  5
321
100
AcDbEntity
  8
Layer_1
 62
7
100
AcDbSpline
 70
8
 71
3
 72
8
 73
4
 74
0
 40
0
 40
0
 40
0
 40
0
 40
1
 40
1
 40
1
 40
1
 10
70.640513
 20
110.825262
 30
0.0
 10
70.165578
 20
111.821895
 30
0.0
 10
69.839315
 20
112.817381
 30
0.0
 10
69.639742
 20
113.765024
 30
0.0
  0
SPLINE
  5
322
100
AcDbEntity
  8
Layer_1
 62
7
100
AcDbSpline
 70
8
 71
3
 72
8
 73
4
 74
0
 40
0
 40
0
 40
0
 40
0
 40
1
 40
1
 40
1
 40
1
 10
69.639742
 20
113.765024
 30
0.0
 10
69.440165
 20
114.712667
 30
0.0
 10
69.366915
 20
115.612083
 30
0.0
 10
69.383227
 20
116.429893
 30
0.0
  0
SPLINE
  5
323
100
AcDbEntity
  8
Layer_1
 62
7
100
AcDbSpline
 70
8
 71
3
 72
8
 73
4
 74
0
 40
0
 40
0
 40
0
 40
0
 40
1
 40
1
 40
1
 40
1
 10
69.383227
 20
116.429893
 30
0.0
 10
69.399539
 20
117.247705
 30
0.0
 10
69.504935
 20
117.983698
 30
0.0
 10
69.654270
 20
118.622243
 30
0.0
  0
SPLINE
  5
324
100
AcDbEntity
  8
Layer_1
 62
7
100
AcDbSpline
 70
8
 71
3
 72
8
 73
4
 74
0
 40
0
 40
0
 40
0
 40
0
 40
1
 40
1
 40
1
 40
1
 10
69.654270
 20
118.622243
 30
0.0
 10
69.803603
 20
119.260788
 30
0.0
 10
69.996352
 20
119.801878
 30
0.0
 10
70.186561
 20
120.249266
 30
0.0
  0
SPLINE
  5
325
100
AcDbEntity
  8
Layer_1
 62
7
100
AcDbSpline
 70
8
 71
3
 72
8
 73
4
 74
0
 40
0
 40
0
 40
0
 40
0
 40
1
 40
1
 40
1
 40
1
 10
70.186561
 20
120.249266
 30
0.0
 10
70.376773
 20
120.696653
 30
0.0
 10
70.563957
 20
121.050528
 30
0.0
 10
70.708938
 20
121.332618
 30
0.0
  0
SPLINE
  5
326
100
AcDbEntity
  8
Layer_1
 62
7
100
AcDbSpline
 70
8
 71
3
 72
8
 73
4
 74
0
 40
0
 40
0
 40
0
 40
0
 40
1
 40
1
 40
1
 40
1
 10
70.708938
 20
121.332618
 30
0.0
 10
70.853918
 20
121.614710
 30
0.0
 10
70.956325
 20
121.825381
 30
0.0
 10
70.990183
 20
122.000110
 30
0.0
  0
SPLINE
  5
327
100
AcDbEntity
  8
Layer_1
 62
7
100
AcDbSpline
 70
8
 71
3
 72
8
 73
4
 74
0
 40
0
 40
0
 40
0
 40
0
 40
1
 40
1
 40
1
 40
1
 10
70.990183
 20
122.000110
 30
0.0
 10
71.024044
 20
122.174842
 30
0.0
 10
70.989055
 20
122.314111
 30
0.0
 10
70.877072
 20
122.460790
 30
0.0
  0
SPLINE
  5
328
100
AcDbEntity
  8
Layer_1
 62
7
100
AcDbSpline
 70
8
 71
3
 72
8
 73
4
 74
0
 40
0
 40
0
 40
0
 40
0
 40
1
 40
1
 40
1
 40
1
 10
70.877072
 20
122.460790
 30
0.0
 10
70.764981
 20
122.607466
 30
0.0
 10
70.575689
 20
122.762071
 30
0.0
 10
70.319739
 20
122.967328
 30
0.0
  0
SPLINE
  5
329
100
AcDbEntity
  8
Layer_1
 62
7
100
AcDbSpline
 70
8
 71
3
 72
8
 73
4
 74
0
 40
0
 40
0
 40
0
 40
0
 40
1
 40
1
 40
1
 40
1
 10
70.319739
 20
122.967328
 30
0.0
 10
70.063789
 20
123.172585
 30
0.0
 10
69.741384
 20
123.428970
 30
0.0
 10
69.380540
 20
123.771546
 30
0.0
  0
SPLINE
  5
32a
100
AcDbEntity
  8
Layer_1
 62
7
100
AcDbSpline
 70
8
 71
3
 72
8
 73
4
 74
0
 40
0
 40
0
 40
0
 40
0
 40
1
 40
1
 40
1
 40
1
 10
69.380540
 20
123.771546
 30
0.0
 10
69.019694
 20
124.114118
 30
0.0
 10
68.620784
 20
124.543243
 30
0.0
 10
68.224956
 20
125.079942
 30
0.0
  0
SPLINE
  5
32b
100
AcDbEntity
  8
Layer_1
 62
7
100
AcDbSpline
 70
8
 71
3
 72
8
 73
4
 74
0
 40
0
 40
0
 40
0
 40
0
 40
1
 40
1
 40
1
 40
1
 10
68.224956
 20
125.079942
 30
0.0
 10
67.829128
 20
125.616638
 30
0.0
 10
67.436867
 20
126.261107
 30
0.0
 10
67.095991
 20
127.016130
 30
0.0
  0
SPLINE
  5
32c
100
AcDbEntity
  8
Layer_1
 62
7
100
AcDbSpline
 70
8
 71
3
 72
8
 73
4
 74
0
 40
0
 40
0
 40
0
 40
0
 40
1
 40
1
 40
1
 40
1
 10
67.095991
 20
127.016130
 30
0.0
 10
66.755117
 20
127.771157
 30
0.0
 10
66.466147
 20
128.636729
 30
0.0
 10
66.275938
 20
129.596014
 30
0.0
  0
SPLINE
  5
32d
100
AcDbEntity
  8
Layer_1
 62
7
100
AcDbSpline
 70
8
 71
3
 72
8
 73
4
 74
0
 40
0
 40
0
 40
0
 40
0
 40
1
 40
1
 40
1
 40
1
 10
66.275938
 20
129.596014
 30
0.0
 10
66.085728
 20
130.555301
 30
0.0
 10
65.994760
 20
131.608089
 30
0.0
 10
66.041321
 20
132.719568
 30
0.0
  0
SPLINE
  5
32e
100
AcDbEntity
  8
Layer_1
 62
7
100
AcDbSpline
 70
8
 71
3
 72
8
 73
4
 74
0
 40
0
 40
0
 40
0
 40
0
 40
1
 40
1
 40
1
 40
1
 10
66.041321
 20
132.719568
 30
0.0
 10
66.087885
 20
133.831049
 30
0.0
 10
66.272342
 20
135.000838
 30
0.0
 10
66.617997
 20
136.180617
 30
0.0
  0
SPLINE
  5
32f
100
AcDbEntity
  8
Layer_1
 62
7
100
AcDbSpline
 70
8
 71
3
 72
8
 73
4
 74
0
 40
0
 40
0
 40
0
 40
0
 40
1
 40
1
 40
1
 40
1
 10
66.617997
 20
136.180617
 30
0.0
 10
66.963654
 20
137.360393
 30
0.0
 10
67.470700
 20
138.549666
 30
0.0
 10
68.143210
 20
139.693203
 30
0.0
  0
SPLINE
  5
330
100
AcDbEntity
  8
Layer_1
 62
7
100
AcDbSpline
 70
8
 71
3
 72
8
 73
4
 74
0
 40
0
 40
0
 40
0
 40
0
 40
1
 40
1
 40
1
 40
1
 10
68.143210
 20
139.693203
 30
0.0
 10
68.815718
 20
140.836742
 30
0.0
 10
69.653678
 20
141.934013
 30
0.0
 10
70.640513
 20
142.930644
 30
0.0
  0
SPLINE
  5
331
100
AcDbEntity
  8
Layer_1
 62
7
100
AcDbSpline
 70
8
 71
3
 72
8
 73
4
 74
0
 40
0
 40
0
 40
0
 40
0
 40
1
 40
1
 40
1
 40
1
 10
70.640513
 20
142.930644
 30
0.0
 10
71.627348
 20
143.927273
 30
0.0
 10
72.762844
 20
144.822775
 30
0.0
 10
74.011423
 20
145.571372
 30
0.0
  0
SPLINE
  5
332
100
AcDbEntity
  8
Layer_1
 62
7
100
AcDbSpline
 70
8
 71
3
 72
8
 73
4
 74
0
 40
0
 40
0
 40
0
 40
0
 40
1
 40
1
 40
1
 40
1
 10
74.011423
 20
145.571372
 30
0.0
 10
75.260000
 20
146.319969
 30
0.0
 10
76.621279
 20
146.921289
 30
0.0
 10
78.045155
 20
147.344721
 30
0.0
  0
SPLINE
  5
333
100
AcDbEntity
  8
Layer_1
 62
7
100
AcDbSpline
 70
8
 71
3
 72
8
 73
4
 74
0
 40
0
 40
0
 40
0
 40
0
 40
1
 40
1
 40
1
 40
1
 10
78.045155
 20
147.344721
 30
0.0
 10
79.469028
 20
147.768150
 30
0.0
 10
80.955001
 20
148.013486
 30
0.0
 10
82.445087
 20
148.069660
 30
0.0
  0
SPLINE
  5
334
100
AcDbEntity
  8
Layer_1
 62
7
100
AcDbSpline
 70
8
 71
3
 72
8
 73
4
 74
0
 40
0
 40
0
 40
0
 40
0
 40
1
 40
1
 40
1
 40
1
 10
82.445087
 20
148.069660
 30
0.0
 10
83.935172
 20
148.125836
 30
0.0
 10
85.428830
 20
147.992850
 30
0.0
 10
86.868003
 20
147.680726
 30
0.0
  0
SPLINE
  5
335
100
AcDbEntity
  8
Layer_1
 62
7
100
AcDbSpline
 70
8
 71
3
 72
8
 73
4
 74
0
 40
0
 40
0
 40
0
 40
0
 40
1
 40
1
 40
1
 40
1
 10
86.868003
 20
147.680726
 30
0.0
 10
88.307175
 20
147.368600
 30
0.0
 10
89.691365
 20
146.877536
 30
0.0
 10
90.970258
 20
146.237123
 30
0.0
  0
SPLINE
  5
336
100
AcDbEntity
  8
Layer_1
 62
7
100
AcDbSpline
 70
8
 71
3
 72
8
 73
4
 74
0
 40
0
 40
0
 40
0
 40
0
 40
1
 40
1
 40
1
 40
1
 10
90.970258
 20
146.237123
 30
0.0
 10
92.249148
 20
145.596710
 30
0.0
 10
93.422354
 20
144.807320
 30
0.0
 10
94.453950
 20
143.913740
 30
0.0
  0
SPLINE
  5
337
100
AcDbEntity
  8
Layer_1
 62
7
100
AcDbSpline
 70
8
 71
3
 72
8
 73
4
 74
0
 40
0
 40
0
 40
0
 40
0
 40
1
 40
1
 40
1
 40
1
 10
94.453950
 20
143.913740
 30
0.0
 10
95.485545
 20
143.020157
 30
0.0
 10
96.375316
 20
142.022874
 30
0.0
 10
97.106201
 20
140.975330
 30
0.0
  0
SPLINE
  5
338
100
AcDbEntity
  8
Layer_1
 62
7
100
AcDbSpline
 70
8
 71
3
 72
8
 73
4
 74
0
 40
0
 40
0
 40
0
 40
0
 40
1
 40
1
 40
1
 40
1
 10
97.106201
 20
140.975330
 30
0.0
 10
97.837083
 20
139.927789
 30
0.0
 10
98.409074
 20
138.830517
 30
0.0
 10
98.825631
 20
137.737891
 30
0.0
  0
SPLINE
  5
339
100
AcDbEntity
  8
Layer_1
 62
7
100
AcDbSpline
 70
8
 71
3
 72
8
 73
4
 74
0
 40
0
 40
0
 40
0
 40
0
 40
1
 40
1
 40
1
 40
1
 10
98.825631
 20
137.737891
 30
0.0
 10
99.242191
 20
136.645265
 30
0.0
 10
99.503512
 20
135.557775
 30
0.0
 10
99.632186
 20
134.522982
 30
0.0
  0
SPLINE
  5
33a
100
AcDbEntity
  8
Layer_1
 62
7
100
AcDbSpline
 70
8
 71
3
 72
8
 73
4
 74
0
 40
0
 40
0
 40
0
 40
0
 40
1
 40
1
 40
1
 40
1
 10
99.632186
 20
134.522982
 30
0.0
 10
99.760857
 20
133.488189
 30
0.0
 10
99.757244
 20
132.506467
 30
0.0
 10
99.658828
 20
131.611972
 30
0.0
  0
SPLINE
  5
33b
100
AcDbEntity
  8
Layer_1
 62
7
100
AcDbSpline
 70
8
 71
3
 72
8
 73
4
 74
0
 40
0
 40
0
 40
0
 40
0
 40
1
 40
1
 40
1
 40
1
 10
99.658822
 20
131.611972
 30
0.0
 10
99.560400
 20
130.717478
 30
0.0
 10
99.367648
 20
129.910415
 30
0.0
 10
99.126525
 20
129.207081
 30
0.0
  0
SPLINE
  5
33c
100
AcDbEntity
  8
Layer_1
 62
7
100
AcDbSpline
 70
8
 71
3
 72
8
 73
4
 74
0
 40
0
 40
0
 40
0
 40
0
 40
1
 40
1
 40
1
 40
1
 10
99.126525
 20
129.207081
 30
0.0
 10
98.885406
 20
128.503743
 30
0.0
 10
98.596436
 20
127.904143
 30
0.0
 10
98.306472
 20
127.405066
 30
0.0
  0
SPLINE
  5
33d
100
AcDbEntity
  8
Layer_1
 62
7
100
AcDbSpline
 70
8
 71
3
 72
8
 73
4
 74
0
 40
0
 40
0
 40
0
 40
0
 40
1
 40
1
 40
1
 40
1
 10
98.306472
 20
127.405066
 30
0.0
 10
98.016509
 20
126.905993
 30
0.0
 10
97.726032
 20
126.507253
 30
0.0
 10
97.475190
 20
126.187537
 30
0.0
  0
SPLINE
  5
33e
100
AcDbEntity
  8
Layer_1
 62
7
100
AcDbSpline
 70
8
 71
3
 72
8
 73
4
 74
0
 40
0
 40
0
 40
0
 40
0
 40
1
 40
1
 40
1
 40
1
 10
97.475190
 20
126.187537
 30
0.0
 10
97.224345
 20
125.867822
 30
0.0
 10
97.013502
 20
125.626770
 30
0.0
 10
96.869642
 20
125.429178
 30
0.0
  0
SPLINE
  5
33f
100
AcDbEntity
  8
Layer_1
 62
7
100
AcDbSpline
 70
8
 71
3
 72
8
 73
4
 74
0
 40
0
 40
0
 40
0
 40
0
 40
1
 40
1
 40
1
 40
1
 10
96.869642
 20
125.429178
 30
0.0
 10
96.725782
 20
125.231588
 30
0.0
 10
96.649103
 20
125.076984
 30
0.0
 10
96.649103
 20
124.922640
 30
0.0
  0
LWPOLYLINE
  5
340
100
AcDbEntity
  8
0
 62
7
100
AcDbPolyline
 90
2
 70
0
 10
134.380630
 20
124.922640
 30
0.0
 10
134.380630
 20
124.922640
 30
0.0
  0
LWPOLYLINE
  5
341
100
AcDbEntity
  8
Layer_1
 62
7
100
AcDbPolyline
 90
2
 70
0
 10
96.649103
 20
124.922640
 30
0.0
 10
96.649103
 20
124.922640
 30
0.0
  0
ENDSEC
  0
SECTION
  2
OBJECTS
  0
DICTIONARY
  5
C
330
0
100
AcDbDictionary
  3
ACAD_GROUP
350
D
  3
ACAD_MLINESTYLE
350
17
  0
DICTIONARY
  5
D
330
C
100
AcDbDictionary
  0
DICTIONARY
  5
1A
330
C
100
AcDbDictionary
  0
DICTIONARY
  5
17
330
C
100
AcDbDictionary
  3
STANDARD
350
18
  0
DICTIONARY
  5
19
330
C
100
AcDbDictionary
  0
ENDSEC
  0
EOF
